<svg fill="none" xmlns="http://www.w3.org/2000/svg" viewBox="0 0 303 307">
  <path d="M33.6237 151.182.3506 146.548l1.5797-11.264c.4709-3.332 1.7138-8.841 6.4594-12.54 4.2932-3.357 9.186-3.436 12.7797-2.933 4.3886.611 8.1317 2.254 10.9096 5.936a18.1018 18.1018 0 0 1 3.234 13.439l-1.6893 11.996Zm-6.1081-9.627.2464-1.739c.2982-2.087.5117-5.052-1.367-7.596-.8947-1.239-2.7844-2.973-6.4755-3.488-3.091-.432-5.872.146-7.6491 1.568-2.1863 1.775-2.7706 4.437-3.072 6.572l-.2982 2.087 18.6154 2.596ZM49.455 86.6807c1.3787 4.5145.756 9.5842-1.5247 14.0353-2.1259 4.395-5.8576 7.815-10.4292 9.559a17.6277 17.6277 0 0 1-6.8918.911 17.5805 17.5805 0 0 1-6.703-1.823 17.5141 17.5141 0 0 1-5.4648-4.273 17.4495 17.4495 0 0 1-3.3711-6.0537c-1.3242-4.7004-.7897-9.7306 1.4933-14.0548 2.1285-4.403 5.8673-7.8276 10.4472-9.5694a17.6521 17.6521 0 0 1 6.8919-.908 17.6116 17.6116 0 0 1 6.7026 1.8237 17.5426 17.5426 0 0 1 5.4664 4.2705 17.4816 17.4816 0 0 1 3.3762 6.0503l.007.0321Zm-25.9992 9.3385a9.1887 9.1887 0 0 0 1.8084 3.1374 9.206 9.206 0 0 0 2.8824 2.1984 8.5666 8.5666 0 0 0 3.3426.912 8.584 8.584 0 0 0 3.4325-.489 9.5358 9.5358 0 0 0 3.2107-1.8877 9.5096 9.5096 0 0 0 2.2402-2.9703 9.0797 9.0797 0 0 0 1.0946-3.4543 9.0585 9.0585 0 0 0-2.0735-6.7866 9.0932 9.0932 0 0 0-2.8388-2.2547 9.083 9.083 0 0 0-3.446-.9422 9.1009 9.1009 0 0 0-3.5453.4587c-2.3375.8877-4.2629 2.6078-5.4035 4.8277a9.6382 9.6382 0 0 0-.7043 7.2506Zm15.3981-43.9676 18.939 12.06-9.3554-20.7588 5.1395-4.6753 19.4957 11.5467-9.9213-20.2569 6.7669-6.1316L84.575 55.78l-6.5945 5.9927-17.6019-10.2248 8.3177 18.6555-6.5501 6.0099L32.1064 58.179l6.7475-6.1274Zm58.1378-4.2056L85.4172 16.4163l8.1847-3.0069 22.1661 13.695-7.072-19.2328 8.18-2.9991 11.568 31.4311-8.186 3.0005-22.1649-13.6885 7.0769 19.2249-8.1783 3.0055ZM148.294 8.6073l1.843 26.0506-8.697.6194-1.841-26.0441-7.137.5123-.518-7.3659L154.933.725l.518 7.3659-7.157.5165Zm44.822 27.3364a19.2192 19.2192 0 0 1-14.014 2.0859c-4.876-1.0432-9.247-3.7272-11.899-7.6318a17.4644 17.4644 0 0 1-2.517-13.3652 17.506 17.506 0 0 1 2.79-6.3611 17.5954 17.5954 0 0 1 5.047-4.7867c4.04-2.4792 9.131-3.1342 14.007-2.091 4.804.9337 9.065 3.6663 11.906 7.6369a17.4629 17.4629 0 0 1 2.609 6.4273c.431 2.295.398 4.6533-.097 6.9366a17.54 17.54 0 0 1-2.789 6.3604 17.6033 17.6033 0 0 1-5.043 4.7887Zm-15.595-22.7149a9.2391 9.2391 0 0 0-2.595 2.5382 9.2235 9.2235 0 0 0-1.415 3.3373 8.5208 8.5208 0 0 0-.045 3.4589 8.5338 8.5338 0 0 0 1.332 3.1919 9.5128 9.5128 0 0 0 2.64 2.6316 9.5649 9.5649 0 0 0 3.452 1.4191 9.1637 9.1637 0 0 0 5.401-.2734 9.1512 9.1512 0 0 0 4.305-3.2698 9.1018 9.1018 0 0 0 1.481-3.3115 9.0188 9.0188 0 0 0 .041-3.5596 9.0234 9.0234 0 0 0-1.34-3.2976c-1.44-2.0435-3.593-3.4775-6.039-4.022a9.707 9.707 0 0 0-7.218 1.1569Zm48.588 4.8024-7.295 21.2212 18.03-14.0207 5.767 3.8659-6.67 21.636 17.443-14.4441 7.562 5.0753-27.66 21.8332-7.4-4.9556 5.82-19.4746-16.285 12.4847-7.353-4.9256 10.474-33.3628 7.567 5.0671Zm17.842 55.3076 27.885-18.7501 4.866 7.2047-8.083 24.7435 17.058-11.4616 4.876 7.1954-27.88 18.7413-4.896-7.1909 8.083-24.7435-17.09 11.4693-4.819-7.2081ZM64.2202 244.142l-6.8422-7.983-4.2597 3.633 6.2211 7.25-5.6384 4.805-6.2146-7.251-10.0461 8.564-5.6598-6.605 25.571-21.798 12.5006 14.581-5.6319 4.804Zm11.3513 34.565-10.0588-6.864-5.0676 3.373-7.6081-5.193 29.7072-20.398 7.8548 5.362-8.5816 34.772-7.7362-5.252 1.4903-5.8Zm1.8891-6.784 3.0112-11.059-9.1909 6.887 6.1797 4.172Zm16.3997 22.99 10.7237-31.767 12.277 4.125c2.291.763 4.899 2.009 6.136 4.803.694 1.559.896 3.799-.055 6.609a8.6495 8.6495 0 0 1-2.223 3.602 5.3016 5.3016 0 0 1-3.419 1.615 8.3346 8.3346 0 0 1 3.707 3.356c.464 1.021.72 2.124.751 3.245a8.434 8.434 0 0 1-.565 3.284 9.1017 9.1017 0 0 1-1.673 3.175 9.1504 9.1504 0 0 1-2.774 2.285c-2.316 1.183-5.741 1.417-9.662.104l-13.2237-4.436Zm10.4387-3.645 1.861.622c2.293.769 4.314 1.16 5.543.418a3.2294 3.2294 0 0 0 1.358-1.822c.324-.825.311-1.744-.035-2.559-.665-1.33-2.707-2.066-4.759-2.754l-1.722-.571-2.246 6.666Zm4.323-12.811 1.527.514c.86.282 2.325.667 3.493.046a3.2589 3.2589 0 0 0 1.469-1.839 3.425 3.425 0 0 0-.04-2.396c-.35-.699-1.209-1.466-2.829-2.007l-1.533-.511-2.087 6.193Zm31.344-4.995 6.311 21.523 6.643-21.792 6.946-.18 7.054 21.487 5.92-21.788 9.118-.207-10.015 33.727-8.917.203-6.506-19.243-6.032 19.522-8.87.199-10.701-33.266 9.049-.185Zm84.294 11.974c-1.88 4.335-5.678 7.793-10.277 9.728-4.473 1.985-9.537 2.191-14.151.573a17.5682 17.5682 0 0 1-5.843-3.761 17.4912 17.4912 0 0 1-3.919-5.727c-.911-2.15-1.38-4.461-1.382-6.796a17.498 17.498 0 0 1 1.371-6.803c2.137-4.379 5.797-7.837 10.298-9.729 4.501-1.892 9.537-2.088 14.168-.552 2.18.852 4.166 2.131 5.843 3.76a17.4988 17.4988 0 0 1 3.918 5.727c.91 2.151 1.379 4.462 1.38 6.798 0 2.336-.467 4.648-1.375 6.802l-.031-.02Zm-25.868-9.646a9.203 9.203 0 0 0-.66 3.561 9.193 9.193 0 0 0 .768 3.538 8.4784 8.4784 0 0 0 1.954 2.853 8.5169 8.5169 0 0 0 2.933 1.84c1.171.45 2.419.665 3.673.633a9.5518 9.5518 0 0 0 3.638-.82 9.1384 9.1384 0 0 0 3.075-1.935 9.1034 9.1034 0 0 0 2.077-2.977c.485-1.121.74-2.327.748-3.546a9.0473 9.0473 0 0 0-.698-3.555 8.9945 8.9945 0 0 0-2.014-2.934 9.0438 9.0438 0 0 0-2.998-1.928 10.1406 10.1406 0 0 0-7.261.169c-2.343.958-4.221 2.788-5.235 5.101Zm35.14-32.933c1.902-1.652 4.593-3.47 8.155-3.142 2.772.32 5.319 1.673 7.13 3.789a9.61 9.61 0 0 1 2.002 3.24 9.599 9.599 0 0 1 .587 3.764 9.3447 9.3447 0 0 1-1.97 4.786l16.981 3.407-8.167 7.114-14.811-4.208 8.48 9.678-6.566 5.723-22.098-25.219 10.277-8.932Zm6.223 14.514 1.254-1.092c.981-.89 2.187-2.354 2.295-3.8a4.1593 4.1593 0 0 0-1.017-2.842c-.343-.396-.761-.72-1.23-.954-.469-.233-.98-.371-1.504-.406-1.132-.074-2.593.51-4.016 1.76l-1.246 1.096 5.464 6.238Zm24.328-28.217-6.03-16.369 5.781-9.109 6.365 19.712 22.732-2.919-6.019 9.532-18.399 1.891 12.331 7.726-4.65 7.357-28.444-17.819 4.644-7.357 11.689 7.355Zm24.76-26.715c2.22-1.283 4.636-3.519 5.475-6.406.509-1.683.273-2.85-.146-3.553a2.9406 2.9406 0 0 0-.751-.884 2.9517 2.9517 0 0 0-1.034-.529 2.616 2.616 0 0 0-1.14-.076c-.381.06-.745.203-1.064.419-.969.604-1.682 1.758-2.924 3.649l-1.325 1.969c-.835 1.215-2.151 2.98-3.987 3.856-2.271 1.113-4.595.633-6.243.154-3.959-1.151-5.924-3.414-6.903-5.22-1.145-2.127-1.754-5.235-.598-9.141a23.5875 23.5875 0 0 1 5.567-9.156l5.53 5.245c-2.717 1.946-3.478 3.744-3.803 4.88a4.184 4.184 0 0 0 .152 3.026c.143.314.351.594.609.824.257.23.56.404.889.511.508.188 1.067.185 1.573-.009.365-.154 1.114-.562 2.286-2.37l1.518-2.322c1.232-1.841 2.559-3.736 4.923-4.89 2.228-1.123 4.148-1.033 6.369-.377 2.949.861 5.586 2.424 7.212 5.422 1.939 3.556 1.481 7.039.461 10.458a17.7794 17.7794 0 0 1-2.941 5.997 23.3257 23.3257 0 0 1-4.005 4.116l-5.7-5.593Zm-258.8428-3.97-1.3815-6.28-6.1555-1.941-4.766 4.344 1.3815 6.28 6.1476 1.936 4.7739-4.339Zm266.0958-58.543-1.382-6.279-6.149-1.943-4.766 4.344 1.382 6.28 6.148 1.936 4.767-4.338ZM181.94 212.447l-66.825 14.702c-.483.106-.987.017-1.403-.247a1.8548 1.8548 0 0 1-.815-1.164L94.8264 143.6a1.8598 1.8598 0 0 1 .2497-1.401c.2663-.416.6865-.71 1.1693-.818l33.4096-7.351c.484-.106.99-.017 1.408.25.418.265.712.686.818 1.168l10.347 47.03 31.609-6.954c8.103-2.106 15.078-7.258 19.458-14.374 4.38-7.115 5.826-15.643 4.033-23.79-1.792-8.148-6.683-15.281-13.646-19.9-6.962-4.622-15.454-6.371-23.693-4.881l-66.8447 14.706a1.8665 1.8665 0 0 1-1.4032-.248 1.852 1.852 0 0 1-.8148-1.164l-7.3235-33.2885a1.8623 1.8623 0 0 1 .2497-1.4012 1.8747 1.8747 0 0 1 1.1692-.8181l66.8253-14.702a70.5143 70.5143 0 0 1 27.576-.8092c9.152 1.5483 17.903 4.8899 25.748 9.8318 7.844 4.941 14.625 11.3844 19.952 18.9582 5.326 7.573 9.093 16.125 11.081 25.163 1.989 9.038 2.159 18.381.503 27.491a70.0156 70.0156 0 0 1-10.153 25.581c-5.046 7.778-11.587 14.484-19.244 19.73a70.4935 70.4935 0 0 1-25.37 10.838Zm-65.798 10.67 65-14.301c11.408-2.51 21.957-7.969 30.587-15.827 8.629-7.856 15.036-17.836 18.575-28.936 3.539-11.099 4.086-22.927 1.586-34.296-2.5-11.367-7.959-21.875-15.828-30.4641-7.871-8.5922-17.876-14.9636-29.007-18.4733-11.132-3.5104-22.999-4.0362-34.409-1.5246L87.6464 93.5953l6.5245 29.6567 65.0001-14.301c9.289-1.912 18.955-.103 26.905 5.035 7.95 5.139 13.546 13.194 15.576 22.423 2.031 9.228.332 18.888-4.727 26.889-5.06 8.001-13.074 13.699-22.308 15.862l-33.416 7.351a1.861 1.861 0 0 1-1.403-.248 1.8496 1.8496 0 0 1-.815-1.164l-10.348-47.037-29.765 6.549 17.272 78.506Z" fill="#fff"/>
  <path d="m172.087 224.164-66.825 14.702c-.483.106-.987.017-1.403-.248a1.8548 1.8548 0 0 1-.815-1.164L84.9719 155.31a1.8514 1.8514 0 0 1 .2509-1.399c.1318-.205.303-.383.5036-.523.2007-.14.4269-.239.6659-.291l33.4157-7.352c.483-.106.987-.017 1.403.248.416.265.709.684.815 1.165l10.347 47.03 31.61-6.954c8.103-2.106 15.077-7.258 19.457-14.374 4.38-7.115 5.826-15.643 4.034-23.79-1.793-8.147-6.683-15.28-13.646-19.901-6.962-4.621-15.455-6.37-23.693-4.88l-66.8453 14.706a1.871 1.871 0 0 1-1.4046-.252 1.8605 1.8605 0 0 1-.8147-1.167l-7.3208-33.275a1.8592 1.8592 0 0 1 .2503-1.401c.266-.416.6863-.71 1.1688-.818l66.8253-14.7019a70.503 70.503 0 0 1 27.576-.8099c9.152 1.5483 17.903 4.8899 25.748 9.8318 7.843 4.941 14.625 11.384 19.952 18.958 5.326 7.573 9.093 16.125 11.081 25.163 1.989 9.038 2.159 18.382.503 27.491-1.657 9.11-5.108 17.804-10.153 25.581-5.046 7.778-11.587 14.484-19.244 19.73a70.513 70.513 0 0 1-25.37 10.839Zm-65.798 10.669 64.999-14.301c11.409-2.51 21.958-7.968 30.588-15.826 8.629-7.857 15.036-17.837 18.575-28.937 3.539-11.099 4.086-22.927 1.586-34.295-2.5-11.368-7.96-21.875-15.829-30.465-7.871-8.592-17.875-14.963-29.006-18.4725-11.132-3.5108-23-4.0369-34.409-1.5253L77.7932 105.312l6.5246 29.656 65.0002-14.3c9.289-1.913 18.954-.104 26.905 5.035 7.95 5.138 13.546 13.193 15.576 22.422 2.031 9.228.332 18.889-4.727 26.89-5.06 8.001-13.074 13.699-22.308 15.861l-33.41 7.35c-.483.107-.988.017-1.405-.247a1.859 1.859 0 0 1-.819-1.164l-10.348-47.036-29.7651 6.548 17.2721 78.506Z" fill="#fff"/>
  <path d="M75.9741 105.712a1.8726 1.8726 0 0 1-1.138-.1 1.861 1.861 0 0 1-.8639-.745 1.8503 1.8503 0 0 1-.2646-1.108c.031-.388.1831-.757.4349-1.054l9.8531-11.7163a1.8711 1.8711 0 0 1 .5693-.4684 1.8632 1.8632 0 0 1 .7071-.2102 1.8519 1.8519 0 0 1 1.3762.4388c.1907.1569.3477.3509.4633.5688a1.857 1.857 0 0 1 .2073.7027 1.8578 1.8578 0 0 1-.0796.7294 1.8709 1.8709 0 0 1-.3544.6423l-9.8845 11.6969a1.8419 1.8419 0 0 1-1.0262.623Zm11.2236 51.015a1.8658 1.8658 0 0 1-1.1381-.101 1.8477 1.8477 0 0 1-.8637-.744 1.8448 1.8448 0 0 1-.2646-1.107c.0309-.389.1831-.757.4349-1.055l9.8531-11.716a1.8691 1.8691 0 0 1 1.2657-.659 1.863 1.863 0 0 1 .7232.077c.2335.073.4502.192.6378.348.1879.156.3424.348.4556.565.1131.215.1828.452.2037.695.0218.243-.0054.489-.0787.721a1.849 1.849 0 0 1-.3496.637l-9.8532 11.716a1.8406 1.8406 0 0 1-1.0261.623ZM83.2976 139a1.8584 1.8584 0 0 1-1.1381-.101 1.8533 1.8533 0 0 1-.8637-.744 1.8479 1.8479 0 0 1-.2646-1.108c.0309-.388.1831-.756.4349-1.054l9.8531-11.716c.1577-.187.3502-.342.5674-.455.2166-.113.4543-.182.6984-.204a1.864 1.864 0 0 1 .7231.077c.2332.073.4498.191.6378.348a1.8501 1.8501 0 0 1 .6595 1.26c.0216.243-.0056.488-.0789.721a1.8413 1.8413 0 0 1-.3496.636l-9.8532 11.717a1.8406 1.8406 0 0 1-1.0261.623Zm37.3094 10.377c-.381.086-.779.051-1.138-.101a1.8583 1.8583 0 0 1-.864-.744c-.202-.332-.294-.72-.264-1.108.031-.388.183-.756.435-1.054l9.853-11.716c.317-.379.773-.617 1.266-.662.493-.045.983.108 1.363.424.38.315.618.769.662 1.261.044.491-.11.98-.427 1.359l-9.853 11.716c-.264.318-.628.539-1.033.625Zm10.747 48.849c-.279.063-.569.061-.846-.007a1.8358 1.8358 0 0 1-.754-.382c-.192-.157-.35-.35-.466-.568a1.8677 1.8677 0 0 1-.208-.704 1.837 1.837 0 0 1 .081-.729c.074-.235.195-.454.356-.642l9.853-11.717c.326-.353.776-.569 1.256-.6.48-.032.954.122 1.323.43s.603.747.656 1.223c.052.477-.083.956-.376 1.337l-9.853 11.716c-.26.321-.619.547-1.022.643Zm-26.086 40.639a1.8397 1.8397 0 0 1-1.6-.39 1.829 1.829 0 0 1-.469-.566 1.8535 1.8535 0 0 1-.211-.705c-.021-.246.007-.494.082-.73.076-.236.199-.454.361-.642l9.853-11.716c.326-.354.776-.569 1.256-.601a1.87 1.87 0 0 1 1.323.431c.369.308.603.746.656 1.223.052.477-.083.956-.376 1.337l-9.853 11.716c-.26.321-.619.547-1.022.643Z" fill="#fff"/>
</svg>
