<svg width="32" height="32" viewBox="0 0 32 32" fill="none" xmlns="http://www.w3.org/2000/svg">
<rect width="32" height="32" fill="#6AA2B9"/>
<path d="M26.5209 9.3904C25.5482 7.75325 24.1538 6.3928 22.476 5.444C20.7974 4.49788 18.893 3.99999 16.9546 4.00045H6.20443C6.19321 3.99985 6.18197 3.99985 6.17075 4.00045C6.15014 4.00241 6.12977 4.00622 6.10988 4.01183C6.09199 4.01898 6.07467 4.02743 6.05807 4.03711C6.04689 4.04183 6.03607 4.04733 6.02569 4.05354L4.11009 5.49077C4.11009 5.49077 4.10362 5.50089 4.09844 5.50468C4.08379 5.51746 4.07075 5.53188 4.05958 5.54766C4.0476 5.56171 4.03718 5.57697 4.02849 5.59316C4.02153 5.60869 4.0159 5.62476 4.01166 5.6412C4.00567 5.66055 4.00176 5.68046 4 5.70061C4 5.70061 4 5.71072 4 5.71704V10.9654C4.00153 10.9765 4.00369 10.9874 4.00648 10.9983C4.0088 11.018 4.01314 11.0375 4.01943 11.0564C4.02601 11.0746 4.0347 11.092 4.04533 11.1083C4.04533 11.1184 4.0531 11.1297 4.06087 11.1399C4.06865 11.15 4.06994 11.1399 4.07383 11.15C4.09425 11.1722 4.11832 11.191 4.14506 11.2056C4.15404 11.2126 4.16357 11.219 4.17356 11.2245C4.21122 11.2419 4.25235 11.251 4.29401 11.2511H15.0441C16.3928 11.2528 17.6856 11.7767 18.6388 12.7079C19.5919 13.6391 20.1274 14.9014 20.1278 16.2176C20.1281 17.3447 19.7332 18.438 19.0087 19.3158C18.3623 19.5975 17.6625 19.7435 16.9546 19.7443H11.8709V12.3293C11.8716 12.3184 11.8716 12.3074 11.8709 12.2965C11.8692 12.2762 11.8649 12.2562 11.858 12.2371C11.8513 12.2195 11.8431 12.2026 11.8334 12.1865C11.8285 12.1752 11.8229 12.1642 11.8165 12.1536C11.8165 12.1536 11.8062 12.146 11.8023 12.1423C11.7892 12.128 11.7744 12.1152 11.7582 12.1043C11.7438 12.0926 11.7282 12.0825 11.7116 12.074C11.6957 12.0672 11.6792 12.0617 11.6624 12.0576C11.6425 12.0519 11.6221 12.0481 11.6015 12.0462H11.5847H6.20443C6.19321 12.0456 6.18197 12.0456 6.17075 12.0462C6.15001 12.048 6.12957 12.0522 6.10988 12.0588C6.09175 12.0655 6.07438 12.0739 6.05807 12.0841C6.04691 12.0884 6.03609 12.0935 6.02569 12.0993L4.11657 13.5352C4.11657 13.5352 4.11009 13.5454 4.10491 13.5491C4.09026 13.5619 4.07722 13.5764 4.06606 13.5921C4.05408 13.6062 4.04366 13.6214 4.03497 13.6376C4.02801 13.6532 4.02238 13.6692 4.01813 13.6857C4.01238 13.7051 4.00848 13.725 4.00648 13.7451C4.00648 13.7514 4.00648 13.7565 4.00648 13.7615V26.7131C4.00789 26.7246 4.01005 26.736 4.01295 26.7472C4.0154 26.7669 4.01974 26.7864 4.0259 26.8053C4.03269 26.8234 4.04137 26.8408 4.05181 26.8572C4.05181 26.8673 4.05958 26.8786 4.06735 26.8888L4.0803 26.8989C4.10072 26.9211 4.12479 26.9399 4.15154 26.9545C4.16051 26.9615 4.17004 26.9679 4.18003 26.9735C4.2177 26.9908 4.25883 26.9999 4.30049 27H15.0506C16.9877 26.9998 18.8907 26.5019 20.5682 25.5564C21.3389 25.1186 22.053 24.592 22.6949 23.9877C24.2756 23.0472 25.5907 21.7363 26.5209 20.1741C27.4909 18.5347 28.0011 16.6747 28 14.7816C28.0009 12.8889 27.4908 11.0294 26.5209 9.3904V9.3904ZM24.104 21.3218C23.6209 22.1337 23.026 22.8771 22.3361 23.5314C22.2843 23.5618 22.2351 23.5946 22.182 23.625C20.5927 24.5206 18.7898 24.9919 16.9546 24.9914H6.49455V14.051H9.37636V21.4659C9.3779 21.477 9.38006 21.488 9.38284 21.4988C9.38453 21.5187 9.38888 21.5382 9.39579 21.557C9.40237 21.5751 9.41106 21.5925 9.42169 21.6088C9.42581 21.6198 9.43101 21.6304 9.43724 21.6404C9.43724 21.6404 9.4463 21.6467 9.45019 21.6505C9.47043 21.6724 9.49402 21.6912 9.52013 21.7061C9.53049 21.7124 9.53826 21.72 9.54862 21.7251C9.58638 21.7422 9.62745 21.7512 9.66908 21.7516H15.0467C15.8734 21.7511 16.6899 21.5739 17.4389 21.2323C18.1878 20.8908 18.851 20.3932 19.3818 19.7746C20.3497 19.326 21.1677 18.6189 21.7407 17.7352C22.3138 16.8515 22.6186 15.8274 22.6198 14.7816C22.618 13.3153 22.0208 11.9094 20.9589 10.8721C19.897 9.83474 18.457 9.25057 16.9546 9.24756H6.49455V6.00904H15.0428C16.8794 6.00784 18.6838 6.47916 20.2741 7.37549C21.8631 8.27396 23.1834 9.56258 24.104 11.1133C25.0222 12.6651 25.5047 14.4257 25.5029 16.2176C25.5048 18.0095 25.0223 19.7701 24.104 21.3218V21.3218ZM5.90524 25.1368L4.58284 26.1316V14.051H5.90524V25.1368ZM5.90524 13.4784H5.15143L5.90524 12.9108V13.4784ZM11.2816 19.8897L9.9605 20.8832V13.9056L11.2816 12.9108V19.8897ZM5.90524 9.39798L4.58284 10.3928V6.00904H5.90524V9.39798ZM5.15143 5.44148L5.90524 4.87391V5.44148H5.15143ZM15.0441 10.6886H5.15143L6.29768 9.82523H16.9546C18.301 9.82757 19.5916 10.3504 20.5438 11.2793C21.4961 12.2083 22.0325 13.4676 22.0356 14.7816C22.0355 15.5243 21.8643 16.2575 21.5345 16.9269C21.2046 17.5962 20.7248 18.1846 20.1304 18.6484C20.5126 17.8924 20.7111 17.0606 20.7106 16.2176C20.7089 14.751 20.1115 13.345 19.0493 12.3076C17.9871 11.2702 16.5468 10.6862 15.0441 10.6835V10.6886ZM16.9546 20.3169C17.3233 20.3163 17.6912 20.2808 18.0529 20.2107C17.183 20.8395 16.1292 21.1789 15.0467 21.179H10.5304L11.6779 20.3169H16.9546ZM10.7169 12.615L9.56935 13.4784H6.49455V12.615H10.7169ZM5.15402 26.4274L6.30027 25.564H16.9546C18.081 25.561 19.2004 25.3905 20.2741 25.0584C18.6847 25.9535 16.8818 26.4244 15.0467 26.4236L5.15402 26.4274ZM26.0119 19.8871C25.564 20.6416 25.019 21.337 24.3903 21.9564C24.4654 21.8414 24.5418 21.7276 24.6118 21.6088C25.5828 19.9702 26.0934 18.1105 26.0922 16.2176C26.0933 14.3247 25.5826 12.465 24.6118 10.8264C23.6401 9.1892 22.246 7.82901 20.5682 6.88124C18.8889 5.93424 16.9836 5.4359 15.0441 5.43642H6.49584V4.57307H16.9546C18.7898 4.57254 20.5927 5.04384 22.182 5.93952C23.7712 6.83761 25.0917 8.12632 26.0119 9.67734C26.9307 11.2289 27.4141 12.9895 27.4133 14.7816C27.4143 16.5741 26.9309 18.3352 26.0119 19.8871V19.8871Z" fill="white"/>
</svg>
