<svg xmlns="http://www.w3.org/2000/svg" width="1690.26" height="474.15" viewBox="0 0 1690.26 474.15"><g id="Layer_2" data-name="Layer 2"><g id="Layer_1-2" data-name="Layer 1"><g style="opacity:0.41000000000000003"><path d="M1349.83,256.88h-91.38a2.49,2.49,0,0,1-2.49-2.49V141.65a2.49,2.49,0,0,1,2.49-2.49h45.69a2.49,2.49,0,0,1,2.5,2.49v64.56h43.19a43.2,43.2,0,1,0,0-86.4h-91.38a2.49,2.49,0,0,1-2.49-2.49V71.63a2.49,2.49,0,0,1,2.49-2.49h91.38a93.87,93.87,0,1,1,0,187.74Zm-88.88-5h88.88a88.9,88.9,0,0,0,77-133.33h0a88.88,88.88,0,0,0-77-44.45H1261v40.71h88.88a48.18,48.18,0,1,1,0,96.36h-45.69a2.49,2.49,0,0,1-2.49-2.49V144.14H1261Z" style="fill:#68a2b9"/><path d="M1333.62,269.38h-91.38a2.48,2.48,0,0,1-2.49-2.49V154.15a2.48,2.48,0,0,1,2.49-2.49h45.69a2.49,2.49,0,0,1,2.49,2.49v64.56h43.2a43.2,43.2,0,0,0,0-86.4h-91.38a2.48,2.48,0,0,1-2.49-2.49V84.13a2.49,2.49,0,0,1,2.49-2.49h91.38a93.87,93.87,0,1,1,0,187.74Zm-88.89-5h88.89a88.9,88.9,0,0,0,77-133.33h0a88.86,88.86,0,0,0-77-44.44h-88.89v40.7h88.89a48.18,48.18,0,1,1,0,96.36h-45.69a2.48,2.48,0,0,1-2.49-2.49V156.64h-40.71Z" style="fill:#68a2b9"/><path d="M1242.24,86.63a2.52,2.52,0,0,1-2-1,2.49,2.49,0,0,1,.46-3.5l16.21-12.5a2.49,2.49,0,1,1,3,4l-16.21,12.5A2.48,2.48,0,0,1,1242.24,86.63Z" style="fill:#68a2b9"/><path d="M1242.24,156.64a2.49,2.49,0,0,1-1.52-4.46l16.21-12.5a2.49,2.49,0,1,1,3,3.95l-16.21,12.5A2.46,2.46,0,0,1,1242.24,156.64Z" style="fill:#68a2b9"/><path d="M1242.24,132.31a2.49,2.49,0,0,1-1.52-4.46l16.21-12.5a2.49,2.49,0,1,1,3,4l-16.21,12.5A2.46,2.46,0,0,1,1242.24,132.31Z" style="fill:#68a2b9"/><path d="M1287.93,156.64a2.49,2.49,0,0,1-1.52-4.46l16.21-12.5a2.5,2.5,0,1,1,3.05,3.95l-16.22,12.5A2.46,2.46,0,0,1,1287.93,156.64Z" style="fill:#68a2b9"/><path d="M1287.93,223.69a2.49,2.49,0,0,1-1.52-4.46l16.21-12.5a2.5,2.5,0,1,1,3.05,4l-16.22,12.5A2.53,2.53,0,0,1,1287.93,223.69Z" style="fill:#68a2b9"/><path d="M1242.24,269.38a2.49,2.49,0,0,1-1.52-4.46l16.21-12.51a2.49,2.49,0,1,1,3,4l-16.21,12.51A2.53,2.53,0,0,1,1242.24,269.38Z" style="fill:#68a2b9"/></g><g style="opacity:0.5"><polygon points="229.63 89.79 229.63 79.36 220.6 74.15 211.56 79.36 211.56 89.79 220.6 95.01 229.63 89.79" style="fill:#95d4e9"/><polygon points="259.81 89.79 259.81 79.36 250.78 74.15 241.75 79.36 241.75 89.79 250.78 95.01 259.81 89.79" style="fill:#95d4e9"/><polygon points="290 89.79 290 79.36 280.96 74.15 271.93 79.36 271.93 89.79 280.96 95.01 290 89.79" style="fill:#95d4e9"/><polygon points="320.18 89.79 320.18 79.36 311.15 74.15 302.12 79.36 302.12 89.79 311.15 95.01 320.18 89.79" style="fill:#95d4e9"/><polygon points="350.36 89.79 350.36 79.36 341.33 74.15 332.3 79.36 332.3 89.79 341.33 95.01 350.36 89.79" style="fill:#95d4e9"/><polygon points="380.55 89.79 380.55 79.36 371.51 74.15 362.48 79.36 362.48 89.79 371.51 95.01 380.55 89.79" style="fill:#95d4e9"/><polygon points="410.73 89.79 410.73 79.36 401.7 74.15 392.67 79.36 392.67 89.79 401.7 95.01 410.73 89.79" style="fill:#95d4e9"/><polygon points="440.91 89.79 440.91 79.36 431.88 74.15 422.85 79.36 422.85 89.79 431.88 95.01 440.91 89.79" style="fill:#95d4e9"/><polygon points="471.1 89.79 471.1 79.36 462.06 74.15 453.03 79.36 453.03 89.79 462.06 95.01 471.1 89.79" style="fill:#95d4e9"/><polygon points="501.28 89.79 501.28 79.36 492.25 74.15 483.22 79.36 483.22 89.79 492.25 95.01 501.28 89.79" style="fill:#95d4e9"/><polygon points="531.46 89.79 531.46 79.36 522.43 74.15 513.4 79.36 513.4 89.79 522.43 95.01 531.46 89.79" style="fill:#95d4e9"/><polygon points="561.65 89.79 561.65 79.36 552.62 74.15 543.58 79.36 543.58 89.79 552.62 95.01 561.65 89.79" style="fill:#95d4e9"/><polygon points="591.83 89.79 591.83 79.36 582.8 74.15 573.77 79.36 573.77 89.79 582.8 95.01 591.83 89.79" style="fill:#95d4e9"/><polygon points="622.01 89.79 622.01 79.36 612.98 74.15 603.95 79.36 603.95 89.79 612.98 95.01 622.01 89.79" style="fill:#95d4e9"/><polygon points="652.2 89.79 652.2 79.36 643.17 74.15 634.13 79.36 634.13 89.79 643.17 95.01 652.2 89.79" style="fill:#95d4e9"/><polygon points="682.38 89.79 682.38 79.36 673.35 74.15 664.32 79.36 664.32 89.79 673.35 95.01 682.38 89.79" style="fill:#95d4e9"/><polygon points="712.57 89.79 712.57 79.36 703.53 74.15 694.5 79.36 694.5 89.79 703.53 95.01 712.57 89.79" style="fill:#95d4e9"/><polygon points="742.75 89.79 742.75 79.36 733.72 74.15 724.68 79.36 724.68 89.79 733.72 95.01 742.75 89.79" style="fill:#95d4e9"/><polygon points="772.93 89.79 772.93 79.36 763.9 74.15 754.87 79.36 754.87 89.79 763.9 95.01 772.93 89.79" style="fill:#95d4e9"/><polygon points="803.12 89.79 803.12 79.36 794.08 74.15 785.05 79.36 785.05 89.79 794.08 95.01 803.12 89.79" style="fill:#95d4e9"/><polygon points="833.3 89.79 833.3 79.36 824.27 74.15 815.24 79.36 815.24 89.79 824.27 95.01 833.3 89.79" style="fill:#95d4e9"/><polygon points="863.48 89.79 863.48 79.36 854.45 74.15 845.42 79.36 845.42 89.79 854.45 95.01 863.48 89.79" style="fill:#95d4e9"/><polygon points="893.67 89.79 893.67 79.36 884.63 74.15 875.6 79.36 875.6 89.79 884.63 95.01 893.67 89.79" style="fill:#95d4e9"/><polygon points="923.85 89.79 923.85 79.36 914.82 74.15 905.78 79.36 905.78 89.79 914.82 95.01 923.85 89.79" style="fill:#95d4e9"/><polygon points="954.03 89.79 954.03 79.36 945 74.15 935.97 79.36 935.97 89.79 945 95.01 954.03 89.79" style="fill:#95d4e9"/><polygon points="984.22 89.79 984.22 79.36 975.18 74.15 966.15 79.36 966.15 89.79 975.18 95.01 984.22 89.79" style="fill:#95d4e9"/><polygon points="1014.4 89.79 1014.4 79.36 1005.37 74.15 996.34 79.36 996.34 89.79 1005.37 95.01 1014.4 89.79" style="fill:#95d4e9"/><polygon points="1044.58 89.79 1044.58 79.36 1035.55 74.15 1026.52 79.36 1026.52 89.79 1035.55 95.01 1044.58 89.79" style="fill:#95d4e9"/></g><g style="opacity:0.5"><polygon points="246.13 116.45 246.13 106.02 237.09 100.81 228.06 106.02 228.06 116.45 237.09 121.67 246.13 116.45" style="fill:#95d4e9"/><polygon points="276.31 116.45 276.31 106.02 267.28 100.81 258.25 106.02 258.25 116.45 267.28 121.67 276.31 116.45" style="fill:#95d4e9"/><polygon points="306.49 116.45 306.49 106.02 297.46 100.81 288.43 106.02 288.43 116.45 297.46 121.67 306.49 116.45" style="fill:#95d4e9"/><polygon points="336.68 116.45 336.68 106.02 327.64 100.81 318.61 106.02 318.61 116.45 327.64 121.67 336.68 116.45" style="fill:#95d4e9"/><polygon points="366.86 116.45 366.86 106.02 357.83 100.81 348.8 106.02 348.8 116.45 357.83 121.67 366.86 116.45" style="fill:#95d4e9"/><polygon points="397.04 116.45 397.04 106.02 388.01 100.81 378.98 106.02 378.98 116.45 388.01 121.67 397.04 116.45" style="fill:#95d4e9"/><polygon points="427.23 116.45 427.23 106.02 418.19 100.81 409.16 106.02 409.16 116.45 418.19 121.67 427.23 116.45" style="fill:#95d4e9"/><polygon points="457.41 116.45 457.41 106.02 448.38 100.81 439.35 106.02 439.35 116.45 448.38 121.67 457.41 116.45" style="fill:#95d4e9"/><polygon points="487.6 116.45 487.6 106.02 478.56 100.81 469.53 106.02 469.53 116.45 478.56 121.67 487.6 116.45" style="fill:#95d4e9"/><polygon points="517.78 116.45 517.78 106.02 508.75 100.81 499.71 106.02 499.71 116.45 508.75 121.67 517.78 116.45" style="fill:#95d4e9"/><polygon points="547.96 116.45 547.96 106.02 538.93 100.81 529.9 106.02 529.9 116.45 538.93 121.67 547.96 116.45" style="fill:#95d4e9"/><polygon points="578.14 116.45 578.14 106.02 569.11 100.81 560.08 106.02 560.08 116.45 569.11 121.67 578.14 116.45" style="fill:#95d4e9"/><polygon points="608.33 116.45 608.33 106.02 599.3 100.81 590.26 106.02 590.26 116.45 599.3 121.67 608.33 116.45" style="fill:#95d4e9"/><polygon points="638.51 116.45 638.51 106.02 629.48 100.81 620.45 106.02 620.45 116.45 629.48 121.67 638.51 116.45" style="fill:#95d4e9"/><polygon points="668.7 116.45 668.7 106.02 659.66 100.81 650.63 106.02 650.63 116.45 659.66 121.67 668.7 116.45" style="fill:#95d4e9"/><polygon points="698.88 116.45 698.88 106.02 689.85 100.81 680.82 106.02 680.82 116.45 689.85 121.67 698.88 116.45" style="fill:#95d4e9"/><polygon points="729.06 116.45 729.06 106.02 720.03 100.81 711 106.02 711 116.45 720.03 121.67 729.06 116.45" style="fill:#95d4e9"/><polygon points="759.25 116.45 759.25 106.02 750.21 100.81 741.18 106.02 741.18 116.45 750.21 121.67 759.25 116.45" style="fill:#95d4e9"/><polygon points="789.43 116.45 789.43 106.02 780.4 100.81 771.37 106.02 771.37 116.45 780.4 121.67 789.43 116.45" style="fill:#95d4e9"/><polygon points="819.61 116.45 819.61 106.02 810.58 100.81 801.55 106.02 801.55 116.45 810.58 121.67 819.61 116.45" style="fill:#95d4e9"/><polygon points="849.8 116.45 849.8 106.02 840.76 100.81 831.73 106.02 831.73 116.45 840.76 121.67 849.8 116.45" style="fill:#95d4e9"/><polygon points="879.98 116.45 879.98 106.02 870.95 100.81 861.92 106.02 861.92 116.45 870.95 121.67 879.98 116.45" style="fill:#95d4e9"/><polygon points="910.16 116.45 910.16 106.02 901.13 100.81 892.1 106.02 892.1 116.45 901.13 121.67 910.16 116.45" style="fill:#95d4e9"/><polygon points="940.35 116.45 940.35 106.02 931.32 100.81 922.28 106.02 922.28 116.45 931.32 121.67 940.35 116.45" style="fill:#95d4e9"/><polygon points="970.53 116.45 970.53 106.02 961.5 100.81 952.47 106.02 952.47 116.45 961.5 121.67 970.53 116.45" style="fill:#95d4e9"/><polygon points="1000.71 116.45 1000.71 106.02 991.68 100.81 982.65 106.02 982.65 116.45 991.68 121.67 1000.71 116.45" style="fill:#95d4e9"/><polygon points="1030.9 116.45 1030.9 106.02 1021.87 100.81 1012.83 106.02 1012.83 116.45 1021.87 121.67 1030.9 116.45" style="fill:#95d4e9"/><polygon points="1061.08 116.45 1061.08 106.02 1052.05 100.81 1043.02 106.02 1043.02 116.45 1052.05 121.67 1061.08 116.45" style="fill:#95d4e9"/></g><g style="opacity:0.5"><polygon points="229.63 143.15 229.63 132.72 220.6 127.51 211.56 132.72 211.56 143.15 220.6 148.37 229.63 143.15" style="fill:#95d4e9"/><polygon points="259.81 143.15 259.81 132.72 250.78 127.51 241.75 132.72 241.75 143.15 250.78 148.37 259.81 143.15" style="fill:#95d4e9"/><polygon points="290 143.15 290 132.72 280.96 127.51 271.93 132.72 271.93 143.15 280.96 148.37 290 143.15" style="fill:#95d4e9"/><polygon points="320.18 143.15 320.18 132.72 311.15 127.51 302.12 132.72 302.12 143.15 311.15 148.37 320.18 143.15" style="fill:#95d4e9"/><polygon points="350.36 143.15 350.36 132.72 341.33 127.51 332.3 132.72 332.3 143.15 341.33 148.37 350.36 143.15" style="fill:#95d4e9"/><polygon points="380.55 143.15 380.55 132.72 371.51 127.51 362.48 132.72 362.48 143.15 371.51 148.37 380.55 143.15" style="fill:#95d4e9"/><polygon points="410.73 143.15 410.73 132.72 401.7 127.51 392.67 132.72 392.67 143.15 401.7 148.37 410.73 143.15" style="fill:#95d4e9"/><polygon points="440.91 143.15 440.91 132.72 431.88 127.51 422.85 132.72 422.85 143.15 431.88 148.37 440.91 143.15" style="fill:#95d4e9"/><polygon points="471.1 143.15 471.1 132.72 462.06 127.51 453.03 132.72 453.03 143.15 462.06 148.37 471.1 143.15" style="fill:#95d4e9"/><polygon points="501.28 143.15 501.28 132.72 492.25 127.51 483.22 132.72 483.22 143.15 492.25 148.37 501.28 143.15" style="fill:#95d4e9"/><polygon points="531.46 143.15 531.46 132.72 522.43 127.51 513.4 132.72 513.4 143.15 522.43 148.37 531.46 143.15" style="fill:#95d4e9"/><polygon points="561.65 143.15 561.65 132.72 552.62 127.51 543.58 132.72 543.58 143.15 552.62 148.37 561.65 143.15" style="fill:#95d4e9"/><polygon points="591.83 143.15 591.83 132.72 582.8 127.51 573.77 132.72 573.77 143.15 582.8 148.37 591.83 143.15" style="fill:#95d4e9"/><polygon points="622.01 143.15 622.01 132.72 612.98 127.51 603.95 132.72 603.95 143.15 612.98 148.37 622.01 143.15" style="fill:#95d4e9"/><polygon points="652.2 143.15 652.2 132.72 643.17 127.51 634.13 132.72 634.13 143.15 643.17 148.37 652.2 143.15" style="fill:#95d4e9"/><polygon points="682.38 143.15 682.38 132.72 673.35 127.51 664.32 132.72 664.32 143.15 673.35 148.37 682.38 143.15" style="fill:#95d4e9"/><polygon points="712.57 143.15 712.57 132.72 703.53 127.51 694.5 132.72 694.5 143.15 703.53 148.37 712.57 143.15" style="fill:#95d4e9"/><polygon points="742.75 143.15 742.75 132.72 733.72 127.51 724.68 132.72 724.68 143.15 733.72 148.37 742.75 143.15" style="fill:#95d4e9"/><polygon points="772.93 143.15 772.93 132.72 763.9 127.51 754.87 132.72 754.87 143.15 763.9 148.37 772.93 143.15" style="fill:#95d4e9"/><polygon points="803.12 143.15 803.12 132.72 794.08 127.51 785.05 132.72 785.05 143.15 794.08 148.37 803.12 143.15" style="fill:#95d4e9"/><polygon points="833.3 143.15 833.3 132.72 824.27 127.51 815.24 132.72 815.24 143.15 824.27 148.37 833.3 143.15" style="fill:#95d4e9"/><polygon points="863.48 143.15 863.48 132.72 854.45 127.51 845.42 132.72 845.42 143.15 854.45 148.37 863.48 143.15" style="fill:#95d4e9"/><polygon points="893.67 143.15 893.67 132.72 884.63 127.51 875.6 132.72 875.6 143.15 884.63 148.37 893.67 143.15" style="fill:#95d4e9"/><polygon points="923.85 143.15 923.85 132.72 914.82 127.51 905.78 132.72 905.78 143.15 914.82 148.37 923.85 143.15" style="fill:#95d4e9"/><polygon points="954.03 143.15 954.03 132.72 945 127.51 935.97 132.72 935.97 143.15 945 148.37 954.03 143.15" style="fill:#95d4e9"/><polygon points="984.22 143.15 984.22 132.72 975.18 127.51 966.15 132.72 966.15 143.15 975.18 148.37 984.22 143.15" style="fill:#95d4e9"/><polygon points="1014.4 143.15 1014.4 132.72 1005.37 127.51 996.34 132.72 996.34 143.15 1005.37 148.37 1014.4 143.15" style="fill:#95d4e9"/><polygon points="1044.58 143.15 1044.58 132.72 1035.55 127.51 1026.52 132.72 1026.52 143.15 1035.55 148.37 1044.58 143.15" style="fill:#95d4e9"/></g><g style="opacity:0.5"><polygon points="246.13 169.81 246.13 159.39 237.09 154.17 228.06 159.39 228.06 169.81 237.09 175.03 246.13 169.81" style="fill:#95d4e9"/><polygon points="276.31 169.81 276.31 159.39 267.28 154.17 258.25 159.39 258.25 169.81 267.28 175.03 276.31 169.81" style="fill:#95d4e9"/><polygon points="306.49 169.81 306.49 159.39 297.46 154.17 288.43 159.39 288.43 169.81 297.46 175.03 306.49 169.81" style="fill:#95d4e9"/><polygon points="336.68 169.81 336.68 159.39 327.64 154.17 318.61 159.39 318.61 169.81 327.64 175.03 336.68 169.81" style="fill:#95d4e9"/><polygon points="366.86 169.81 366.86 159.39 357.83 154.17 348.8 159.39 348.8 169.81 357.83 175.03 366.86 169.81" style="fill:#95d4e9"/><polygon points="397.04 169.81 397.04 159.39 388.01 154.17 378.98 159.39 378.98 169.81 388.01 175.03 397.04 169.81" style="fill:#95d4e9"/><polygon points="427.23 169.81 427.23 159.39 418.19 154.17 409.16 159.39 409.16 169.81 418.19 175.03 427.23 169.81" style="fill:#95d4e9"/><polygon points="457.41 169.81 457.41 159.39 448.38 154.17 439.35 159.39 439.35 169.81 448.38 175.03 457.41 169.81" style="fill:#95d4e9"/><polygon points="487.6 169.81 487.6 159.39 478.56 154.17 469.53 159.39 469.53 169.81 478.56 175.03 487.6 169.81" style="fill:#95d4e9"/><polygon points="517.78 169.81 517.78 159.39 508.75 154.17 499.71 159.39 499.71 169.81 508.75 175.03 517.78 169.81" style="fill:#95d4e9"/><polygon points="547.96 169.81 547.96 159.39 538.93 154.17 529.9 159.39 529.9 169.81 538.93 175.03 547.96 169.81" style="fill:#95d4e9"/><polygon points="578.14 169.81 578.14 159.39 569.11 154.17 560.08 159.39 560.08 169.81 569.11 175.03 578.14 169.81" style="fill:#95d4e9"/><polygon points="608.33 169.81 608.33 159.39 599.3 154.17 590.26 159.39 590.26 169.81 599.3 175.03 608.33 169.81" style="fill:#95d4e9"/><polygon points="638.51 169.81 638.51 159.39 629.48 154.17 620.45 159.39 620.45 169.81 629.48 175.03 638.51 169.81" style="fill:#95d4e9"/><polygon points="668.7 169.81 668.7 159.39 659.66 154.17 650.63 159.39 650.63 169.81 659.66 175.03 668.7 169.81" style="fill:#95d4e9"/><polygon points="698.88 169.81 698.88 159.39 689.85 154.17 680.82 159.39 680.82 169.81 689.85 175.03 698.88 169.81" style="fill:#95d4e9"/><polygon points="729.06 169.81 729.06 159.39 720.03 154.17 711 159.39 711 169.81 720.03 175.03 729.06 169.81" style="fill:#95d4e9"/><polygon points="759.25 169.81 759.25 159.39 750.21 154.17 741.18 159.39 741.18 169.81 750.21 175.03 759.25 169.81" style="fill:#95d4e9"/><polygon points="789.43 169.81 789.43 159.39 780.4 154.17 771.37 159.39 771.37 169.81 780.4 175.03 789.43 169.81" style="fill:#95d4e9"/><polygon points="819.61 169.81 819.61 159.39 810.58 154.17 801.55 159.39 801.55 169.81 810.58 175.03 819.61 169.81" style="fill:#95d4e9"/><polygon points="849.8 169.81 849.8 159.39 840.76 154.17 831.73 159.39 831.73 169.81 840.76 175.03 849.8 169.81" style="fill:#95d4e9"/><polygon points="879.98 169.81 879.98 159.39 870.95 154.17 861.92 159.39 861.92 169.81 870.95 175.03 879.98 169.81" style="fill:#95d4e9"/><polygon points="910.16 169.81 910.16 159.39 901.13 154.17 892.1 159.39 892.1 169.81 901.13 175.03 910.16 169.81" style="fill:#95d4e9"/><polygon points="940.35 169.81 940.35 159.39 931.32 154.17 922.28 159.39 922.28 169.81 931.32 175.03 940.35 169.81" style="fill:#95d4e9"/><polygon points="970.53 169.81 970.53 159.39 961.5 154.17 952.47 159.39 952.47 169.81 961.5 175.03 970.53 169.81" style="fill:#95d4e9"/><polygon points="1000.71 169.81 1000.71 159.39 991.68 154.17 982.65 159.39 982.65 169.81 991.68 175.03 1000.71 169.81" style="fill:#95d4e9"/><polygon points="1030.9 169.81 1030.9 159.39 1021.87 154.17 1012.83 159.39 1012.83 169.81 1021.87 175.03 1030.9 169.81" style="fill:#95d4e9"/><polygon points="1061.08 169.81 1061.08 159.39 1052.05 154.17 1043.02 159.39 1043.02 169.81 1052.05 175.03 1061.08 169.81" style="fill:#95d4e9"/></g><g style="opacity:0.5"><polygon points="229.63 196.51 229.63 186.09 220.6 180.87 211.56 186.09 211.56 196.51 220.6 201.73 229.63 196.51" style="fill:#95d4e9"/><polygon points="259.81 196.51 259.81 186.09 250.78 180.87 241.75 186.09 241.75 196.51 250.78 201.73 259.81 196.51" style="fill:#95d4e9"/><polygon points="290 196.51 290 186.09 280.96 180.87 271.93 186.09 271.93 196.51 280.96 201.73 290 196.51" style="fill:#95d4e9"/><polygon points="320.18 196.51 320.18 186.09 311.15 180.87 302.12 186.09 302.12 196.51 311.15 201.73 320.18 196.51" style="fill:#95d4e9"/><polygon points="350.36 196.51 350.36 186.09 341.33 180.87 332.3 186.09 332.3 196.51 341.33 201.73 350.36 196.51" style="fill:#95d4e9"/><polygon points="380.55 196.51 380.55 186.09 371.51 180.87 362.48 186.09 362.48 196.51 371.51 201.73 380.55 196.51" style="fill:#95d4e9"/><polygon points="410.73 196.51 410.73 186.09 401.7 180.87 392.67 186.09 392.67 196.51 401.7 201.73 410.73 196.51" style="fill:#95d4e9"/><polygon points="440.91 196.51 440.91 186.09 431.88 180.87 422.85 186.09 422.85 196.51 431.88 201.73 440.91 196.51" style="fill:#95d4e9"/><polygon points="471.1 196.51 471.1 186.09 462.06 180.87 453.03 186.09 453.03 196.51 462.06 201.73 471.1 196.51" style="fill:#95d4e9"/><polygon points="501.28 196.51 501.28 186.09 492.25 180.87 483.22 186.09 483.22 196.51 492.25 201.73 501.28 196.51" style="fill:#95d4e9"/><polygon points="531.46 196.51 531.46 186.09 522.43 180.87 513.4 186.09 513.4 196.51 522.43 201.73 531.46 196.51" style="fill:#95d4e9"/><polygon points="561.65 196.51 561.65 186.09 552.62 180.87 543.58 186.09 543.58 196.51 552.62 201.73 561.65 196.51" style="fill:#95d4e9"/><polygon points="591.83 196.51 591.83 186.09 582.8 180.87 573.77 186.09 573.77 196.51 582.8 201.73 591.83 196.51" style="fill:#95d4e9"/><polygon points="622.01 196.51 622.01 186.09 612.98 180.87 603.95 186.09 603.95 196.51 612.98 201.73 622.01 196.51" style="fill:#95d4e9"/><polygon points="652.2 196.51 652.2 186.09 643.17 180.87 634.13 186.09 634.13 196.51 643.17 201.73 652.2 196.51" style="fill:#95d4e9"/><polygon points="682.38 196.51 682.38 186.09 673.35 180.87 664.32 186.09 664.32 196.51 673.35 201.73 682.38 196.51" style="fill:#95d4e9"/><polygon points="712.57 196.51 712.57 186.09 703.53 180.87 694.5 186.09 694.5 196.51 703.53 201.73 712.57 196.51" style="fill:#95d4e9"/><polygon points="742.75 196.51 742.75 186.09 733.72 180.87 724.68 186.09 724.68 196.51 733.72 201.73 742.75 196.51" style="fill:#95d4e9"/><polygon points="772.93 196.51 772.93 186.09 763.9 180.87 754.87 186.09 754.87 196.51 763.9 201.73 772.93 196.51" style="fill:#95d4e9"/><polygon points="803.12 196.51 803.12 186.09 794.08 180.87 785.05 186.09 785.05 196.51 794.08 201.73 803.12 196.51" style="fill:#95d4e9"/><polygon points="833.3 196.51 833.3 186.09 824.27 180.87 815.24 186.09 815.24 196.51 824.27 201.73 833.3 196.51" style="fill:#95d4e9"/><polygon points="863.48 196.51 863.48 186.09 854.45 180.87 845.42 186.09 845.42 196.51 854.45 201.73 863.48 196.51" style="fill:#95d4e9"/><polygon points="893.67 196.51 893.67 186.09 884.63 180.87 875.6 186.09 875.6 196.51 884.63 201.73 893.67 196.51" style="fill:#95d4e9"/><polygon points="923.85 196.51 923.85 186.09 914.82 180.87 905.78 186.09 905.78 196.51 914.82 201.73 923.85 196.51" style="fill:#95d4e9"/><polygon points="954.03 196.51 954.03 186.09 945 180.87 935.97 186.09 935.97 196.51 945 201.73 954.03 196.51" style="fill:#95d4e9"/><polygon points="984.22 196.51 984.22 186.09 975.18 180.87 966.15 186.09 966.15 196.51 975.18 201.73 984.22 196.51" style="fill:#95d4e9"/><polygon points="1014.4 196.51 1014.4 186.09 1005.37 180.87 996.34 186.09 996.34 196.51 1005.37 201.73 1014.4 196.51" style="fill:#95d4e9"/><polygon points="1044.58 196.51 1044.58 186.09 1035.55 180.87 1026.52 186.09 1026.52 196.51 1035.55 201.73 1044.58 196.51" style="fill:#95d4e9"/></g><g style="opacity:0.5"><polygon points="246.13 223.18 246.13 212.75 237.09 207.53 228.06 212.75 228.06 223.18 237.09 228.39 246.13 223.18" style="fill:#95d4e9"/><polygon points="276.31 223.18 276.31 212.75 267.28 207.53 258.25 212.75 258.25 223.18 267.28 228.39 276.31 223.18" style="fill:#95d4e9"/><polygon points="306.49 223.18 306.49 212.75 297.46 207.53 288.43 212.75 288.43 223.18 297.46 228.39 306.49 223.18" style="fill:#95d4e9"/><polygon points="336.68 223.18 336.68 212.75 327.64 207.53 318.61 212.75 318.61 223.18 327.64 228.39 336.68 223.18" style="fill:#95d4e9"/><polygon points="366.86 223.18 366.86 212.75 357.83 207.53 348.8 212.75 348.8 223.18 357.83 228.39 366.86 223.18" style="fill:#95d4e9"/><polygon points="397.04 223.18 397.04 212.75 388.01 207.53 378.98 212.75 378.98 223.18 388.01 228.39 397.04 223.18" style="fill:#95d4e9"/><polygon points="427.23 223.18 427.23 212.75 418.19 207.53 409.16 212.75 409.16 223.18 418.19 228.39 427.23 223.18" style="fill:#95d4e9"/><polygon points="457.41 223.18 457.41 212.75 448.38 207.53 439.35 212.75 439.35 223.18 448.38 228.39 457.41 223.18" style="fill:#95d4e9"/><polygon points="487.6 223.18 487.6 212.75 478.56 207.53 469.53 212.75 469.53 223.18 478.56 228.39 487.6 223.18" style="fill:#95d4e9"/><polygon points="517.78 223.18 517.78 212.75 508.75 207.53 499.71 212.75 499.71 223.18 508.75 228.39 517.78 223.18" style="fill:#95d4e9"/><polygon points="547.96 223.18 547.96 212.75 538.93 207.53 529.9 212.75 529.9 223.18 538.93 228.39 547.96 223.18" style="fill:#95d4e9"/><polygon points="578.14 223.18 578.14 212.75 569.11 207.53 560.08 212.75 560.08 223.18 569.11 228.39 578.14 223.18" style="fill:#95d4e9"/><polygon points="608.33 223.18 608.33 212.75 599.3 207.53 590.26 212.75 590.26 223.18 599.3 228.39 608.33 223.18" style="fill:#95d4e9"/><polygon points="638.51 223.18 638.51 212.75 629.48 207.53 620.45 212.75 620.45 223.18 629.48 228.39 638.51 223.18" style="fill:#95d4e9"/><polygon points="668.7 223.18 668.7 212.75 659.66 207.53 650.63 212.75 650.63 223.18 659.66 228.39 668.7 223.18" style="fill:#95d4e9"/><polygon points="698.88 223.18 698.88 212.75 689.85 207.53 680.82 212.75 680.82 223.18 689.85 228.39 698.88 223.18" style="fill:#95d4e9"/><polygon points="729.06 223.18 729.06 212.75 720.03 207.53 711 212.75 711 223.18 720.03 228.39 729.06 223.18" style="fill:#95d4e9"/><polygon points="759.25 223.18 759.25 212.75 750.21 207.53 741.18 212.75 741.18 223.18 750.21 228.39 759.25 223.18" style="fill:#95d4e9"/><polygon points="789.43 223.18 789.43 212.75 780.4 207.53 771.37 212.75 771.37 223.18 780.4 228.39 789.43 223.18" style="fill:#95d4e9"/><polygon points="819.61 223.18 819.61 212.75 810.58 207.53 801.55 212.75 801.55 223.18 810.58 228.39 819.61 223.18" style="fill:#95d4e9"/><polygon points="849.8 223.18 849.8 212.75 840.76 207.53 831.73 212.75 831.73 223.18 840.76 228.39 849.8 223.18" style="fill:#95d4e9"/><polygon points="879.98 223.18 879.98 212.75 870.95 207.53 861.92 212.75 861.92 223.18 870.95 228.39 879.98 223.18" style="fill:#95d4e9"/><polygon points="910.16 223.18 910.16 212.75 901.13 207.53 892.1 212.75 892.1 223.18 901.13 228.39 910.16 223.18" style="fill:#95d4e9"/><polygon points="940.35 223.18 940.35 212.75 931.32 207.53 922.28 212.75 922.28 223.18 931.32 228.39 940.35 223.18" style="fill:#95d4e9"/><polygon points="970.53 223.18 970.53 212.75 961.5 207.53 952.47 212.75 952.47 223.18 961.5 228.39 970.53 223.18" style="fill:#95d4e9"/><polygon points="1000.71 223.18 1000.71 212.75 991.68 207.53 982.65 212.75 982.65 223.18 991.68 228.39 1000.71 223.18" style="fill:#95d4e9"/><polygon points="1030.9 223.18 1030.9 212.75 1021.87 207.53 1012.83 212.75 1012.83 223.18 1021.87 228.39 1030.9 223.18" style="fill:#95d4e9"/><polygon points="1061.08 223.18 1061.08 212.75 1052.05 207.53 1043.02 212.75 1043.02 223.18 1052.05 228.39 1061.08 223.18" style="fill:#95d4e9"/></g><g style="opacity:0.5"><polygon points="229.63 249.88 229.63 239.45 220.6 234.23 211.56 239.45 211.56 249.88 220.6 255.09 229.63 249.88" style="fill:#95d4e9"/><polygon points="259.81 249.88 259.81 239.45 250.78 234.23 241.75 239.45 241.75 249.88 250.78 255.09 259.81 249.88" style="fill:#95d4e9"/><polygon points="290 249.88 290 239.45 280.96 234.23 271.93 239.45 271.93 249.88 280.96 255.09 290 249.88" style="fill:#95d4e9"/><polygon points="320.18 249.88 320.18 239.45 311.15 234.23 302.12 239.45 302.12 249.88 311.15 255.09 320.18 249.88" style="fill:#95d4e9"/><polygon points="350.36 249.88 350.36 239.45 341.33 234.23 332.3 239.45 332.3 249.88 341.33 255.09 350.36 249.88" style="fill:#95d4e9"/><polygon points="380.55 249.88 380.55 239.45 371.51 234.23 362.48 239.45 362.48 249.88 371.51 255.09 380.55 249.88" style="fill:#95d4e9"/><polygon points="410.73 249.88 410.73 239.45 401.7 234.23 392.67 239.45 392.67 249.88 401.7 255.09 410.73 249.88" style="fill:#95d4e9"/><polygon points="440.91 249.88 440.91 239.45 431.88 234.23 422.85 239.45 422.85 249.88 431.88 255.09 440.91 249.88" style="fill:#95d4e9"/><polygon points="471.1 249.88 471.1 239.45 462.06 234.23 453.03 239.45 453.03 249.88 462.06 255.09 471.1 249.88" style="fill:#95d4e9"/><polygon points="501.28 249.88 501.28 239.45 492.25 234.23 483.22 239.45 483.22 249.88 492.25 255.09 501.28 249.88" style="fill:#95d4e9"/><polygon points="531.46 249.88 531.46 239.45 522.43 234.23 513.4 239.45 513.4 249.88 522.43 255.09 531.46 249.88" style="fill:#95d4e9"/><polygon points="561.65 249.88 561.65 239.45 552.62 234.23 543.58 239.45 543.58 249.88 552.62 255.09 561.65 249.88" style="fill:#95d4e9"/><polygon points="591.83 249.88 591.83 239.45 582.8 234.23 573.77 239.45 573.77 249.88 582.8 255.09 591.83 249.88" style="fill:#95d4e9"/><polygon points="622.01 249.88 622.01 239.45 612.98 234.23 603.95 239.45 603.95 249.88 612.98 255.09 622.01 249.88" style="fill:#95d4e9"/><polygon points="652.2 249.88 652.2 239.45 643.17 234.23 634.13 239.45 634.13 249.88 643.17 255.09 652.2 249.88" style="fill:#95d4e9"/><polygon points="682.38 249.88 682.38 239.45 673.35 234.23 664.32 239.45 664.32 249.88 673.35 255.09 682.38 249.88" style="fill:#95d4e9"/><polygon points="712.57 249.88 712.57 239.45 703.53 234.23 694.5 239.45 694.5 249.88 703.53 255.09 712.57 249.88" style="fill:#95d4e9"/><polygon points="742.75 249.88 742.75 239.45 733.72 234.23 724.68 239.45 724.68 249.88 733.72 255.09 742.75 249.88" style="fill:#95d4e9"/><polygon points="772.93 249.88 772.93 239.45 763.9 234.23 754.87 239.45 754.87 249.88 763.9 255.09 772.93 249.88" style="fill:#95d4e9"/><polygon points="803.12 249.88 803.12 239.45 794.08 234.23 785.05 239.45 785.05 249.88 794.08 255.09 803.12 249.88" style="fill:#95d4e9"/><polygon points="833.3 249.88 833.3 239.45 824.27 234.23 815.24 239.45 815.24 249.88 824.27 255.09 833.3 249.88" style="fill:#95d4e9"/><polygon points="863.48 249.88 863.48 239.45 854.45 234.23 845.42 239.45 845.42 249.88 854.45 255.09 863.48 249.88" style="fill:#95d4e9"/><polygon points="893.67 249.88 893.67 239.45 884.63 234.23 875.6 239.45 875.6 249.88 884.63 255.09 893.67 249.88" style="fill:#95d4e9"/><polygon points="923.85 249.88 923.85 239.45 914.82 234.23 905.78 239.45 905.78 249.88 914.82 255.09 923.85 249.88" style="fill:#95d4e9"/><polygon points="954.03 249.88 954.03 239.45 945 234.23 935.97 239.45 935.97 249.88 945 255.09 954.03 249.88" style="fill:#95d4e9"/><polygon points="984.22 249.88 984.22 239.45 975.18 234.23 966.15 239.45 966.15 249.88 975.18 255.09 984.22 249.88" style="fill:#95d4e9"/><polygon points="1014.4 249.88 1014.4 239.45 1005.37 234.23 996.34 239.45 996.34 249.88 1005.37 255.09 1014.4 249.88" style="fill:#95d4e9"/><polygon points="1044.58 249.88 1044.58 239.45 1035.55 234.23 1026.52 239.45 1026.52 249.88 1035.55 255.09 1044.58 249.88" style="fill:#95d4e9"/></g><g style="opacity:0.5"><polygon points="246.13 276.54 246.13 266.11 237.09 260.89 228.06 266.11 228.06 276.54 237.09 281.75 246.13 276.54" style="fill:#95d4e9"/><polygon points="276.31 276.54 276.31 266.11 267.28 260.89 258.25 266.11 258.25 276.54 267.28 281.75 276.31 276.54" style="fill:#95d4e9"/><polygon points="306.49 276.54 306.49 266.11 297.46 260.89 288.43 266.11 288.43 276.54 297.46 281.75 306.49 276.54" style="fill:#95d4e9"/><polygon points="336.68 276.54 336.68 266.11 327.64 260.89 318.61 266.11 318.61 276.54 327.64 281.75 336.68 276.54" style="fill:#95d4e9"/><polygon points="366.86 276.54 366.86 266.11 357.83 260.89 348.8 266.11 348.8 276.54 357.83 281.75 366.86 276.54" style="fill:#95d4e9"/><polygon points="397.04 276.54 397.04 266.11 388.01 260.89 378.98 266.11 378.98 276.54 388.01 281.75 397.04 276.54" style="fill:#95d4e9"/><polygon points="427.23 276.54 427.23 266.11 418.19 260.89 409.16 266.11 409.16 276.54 418.19 281.75 427.23 276.54" style="fill:#95d4e9"/><polygon points="457.41 276.54 457.41 266.11 448.38 260.89 439.35 266.11 439.35 276.54 448.38 281.75 457.41 276.54" style="fill:#95d4e9"/><polygon points="487.6 276.54 487.6 266.11 478.56 260.89 469.53 266.11 469.53 276.54 478.56 281.75 487.6 276.54" style="fill:#95d4e9"/><polygon points="517.78 276.54 517.78 266.11 508.75 260.89 499.71 266.11 499.71 276.54 508.75 281.75 517.78 276.54" style="fill:#95d4e9"/><polygon points="547.96 276.54 547.96 266.11 538.93 260.89 529.9 266.11 529.9 276.54 538.93 281.75 547.96 276.54" style="fill:#95d4e9"/><polygon points="578.14 276.54 578.14 266.11 569.11 260.89 560.08 266.11 560.08 276.54 569.11 281.75 578.14 276.54" style="fill:#95d4e9"/><polygon points="608.33 276.54 608.33 266.11 599.3 260.89 590.26 266.11 590.26 276.54 599.3 281.75 608.33 276.54" style="fill:#95d4e9"/><polygon points="638.51 276.54 638.51 266.11 629.48 260.89 620.45 266.11 620.45 276.54 629.48 281.75 638.51 276.54" style="fill:#95d4e9"/><polygon points="668.7 276.54 668.7 266.11 659.66 260.89 650.63 266.11 650.63 276.54 659.66 281.75 668.7 276.54" style="fill:#95d4e9"/><polygon points="698.88 276.54 698.88 266.11 689.85 260.89 680.82 266.11 680.82 276.54 689.85 281.75 698.88 276.54" style="fill:#95d4e9"/><polygon points="729.06 276.54 729.06 266.11 720.03 260.89 711 266.11 711 276.54 720.03 281.75 729.06 276.54" style="fill:#95d4e9"/><polygon points="759.25 276.54 759.25 266.11 750.21 260.89 741.18 266.11 741.18 276.54 750.21 281.75 759.25 276.54" style="fill:#95d4e9"/><polygon points="789.43 276.54 789.43 266.11 780.4 260.89 771.37 266.11 771.37 276.54 780.4 281.75 789.43 276.54" style="fill:#95d4e9"/><polygon points="819.61 276.54 819.61 266.11 810.58 260.89 801.55 266.11 801.55 276.54 810.58 281.75 819.61 276.54" style="fill:#95d4e9"/><polygon points="849.8 276.54 849.8 266.11 840.76 260.89 831.73 266.11 831.73 276.54 840.76 281.75 849.8 276.54" style="fill:#95d4e9"/><polygon points="879.98 276.54 879.98 266.11 870.95 260.89 861.92 266.11 861.92 276.54 870.95 281.75 879.98 276.54" style="fill:#95d4e9"/><polygon points="910.16 276.54 910.16 266.11 901.13 260.89 892.1 266.11 892.1 276.54 901.13 281.75 910.16 276.54" style="fill:#95d4e9"/><polygon points="940.35 276.54 940.35 266.11 931.32 260.89 922.28 266.11 922.28 276.54 931.32 281.75 940.35 276.54" style="fill:#95d4e9"/><polygon points="970.53 276.54 970.53 266.11 961.5 260.89 952.47 266.11 952.47 276.54 961.5 281.75 970.53 276.54" style="fill:#95d4e9"/><polygon points="1000.71 276.54 1000.71 266.11 991.68 260.89 982.65 266.11 982.65 276.54 991.68 281.75 1000.71 276.54" style="fill:#95d4e9"/><polygon points="1030.9 276.54 1030.9 266.11 1021.87 260.89 1012.83 266.11 1012.83 276.54 1021.87 281.75 1030.9 276.54" style="fill:#95d4e9"/><polygon points="1061.08 276.54 1061.08 266.11 1052.05 260.89 1043.02 266.11 1043.02 276.54 1052.05 281.75 1061.08 276.54" style="fill:#95d4e9"/></g><g style="opacity:0.5"><polygon points="229.63 303.24 229.63 292.81 220.6 287.59 211.56 292.81 211.56 303.24 220.6 308.45 229.63 303.24" style="fill:#95d4e9"/><polygon points="259.81 303.24 259.81 292.81 250.78 287.59 241.75 292.81 241.75 303.24 250.78 308.45 259.81 303.24" style="fill:#95d4e9"/><polygon points="290 303.24 290 292.81 280.96 287.59 271.93 292.81 271.93 303.24 280.96 308.45 290 303.24" style="fill:#95d4e9"/><polygon points="320.18 303.24 320.18 292.81 311.15 287.59 302.12 292.81 302.12 303.24 311.15 308.45 320.18 303.24" style="fill:#95d4e9"/><polygon points="350.36 303.24 350.36 292.81 341.33 287.59 332.3 292.81 332.3 303.24 341.33 308.45 350.36 303.24" style="fill:#95d4e9"/><polygon points="380.55 303.24 380.55 292.81 371.51 287.59 362.48 292.81 362.48 303.24 371.51 308.45 380.55 303.24" style="fill:#95d4e9"/><polygon points="410.73 303.24 410.73 292.81 401.7 287.59 392.67 292.81 392.67 303.24 401.7 308.45 410.73 303.24" style="fill:#95d4e9"/><polygon points="440.91 303.24 440.91 292.81 431.88 287.59 422.85 292.81 422.85 303.24 431.88 308.45 440.91 303.24" style="fill:#95d4e9"/><polygon points="471.1 303.24 471.1 292.81 462.06 287.59 453.03 292.81 453.03 303.24 462.06 308.45 471.1 303.24" style="fill:#95d4e9"/><polygon points="501.28 303.24 501.28 292.81 492.25 287.59 483.22 292.81 483.22 303.24 492.25 308.45 501.28 303.24" style="fill:#95d4e9"/><polygon points="531.46 303.24 531.46 292.81 522.43 287.59 513.4 292.81 513.4 303.24 522.43 308.45 531.46 303.24" style="fill:#95d4e9"/><polygon points="561.65 303.24 561.65 292.81 552.62 287.59 543.58 292.81 543.58 303.24 552.62 308.45 561.65 303.24" style="fill:#95d4e9"/><polygon points="591.83 303.24 591.83 292.81 582.8 287.59 573.77 292.81 573.77 303.24 582.8 308.45 591.83 303.24" style="fill:#95d4e9"/><polygon points="622.01 303.24 622.01 292.81 612.98 287.59 603.95 292.81 603.95 303.24 612.98 308.45 622.01 303.24" style="fill:#95d4e9"/><polygon points="652.2 303.24 652.2 292.81 643.17 287.59 634.13 292.81 634.13 303.24 643.17 308.45 652.2 303.24" style="fill:#95d4e9"/><polygon points="682.38 303.24 682.38 292.81 673.35 287.59 664.32 292.81 664.32 303.24 673.35 308.45 682.38 303.24" style="fill:#95d4e9"/><polygon points="712.57 303.24 712.57 292.81 703.53 287.59 694.5 292.81 694.5 303.24 703.53 308.45 712.57 303.24" style="fill:#95d4e9"/><polygon points="742.75 303.24 742.75 292.81 733.72 287.59 724.68 292.81 724.68 303.24 733.72 308.45 742.75 303.24" style="fill:#95d4e9"/><polygon points="772.93 303.24 772.93 292.81 763.9 287.59 754.87 292.81 754.87 303.24 763.9 308.45 772.93 303.24" style="fill:#95d4e9"/><polygon points="803.12 303.24 803.12 292.81 794.08 287.59 785.05 292.81 785.05 303.24 794.08 308.45 803.12 303.24" style="fill:#95d4e9"/><polygon points="833.3 303.24 833.3 292.81 824.27 287.59 815.24 292.81 815.24 303.24 824.27 308.45 833.3 303.24" style="fill:#95d4e9"/><polygon points="863.48 303.24 863.48 292.81 854.45 287.59 845.42 292.81 845.42 303.24 854.45 308.45 863.48 303.24" style="fill:#95d4e9"/><polygon points="893.67 303.24 893.67 292.81 884.63 287.59 875.6 292.81 875.6 303.24 884.63 308.45 893.67 303.24" style="fill:#95d4e9"/><polygon points="923.85 303.24 923.85 292.81 914.82 287.59 905.78 292.81 905.78 303.24 914.82 308.45 923.85 303.24" style="fill:#95d4e9"/><polygon points="954.03 303.24 954.03 292.81 945 287.59 935.97 292.81 935.97 303.24 945 308.45 954.03 303.24" style="fill:#95d4e9"/><polygon points="984.22 303.24 984.22 292.81 975.18 287.59 966.15 292.81 966.15 303.24 975.18 308.45 984.22 303.24" style="fill:#95d4e9"/><polygon points="1014.4 303.24 1014.4 292.81 1005.37 287.59 996.34 292.81 996.34 303.24 1005.37 308.45 1014.4 303.24" style="fill:#95d4e9"/><polygon points="1044.58 303.24 1044.58 292.81 1035.55 287.59 1026.52 292.81 1026.52 303.24 1035.55 308.45 1044.58 303.24" style="fill:#95d4e9"/></g><g style="opacity:0.5"><polygon points="246.13 329.9 246.13 319.47 237.09 314.26 228.06 319.47 228.06 329.9 237.09 335.12 246.13 329.9" style="fill:#95d4e9"/><polygon points="276.31 329.9 276.31 319.47 267.28 314.26 258.25 319.47 258.25 329.9 267.28 335.12 276.31 329.9" style="fill:#95d4e9"/><polygon points="306.49 329.9 306.49 319.47 297.46 314.26 288.43 319.47 288.43 329.9 297.46 335.12 306.49 329.9" style="fill:#95d4e9"/><polygon points="336.68 329.9 336.68 319.47 327.64 314.26 318.61 319.47 318.61 329.9 327.64 335.12 336.68 329.9" style="fill:#95d4e9"/><polygon points="366.86 329.9 366.86 319.47 357.83 314.26 348.8 319.47 348.8 329.9 357.83 335.12 366.86 329.9" style="fill:#95d4e9"/><polygon points="397.04 329.9 397.04 319.47 388.01 314.26 378.98 319.47 378.98 329.9 388.01 335.12 397.04 329.9" style="fill:#95d4e9"/><polygon points="427.23 329.9 427.23 319.47 418.19 314.26 409.16 319.47 409.16 329.9 418.19 335.12 427.23 329.9" style="fill:#95d4e9"/><polygon points="457.41 329.9 457.41 319.47 448.38 314.26 439.35 319.47 439.35 329.9 448.38 335.12 457.41 329.9" style="fill:#95d4e9"/><polygon points="487.6 329.9 487.6 319.47 478.56 314.26 469.53 319.47 469.53 329.9 478.56 335.12 487.6 329.9" style="fill:#95d4e9"/><polygon points="517.78 329.9 517.78 319.47 508.75 314.26 499.71 319.47 499.71 329.9 508.75 335.12 517.78 329.9" style="fill:#95d4e9"/><polygon points="547.96 329.9 547.96 319.47 538.93 314.26 529.9 319.47 529.9 329.9 538.93 335.12 547.96 329.9" style="fill:#95d4e9"/><polygon points="578.14 329.9 578.14 319.47 569.11 314.26 560.08 319.47 560.08 329.9 569.11 335.12 578.14 329.9" style="fill:#95d4e9"/><polygon points="608.33 329.9 608.33 319.47 599.3 314.26 590.26 319.47 590.26 329.9 599.3 335.12 608.33 329.9" style="fill:#95d4e9"/><polygon points="638.51 329.9 638.51 319.47 629.48 314.26 620.45 319.47 620.45 329.9 629.48 335.12 638.51 329.9" style="fill:#95d4e9"/><polygon points="668.7 329.9 668.7 319.47 659.66 314.26 650.63 319.47 650.63 329.9 659.66 335.12 668.7 329.9" style="fill:#95d4e9"/><polygon points="698.88 329.9 698.88 319.47 689.85 314.26 680.82 319.47 680.82 329.9 689.85 335.12 698.88 329.9" style="fill:#95d4e9"/><polygon points="729.06 329.9 729.06 319.47 720.03 314.26 711 319.47 711 329.9 720.03 335.12 729.06 329.9" style="fill:#95d4e9"/><polygon points="759.25 329.9 759.25 319.47 750.21 314.26 741.18 319.47 741.18 329.9 750.21 335.12 759.25 329.9" style="fill:#95d4e9"/><polygon points="789.43 329.9 789.43 319.47 780.4 314.26 771.37 319.47 771.37 329.9 780.4 335.12 789.43 329.9" style="fill:#95d4e9"/><polygon points="819.61 329.9 819.61 319.47 810.58 314.26 801.55 319.47 801.55 329.9 810.58 335.12 819.61 329.9" style="fill:#95d4e9"/><polygon points="849.8 329.9 849.8 319.47 840.76 314.26 831.73 319.47 831.73 329.9 840.76 335.12 849.8 329.9" style="fill:#95d4e9"/><polygon points="879.98 329.9 879.98 319.47 870.95 314.26 861.92 319.47 861.92 329.9 870.95 335.12 879.98 329.9" style="fill:#95d4e9"/><polygon points="910.16 329.9 910.16 319.47 901.13 314.26 892.1 319.47 892.1 329.9 901.13 335.12 910.16 329.9" style="fill:#95d4e9"/><polygon points="940.35 329.9 940.35 319.47 931.32 314.26 922.28 319.47 922.28 329.9 931.32 335.12 940.35 329.9" style="fill:#95d4e9"/><polygon points="970.53 329.9 970.53 319.47 961.5 314.26 952.47 319.47 952.47 329.9 961.5 335.12 970.53 329.9" style="fill:#95d4e9"/><polygon points="1000.71 329.9 1000.71 319.47 991.68 314.26 982.65 319.47 982.65 329.9 991.68 335.12 1000.71 329.9" style="fill:#95d4e9"/><polygon points="1030.9 329.9 1030.9 319.47 1021.87 314.26 1012.83 319.47 1012.83 329.9 1021.87 335.12 1030.9 329.9" style="fill:#95d4e9"/><polygon points="1061.08 329.9 1061.08 319.47 1052.05 314.26 1043.02 319.47 1043.02 329.9 1052.05 335.12 1061.08 329.9" style="fill:#95d4e9"/></g><g style="opacity:0.5"><polygon points="229.63 356.6 229.63 346.17 220.6 340.96 211.56 346.17 211.56 356.6 220.6 361.81 229.63 356.6" style="fill:#95d4e9"/><polygon points="259.81 356.6 259.81 346.17 250.78 340.96 241.75 346.17 241.75 356.6 250.78 361.81 259.81 356.6" style="fill:#95d4e9"/><polygon points="290 356.6 290 346.17 280.96 340.96 271.93 346.17 271.93 356.6 280.96 361.81 290 356.6" style="fill:#95d4e9"/><polygon points="320.18 356.6 320.18 346.17 311.15 340.96 302.12 346.17 302.12 356.6 311.15 361.81 320.18 356.6" style="fill:#95d4e9"/><polygon points="350.36 356.6 350.36 346.17 341.33 340.96 332.3 346.17 332.3 356.6 341.33 361.81 350.36 356.6" style="fill:#95d4e9"/><polygon points="380.55 356.6 380.55 346.17 371.51 340.96 362.48 346.17 362.48 356.6 371.51 361.81 380.55 356.6" style="fill:#95d4e9"/><polygon points="410.73 356.6 410.73 346.17 401.7 340.96 392.67 346.17 392.67 356.6 401.7 361.81 410.73 356.6" style="fill:#95d4e9"/><polygon points="440.91 356.6 440.91 346.17 431.88 340.96 422.85 346.17 422.85 356.6 431.88 361.81 440.91 356.6" style="fill:#95d4e9"/><polygon points="471.1 356.6 471.1 346.17 462.06 340.96 453.03 346.17 453.03 356.6 462.06 361.81 471.1 356.6" style="fill:#95d4e9"/><polygon points="501.28 356.6 501.28 346.17 492.25 340.96 483.22 346.17 483.22 356.6 492.25 361.81 501.28 356.6" style="fill:#95d4e9"/><polygon points="531.46 356.6 531.46 346.17 522.43 340.96 513.4 346.17 513.4 356.6 522.43 361.81 531.46 356.6" style="fill:#95d4e9"/><polygon points="561.65 356.6 561.65 346.17 552.62 340.96 543.58 346.17 543.58 356.6 552.62 361.81 561.65 356.6" style="fill:#95d4e9"/><polygon points="591.83 356.6 591.83 346.17 582.8 340.96 573.77 346.17 573.77 356.6 582.8 361.81 591.83 356.6" style="fill:#95d4e9"/><polygon points="622.01 356.6 622.01 346.17 612.98 340.96 603.95 346.17 603.95 356.6 612.98 361.81 622.01 356.6" style="fill:#95d4e9"/><polygon points="652.2 356.6 652.2 346.17 643.17 340.96 634.13 346.17 634.13 356.6 643.17 361.81 652.2 356.6" style="fill:#95d4e9"/><polygon points="682.38 356.6 682.38 346.17 673.35 340.96 664.32 346.17 664.32 356.6 673.35 361.81 682.38 356.6" style="fill:#95d4e9"/><polygon points="712.57 356.6 712.57 346.17 703.53 340.96 694.5 346.17 694.5 356.6 703.53 361.81 712.57 356.6" style="fill:#95d4e9"/><polygon points="742.75 356.6 742.75 346.17 733.72 340.96 724.68 346.17 724.68 356.6 733.72 361.81 742.75 356.6" style="fill:#95d4e9"/><polygon points="772.93 356.6 772.93 346.17 763.9 340.96 754.87 346.17 754.87 356.6 763.9 361.81 772.93 356.6" style="fill:#95d4e9"/><polygon points="803.12 356.6 803.12 346.17 794.08 340.96 785.05 346.17 785.05 356.6 794.08 361.81 803.12 356.6" style="fill:#95d4e9"/><polygon points="833.3 356.6 833.3 346.17 824.27 340.96 815.24 346.17 815.24 356.6 824.27 361.81 833.3 356.6" style="fill:#95d4e9"/><polygon points="863.48 356.6 863.48 346.17 854.45 340.96 845.42 346.17 845.42 356.6 854.45 361.81 863.48 356.6" style="fill:#95d4e9"/><polygon points="893.67 356.6 893.67 346.17 884.63 340.96 875.6 346.17 875.6 356.6 884.63 361.81 893.67 356.6" style="fill:#95d4e9"/><polygon points="923.85 356.6 923.85 346.17 914.82 340.96 905.78 346.17 905.78 356.6 914.82 361.81 923.85 356.6" style="fill:#95d4e9"/><polygon points="954.03 356.6 954.03 346.17 945 340.96 935.97 346.17 935.97 356.6 945 361.81 954.03 356.6" style="fill:#95d4e9"/><polygon points="984.22 356.6 984.22 346.17 975.18 340.96 966.15 346.17 966.15 356.6 975.18 361.81 984.22 356.6" style="fill:#95d4e9"/><polygon points="1014.4 356.6 1014.4 346.17 1005.37 340.96 996.34 346.17 996.34 356.6 1005.37 361.81 1014.4 356.6" style="fill:#95d4e9"/><polygon points="1044.58 356.6 1044.58 346.17 1035.55 340.96 1026.52 346.17 1026.52 356.6 1035.55 361.81 1044.58 356.6" style="fill:#95d4e9"/></g><g style="opacity:0.5"><polygon points="246.13 383.26 246.13 372.83 237.09 367.62 228.06 372.83 228.06 383.26 237.09 388.48 246.13 383.26" style="fill:#95d4e9"/><polygon points="276.31 383.26 276.31 372.83 267.28 367.62 258.25 372.83 258.25 383.26 267.28 388.48 276.31 383.26" style="fill:#95d4e9"/><polygon points="306.49 383.26 306.49 372.83 297.46 367.62 288.43 372.83 288.43 383.26 297.46 388.48 306.49 383.26" style="fill:#95d4e9"/><polygon points="336.68 383.26 336.68 372.83 327.64 367.62 318.61 372.83 318.61 383.26 327.64 388.48 336.68 383.26" style="fill:#95d4e9"/><polygon points="366.86 383.26 366.86 372.83 357.83 367.62 348.8 372.83 348.8 383.26 357.83 388.48 366.86 383.26" style="fill:#95d4e9"/><polygon points="397.04 383.26 397.04 372.83 388.01 367.62 378.98 372.83 378.98 383.26 388.01 388.48 397.04 383.26" style="fill:#95d4e9"/><polygon points="427.23 383.26 427.23 372.83 418.19 367.62 409.16 372.83 409.16 383.26 418.19 388.48 427.23 383.26" style="fill:#95d4e9"/><polygon points="457.41 383.26 457.41 372.83 448.38 367.62 439.35 372.83 439.35 383.26 448.38 388.48 457.41 383.26" style="fill:#95d4e9"/><polygon points="487.6 383.26 487.6 372.83 478.56 367.62 469.53 372.83 469.53 383.26 478.56 388.48 487.6 383.26" style="fill:#95d4e9"/><polygon points="517.78 383.26 517.78 372.83 508.75 367.62 499.71 372.83 499.71 383.26 508.75 388.48 517.78 383.26" style="fill:#95d4e9"/><polygon points="547.96 383.26 547.96 372.83 538.93 367.62 529.9 372.83 529.9 383.26 538.93 388.48 547.96 383.26" style="fill:#95d4e9"/><polygon points="578.14 383.26 578.14 372.83 569.11 367.62 560.08 372.83 560.08 383.26 569.11 388.48 578.14 383.26" style="fill:#95d4e9"/><polygon points="608.33 383.26 608.33 372.83 599.3 367.62 590.26 372.83 590.26 383.26 599.3 388.48 608.33 383.26" style="fill:#95d4e9"/><polygon points="638.51 383.26 638.51 372.83 629.48 367.62 620.45 372.83 620.45 383.26 629.48 388.48 638.51 383.26" style="fill:#95d4e9"/><polygon points="668.7 383.26 668.7 372.83 659.66 367.62 650.63 372.83 650.63 383.26 659.66 388.48 668.7 383.26" style="fill:#95d4e9"/><polygon points="698.88 383.26 698.88 372.83 689.85 367.62 680.82 372.83 680.82 383.26 689.85 388.48 698.88 383.26" style="fill:#95d4e9"/><polygon points="729.06 383.26 729.06 372.83 720.03 367.62 711 372.83 711 383.26 720.03 388.48 729.06 383.26" style="fill:#95d4e9"/><polygon points="759.25 383.26 759.25 372.83 750.21 367.62 741.18 372.83 741.18 383.26 750.21 388.48 759.25 383.26" style="fill:#95d4e9"/><polygon points="789.43 383.26 789.43 372.83 780.4 367.62 771.37 372.83 771.37 383.26 780.4 388.48 789.43 383.26" style="fill:#95d4e9"/><polygon points="819.61 383.26 819.61 372.83 810.58 367.62 801.55 372.83 801.55 383.26 810.58 388.48 819.61 383.26" style="fill:#95d4e9"/><polygon points="849.8 383.26 849.8 372.83 840.76 367.62 831.73 372.83 831.73 383.26 840.76 388.48 849.8 383.26" style="fill:#95d4e9"/><polygon points="879.98 383.26 879.98 372.83 870.95 367.62 861.92 372.83 861.92 383.26 870.95 388.48 879.98 383.26" style="fill:#95d4e9"/><polygon points="910.16 383.26 910.16 372.83 901.13 367.62 892.1 372.83 892.1 383.26 901.13 388.48 910.16 383.26" style="fill:#95d4e9"/><polygon points="940.35 383.26 940.35 372.83 931.32 367.62 922.28 372.83 922.28 383.26 931.32 388.48 940.35 383.26" style="fill:#95d4e9"/><polygon points="970.53 383.26 970.53 372.83 961.5 367.62 952.47 372.83 952.47 383.26 961.5 388.48 970.53 383.26" style="fill:#95d4e9"/><polygon points="1000.71 383.26 1000.71 372.83 991.68 367.62 982.65 372.83 982.65 383.26 991.68 388.48 1000.71 383.26" style="fill:#95d4e9"/><polygon points="1030.9 383.26 1030.9 372.83 1021.87 367.62 1012.83 372.83 1012.83 383.26 1021.87 388.48 1030.9 383.26" style="fill:#95d4e9"/><polygon points="1061.08 383.26 1061.08 372.83 1052.05 367.62 1043.02 372.83 1043.02 383.26 1052.05 388.48 1061.08 383.26" style="fill:#95d4e9"/></g><path d="M235.8,346.3h14.3a17.57,17.57,0,0,0,17.58-17.56V143a17.58,17.58,0,0,1,17.59-17.56h36.79" style="fill:none;stroke:#231f20;stroke-miterlimit:10;stroke-width:2.23090946674347px"/><path d="M1455,342.33h-44.26a17.58,17.58,0,0,1-17.59-17.56V69.92a17.57,17.57,0,0,0-17.59-17.56h-36.78" style="fill:none;stroke:#231f20;stroke-miterlimit:10;stroke-width:2.23090946674347px"/><path d="M522.38,343.53H680.6A17.57,17.57,0,0,0,698.19,326V177.83" style="fill:none;stroke:#231f20;stroke-miterlimit:10;stroke-width:2.23090946674347px"/><rect x="129.52" y="1.14" width="1423.94" height="471.87" rx="32.31" style="fill:none;stroke:#231f20;stroke-miterlimit:10;stroke-width:2.27914372333019px"/><rect x="37.71" y="290.62" width="197.5" height="105.89" style="fill:#fff;stroke:#231f20;stroke-miterlimit:10;stroke-width:2.23090946674347px"/><text transform="translate(88.25 351.04)" style="font-size:21.565460205078125px;font-family:FuturaLT-Bold, Futura LT;font-weight:700">KICKOFF</text><rect x="323.41" y="287.87" width="197.5" height="105.89" style="fill:#fff;stroke:#231f20;stroke-miterlimit:10;stroke-width:2.23090946674347px"/><text transform="translate(361.36 348.29)" style="font-size:21.565460205078125px;font-family:FuturaLT-Bold, Futura LT;font-weight:700">REVISIONS</text><rect x="323.41" y="72.21" width="197.5" height="105.89" style="fill:#fff;stroke:#231f20;stroke-miterlimit:10;stroke-width:2.23090946674347px"/><text transform="translate(360.84 121.06)" style="font-size:21.565460205078125px;font-family:FuturaLT-Bold, Futura LT;font-weight:700">TECHNICAL<tspan x="18.57" y="25.88">DESIGN</tspan></text><rect x="597.07" y="72.21" width="197.5" height="105.89" style="fill:#fff;stroke:#231f20;stroke-miterlimit:10;stroke-width:2.23090946674347px"/><text transform="translate(652.88 133.75)" style="font-size:21.565460205078125px;font-family:FuturaLT-Bold, Futura LT;font-weight:700">REVIEW</text><path d="M1070.18,343.53h158.23A17.57,17.57,0,0,0,1246,326V288" style="fill:none;stroke:#231f20;stroke-miterlimit:10;stroke-width:2.23090946674347px"/><line x1="419.76" y1="177.43" x2="419.76" y2="284.95" style="fill:none;stroke:#231f20;stroke-miterlimit:10;stroke-width:2.26058256085651px"/><polygon points="410.52 277.46 412.17 275.92 419.76 284.09 427.35 275.92 429 277.46 419.76 287.41 410.52 277.46" style="fill:#231f20"/><rect x="871.33" y="287.87" width="197.5" height="105.89" style="fill:#fff;stroke:#231f20;stroke-miterlimit:10;stroke-width:2.23090946674347px"/><text transform="translate(910.38 348.29)" style="font-size:21.565460205078125px;font-family:FuturaLT-Bold, Futura LT;font-weight:700">FINISHING</text><rect x="1455.77" y="289.69" width="197.5" height="105.89" style="fill:#fff;stroke:#231f20;stroke-miterlimit:10;stroke-width:2.23090946674347px"/><text transform="translate(1500.33 350.11)" style="font-size:21.565460205078125px;font-family:FuturaLT-Bold, Futura LT;font-weight:700">OPENING</text><line x1="967.57" y1="177.43" x2="967.57" y2="284.95" style="fill:none;stroke:#231f20;stroke-miterlimit:10;stroke-width:2.26058256085651px"/><polygon points="958.33 277.46 959.98 275.92 967.57 284.09 975.16 275.92 976.81 277.46 967.57 287.41 958.33 277.46" style="fill:#231f20"/><line x1="520.78" y1="125.27" x2="593.74" y2="125.27" style="fill:none;stroke:#231f20;stroke-miterlimit:10;stroke-width:2.23090946674347px"/><polygon points="586.34 134.4 584.82 132.76 592.88 125.27 584.82 117.78 586.34 116.15 596.15 125.27 586.34 134.4" style="fill:#231f20"/><line x1="794.76" y1="125.27" x2="867.72" y2="125.27" style="fill:none;stroke:#231f20;stroke-miterlimit:10;stroke-width:2.23090946674347px"/><polygon points="860.33 134.4 858.8 132.76 866.86 125.27 858.8 117.78 860.33 116.15 870.14 125.27 860.33 134.4" style="fill:#231f20"/><line y1="344.57" x2="34.38" y2="344.57" style="fill:none;stroke:#231f20;stroke-miterlimit:10;stroke-width:2.23090946674347px"/><polygon points="26.99 353.69 25.47 352.06 33.53 344.57 25.47 337.08 26.99 335.45 36.8 344.57 26.99 353.69" style="fill:#231f20"/><line x1="1653.46" y1="344.1" x2="1687.84" y2="344.1" style="fill:none;stroke:#231f20;stroke-miterlimit:10;stroke-width:2.23090946674347px"/><polygon points="1680.45 353.23 1678.93 351.59 1686.98 344.11 1678.93 336.62 1680.45 334.98 1690.26 344.11 1680.45 353.23" style="fill:#231f20"/><rect x="1146.12" y="20.02" width="197.5" height="62.47" style="fill:#1e2944;stroke:#231f20;stroke-miterlimit:10;stroke-width:1.7135292115427px"/><text transform="translate(1201.93 58.87)" style="font-size:21.565460205078125px;fill:#fff;font-family:FuturaLT-Bold, Futura LT;font-weight:700">REVIEW</text><rect x="1146.12" y="88.46" width="197.5" height="62.47" style="fill:#1e2944;stroke:#231f20;stroke-miterlimit:10;stroke-width:1.7135292115427px"/><text transform="translate(1164.96 127.31)" style="font-size:21.565460205078125px;fill:#fff;font-family:FuturaLT-Bold, Futura LT;font-weight:700">INS<tspan x="39.27" y="0" style="letter-spacing:-0.06000082076594444em">T</tspan><tspan x="49.47" y="0">ALL</tspan><tspan x="87.66" y="0" style="letter-spacing:-0.06000082076594444em">A</tspan><tspan x="103.21" y="0" style="letter-spacing:0.000022641819156960165em">TION</tspan></text><rect x="1146.12" y="156.9" width="197.5" height="62.47" style="fill:#1e2944;stroke:#231f20;stroke-miterlimit:10;stroke-width:1.7135292115427px"/><text transform="translate(1193.26 195.75)" style="font-size:21.565460205078125px;fill:#fff;font-family:FuturaLT-Bold, Futura LT;font-weight:700">DELIVE<tspan x="74.01" y="0" style="letter-spacing:-0.039985452631191645em">R</tspan><tspan x="87.81" y="0">Y</tspan></text><rect x="1146.12" y="225.34" width="197.5" height="62.47" style="fill:#1e2944;stroke:#231f20;stroke-miterlimit:10;stroke-width:1.7135292115427px"/><text transform="translate(1167.71 264.19)" style="font-size:21.565460205078125px;fill:#fff;font-family:FuturaLT-Bold, Futura LT;font-weight:700">INTEGR<tspan x="82.16" y="0" style="letter-spacing:-0.05997817894678748em">A</tspan><tspan x="97.71" y="0">TION</tspan></text><polygon points="686.67 171.59 686.67 184.71 698.03 191.27 709.39 184.71 709.39 171.59 698.03 165.03 686.67 171.59" style="fill:#1e2944"/><polygon points="555.95 331.87 542.83 331.87 536.27 343.23 542.83 354.59 555.95 354.59 562.51 343.23 555.95 331.87" style="fill:#1e2944"/><polygon points="587.15 331.87 574.04 331.87 567.48 343.23 574.04 354.59 587.15 354.59 593.71 343.23 587.15 331.87" style="fill:#1e2944"/><polygon points="618.36 331.87 605.24 331.87 598.68 343.23 605.24 354.59 618.36 354.59 624.92 343.23 618.36 331.87" style="fill:#1e2944"/><polygon points="649.56 331.87 636.45 331.87 629.89 343.23 636.45 354.59 649.56 354.59 656.12 343.23 649.56 331.87" style="fill:#1e2944"/><polygon points="979.04 218.54 979.04 205.43 967.68 198.87 956.32 205.43 956.32 218.54 967.68 225.1 979.04 218.54" style="fill:#1e2944"/><polygon points="979.04 249.75 979.04 236.63 967.68 230.07 956.32 236.63 956.32 249.75 967.68 256.31 979.04 249.75" style="fill:#1e2944"/><polygon points="707.4 181.46 705.74 183 698.16 174.84 690.57 183 688.91 181.46 698.16 171.52 707.4 181.46" style="fill:#fff"/><polygon points="330.82 113.98 317.71 113.98 311.15 125.34 317.71 136.7 330.82 136.7 337.38 125.34 330.82 113.98" style="fill:#1e2944"/><polygon points="320.95 134.7 319.41 133.05 327.57 125.46 319.41 117.87 320.95 116.22 330.89 125.46 320.95 134.7" style="fill:#fff"/><polygon points="1233.35 215.95 1233.35 229.07 1244.71 235.63 1256.08 229.07 1256.08 215.95 1244.71 209.39 1233.35 215.95" style="fill:#6aa2b9"/><polygon points="1254.08 225.83 1252.43 227.37 1244.84 219.2 1237.25 227.37 1235.59 225.83 1244.84 215.88 1254.08 225.83" style="fill:#fff"/><polygon points="1233.35 146.3 1233.35 159.42 1244.71 165.98 1256.08 159.42 1256.08 146.3 1244.71 139.74 1233.35 146.3" style="fill:#6aa2b9"/><polygon points="1254.08 156.17 1252.43 157.71 1244.84 149.55 1237.25 157.71 1235.59 156.17 1244.84 146.23 1254.08 156.17" style="fill:#fff"/><polygon points="1233.35 79.37 1233.35 92.49 1244.71 99.05 1256.08 92.49 1256.08 79.37 1244.71 72.81 1233.35 79.37" style="fill:#6aa2b9"/><polygon points="1254.08 89.25 1252.43 90.79 1244.84 82.63 1237.25 90.79 1235.59 89.25 1244.84 79.31 1254.08 89.25" style="fill:#fff"/><polygon points="1461.69 330.66 1448.57 330.66 1442.01 342.02 1448.57 353.38 1461.69 353.38 1468.25 342.02 1461.69 330.66" style="fill:#6aa2b9"/><polygon points="1451.81 351.38 1450.27 349.73 1458.43 342.14 1450.27 334.55 1451.81 332.9 1461.75 342.14 1451.81 351.38" style="fill:#fff"/><rect x="871.33" y="72.12" width="197.5" height="105.89" style="fill:#6aa2b9;stroke:#231f20;stroke-miterlimit:10;stroke-width:2.23090946674347px"/><text transform="translate(895.16 134.13)" style="font-size:21.565460205078125px;fill:#fff;font-family:FuturaLT-Bold, Futura LT;font-weight:700"><tspan style="letter-spacing:-0.054996978732256244em">F</tspan><tspan x="10.5" y="0">ABRIC</tspan><tspan x="77.83" y="0" style="letter-spacing:-0.06000082076594444em">A</tspan><tspan x="93.38" y="0">TION</tspan></text><path d="M1212.21,353.36l-9.18,1.75-.6-3.12a5.23,5.23,0,0,1,.57-3.89,4.58,4.58,0,0,1,3.1-1.92,4.31,4.31,0,0,1,3.4.59,5.08,5.08,0,0,1,2.07,3.26Zm-2.48-2-.09-.48a2.84,2.84,0,0,0-1.05-1.88,2.52,2.52,0,0,0-2-.34,2.77,2.77,0,0,0-1.87,1.1,2.71,2.71,0,0,0-.21,2l.11.58Z" style="fill:#202945"/><path d="M1210.54,334.92a5.58,5.58,0,0,1-1,7.3,4.89,4.89,0,0,1-6.93-1,5.58,5.58,0,0,1,1-7.3,4.89,4.89,0,0,1,6.93,1Zm-6,4.8a2.55,2.55,0,0,0,1.72,1,2.38,2.38,0,0,0,1.82-.5,2.67,2.67,0,0,0,1-1.77,2.54,2.54,0,0,0-.46-2,2.57,2.57,0,0,0-1.67-1,2.49,2.49,0,0,0-1.88.51,2.76,2.76,0,0,0-1,1.75A2.71,2.71,0,0,0,1204.54,339.72Z" style="fill:#202945"/><path d="M1204.63,326.73l6.07,1.48-4.34-4.64.93-1.69,6.17,1.3-4.44-4.46,1.23-2.22,6.74,7.12-1.19,2.17-5.55-1.12,3.87,4.17-1.19,2.16L1203.4,329Z" style="fill:#202945"/><path d="M1219.54,320.4l-5.88-7.26,1.88-1.52,7.07,1.62-3.6-4.44,1.88-1.52,5.89,7.25-1.88,1.53-7.08-1.62,3.6,4.43Z" style="fill:#202945"/><path d="M1229.48,305.45l2.84,6.71-2.23.95-2.84-6.71-1.83.78-.8-1.9,5.89-2.5.8,1.9Z" style="fill:#202945"/><path d="M1243.76,308.65a5.6,5.6,0,0,1-7.32.85,4.89,4.89,0,0,1-.82-6.94,5.58,5.58,0,0,1,7.32-.86,4.9,4.9,0,0,1,.82,6.95Zm-6.16-4.6a2.55,2.55,0,0,0-.52,1.91,2.4,2.4,0,0,0,.94,1.64,2.64,2.64,0,0,0,2,.51,2.54,2.54,0,0,0,1.78-.94,2.59,2.59,0,0,0,.54-1.87,2.55,2.55,0,0,0-1-1.69,2.8,2.8,0,0,0-1.95-.52A2.73,2.73,0,0,0,1237.6,304.05Z" style="fill:#202945"/><path d="M1250.82,301v6.25l3.48-5.32,1.86.51.2,6.31,3.28-5.37,2.45.66-5.31,8.24-2.4-.64-.23-5.67-3.14,4.76-2.38-.64-.26-9.75Z" style="fill:#202945"/><path d="M1260.52,314l5.64-7.46,1.93,1.47.11,7.25,3.45-4.56,1.93,1.47-5.64,7.45-1.93-1.46-.11-7.26-3.45,4.56Z" style="fill:#202945"/><path d="M1228.61,375.12l-2.52-1.49-.79,1.34,2.29,1.35-1,1.77-2.29-1.35-1.87,3.15-2.09-1.23,4.77-8,4.6,2.73Z" style="fill:#202945"/><path d="M1234.73,383.24l-3.26-.91-1,1.34L1228,383l6-8,2.55.71.87,10-2.5-.69Zm-.12-2-.2-3.19-1.8,2.64Z" style="fill:#202945"/><path d="M1241,385.88l0-9.34,3.62,0a2.6,2.6,0,0,1,2,.72,2.55,2.55,0,0,1,.59,1.75,2.37,2.37,0,0,1-.27,1.15,1.41,1.41,0,0,1-.75.73,2.39,2.39,0,0,1,1.28.56,2.33,2.33,0,0,1,.63,1.71,2.53,2.53,0,0,1-.68,1.84,3.52,3.52,0,0,1-2.53.89Zm2.41-1.9h.55a2,2,0,0,0,1.5-.38,1.06,1.06,0,0,0,0-1.28,2.31,2.31,0,0,0-1.5-.3h-.51Zm0-3.77h.45a1.26,1.26,0,0,0,.92-.3.9.9,0,0,0,.22-.61,1,1,0,0,0-.22-.63,1.28,1.28,0,0,0-.93-.28h-.45Z" style="fill:#202945"/><path d="M1251.21,376.09l3.6,5.12-.22-6.35,1.82-.67,3.79,5.05-.41-6.28,2.38-.87.41,9.8-2.33.85-3.45-4.5.17,5.7-2.32.84-5.82-7.82Z" style="fill:#202945"/><path d="M1274.48,371.72a5.38,5.38,0,0,1-1.83,3.49,5.33,5.33,0,0,1-3.67,1.41,4.88,4.88,0,0,1-4.65-5.22,5.58,5.58,0,0,1,5.5-4.9,4.89,4.89,0,0,1,4.65,5.22Zm-7.68-.23a2.55,2.55,0,0,0,.67,1.86,2.32,2.32,0,0,0,1.71.8,2.61,2.61,0,0,0,1.9-.7,2.57,2.57,0,0,0,.92-1.79,2.51,2.51,0,0,0-.63-1.84,2.47,2.47,0,0,0-1.76-.84,2.83,2.83,0,0,0-1.89.69A2.7,2.7,0,0,0,1266.8,371.49Z" style="fill:#202945"/><path d="M1273.08,359.65a2.81,2.81,0,0,1,4.08-1.2,2.72,2.72,0,0,1,1.31,1.62,2.58,2.58,0,0,1-.09,1.44l4.78-.61-1.51,2.6-4.27.22,3.1,1.8-1.21,2.09-8.09-4.68Zm2.94,3.28.23-.4a1.82,1.82,0,0,0,.27-1.21,1.17,1.17,0,0,0-.53-.66,1.07,1.07,0,0,0-.84-.11,1.67,1.67,0,0,0-.9.82l-.23.4Z" style="fill:#202945"/><path d="M1279.89,353.3l-3.06-3.78.69-2.92,3.45,4.64,5.72-2.8-.73,3.05-4.67,2.14,3.94.94-.56,2.36-9.09-2.16.56-2.36Z" style="fill:#202945"/><path d="M1284,344.05a3.24,3.24,0,0,0,.86-2.18,1.23,1.23,0,0,0-.36-.93.84.84,0,0,0-.59-.21.68.68,0,0,0-.55.29,3.16,3.16,0,0,0-.44,1.22l-.17.64a3,3,0,0,1-.71,1.37,2.32,2.32,0,0,1-1.63.6,3,3,0,0,1-2.28-.76,3.27,3.27,0,0,1-1-2.36,6.48,6.48,0,0,1,.64-2.92l1.93.89a2.48,2.48,0,0,0-.57,1.63,1.18,1.18,0,0,0,.31.78.69.69,0,0,0,.52.22.66.66,0,0,0,.41-.14,1.62,1.62,0,0,0,.39-.83l.19-.75a3.58,3.58,0,0,1,.86-1.73,2.15,2.15,0,0,1,1.64-.67,3.17,3.17,0,0,1,2.39.78,3.63,3.63,0,0,1,1.06,2.72,5,5,0,0,1-.24,1.85A6.58,6.58,0,0,1,1286,345Z" style="fill:#202945"/><polygon points="1215.3 365.87 1214.38 364.33 1212.59 364.35 1211.71 365.92 1212.63 367.46 1214.42 367.44 1215.3 365.87" style="fill:#202945"/><polygon points="1280.42 327.21 1279.5 325.67 1277.71 325.69 1276.83 327.25 1277.75 328.79 1279.54 328.77 1280.42 327.21" style="fill:#202945"/></g></g></svg>