<svg xmlns="http://www.w3.org/2000/svg" width="342.25" height="1347.3" viewBox="0 0 342.25 1347.3"><g id="Layer_2" data-name="Layer 2"><g id="Layer_1-2" data-name="Layer 1"><g style="opacity:0.5"><polygon points="100.4 688.06 92.79 688.06 88.98 694.65 92.79 701.24 100.4 701.24 104.2 694.65 100.4 688.06" style="fill:#95d4e9"/><polygon points="100.4 666.03 92.79 666.03 88.98 672.62 92.79 679.22 100.4 679.22 104.2 672.62 100.4 666.03" style="fill:#95d4e9"/><polygon points="100.4 644 92.79 644 88.98 650.59 92.79 657.18 100.4 657.18 104.2 650.59 100.4 644" style="fill:#95d4e9"/><polygon points="100.4 621.97 92.79 621.97 88.98 628.56 92.79 635.16 100.4 635.16 104.2 628.56 100.4 621.97" style="fill:#95d4e9"/><polygon points="100.4 599.94 92.79 599.94 88.98 606.53 92.79 613.13 100.4 613.13 104.2 606.53 100.4 599.94" style="fill:#95d4e9"/><polygon points="100.4 577.91 92.79 577.91 88.98 584.51 92.79 591.1 100.4 591.1 104.2 584.51 100.4 577.91" style="fill:#95d4e9"/><polygon points="100.4 555.88 92.79 555.88 88.98 562.48 92.79 569.07 100.4 569.07 104.2 562.48 100.4 555.88" style="fill:#95d4e9"/><polygon points="100.4 533.86 92.79 533.86 88.98 540.45 92.79 547.04 100.4 547.04 104.2 540.45 100.4 533.86" style="fill:#95d4e9"/><polygon points="100.4 511.83 92.79 511.83 88.98 518.42 92.79 525.01 100.4 525.01 104.2 518.42 100.4 511.83" style="fill:#95d4e9"/><polygon points="100.4 489.8 92.79 489.8 88.98 496.39 92.79 502.98 100.4 502.98 104.2 496.39 100.4 489.8" style="fill:#95d4e9"/><polygon points="100.4 467.77 92.79 467.77 88.98 474.36 92.79 480.95 100.4 480.95 104.2 474.36 100.4 467.77" style="fill:#95d4e9"/><polygon points="100.4 445.74 92.79 445.74 88.98 452.33 92.79 458.92 100.4 458.92 104.2 452.33 100.4 445.74" style="fill:#95d4e9"/><polygon points="100.4 423.71 92.79 423.71 88.98 430.3 92.79 436.89 100.4 436.89 104.2 430.3 100.4 423.71" style="fill:#95d4e9"/><polygon points="100.4 401.68 92.79 401.68 88.98 408.27 92.79 414.86 100.4 414.86 104.2 408.27 100.4 401.68" style="fill:#95d4e9"/><polygon points="100.4 379.65 92.79 379.65 88.98 386.24 92.79 392.83 100.4 392.83 104.2 386.24 100.4 379.65" style="fill:#95d4e9"/><polygon points="100.4 357.62 92.79 357.62 88.98 364.21 92.79 370.81 100.4 370.81 104.2 364.21 100.4 357.62" style="fill:#95d4e9"/><polygon points="100.4 335.59 92.79 335.59 88.98 342.18 92.79 348.78 100.4 348.78 104.2 342.18 100.4 335.59" style="fill:#95d4e9"/><polygon points="100.4 313.56 92.79 313.56 88.98 320.15 92.79 326.75 100.4 326.75 104.2 320.15 100.4 313.56" style="fill:#95d4e9"/><polygon points="100.4 291.53 92.79 291.53 88.98 298.13 92.79 304.72 100.4 304.72 104.2 298.13 100.4 291.53" style="fill:#95d4e9"/><polygon points="100.4 269.5 92.79 269.5 88.98 276.1 92.79 282.69 100.4 282.69 104.2 276.1 100.4 269.5" style="fill:#95d4e9"/><polygon points="100.4 247.48 92.79 247.48 88.98 254.07 92.79 260.66 100.4 260.66 104.2 254.07 100.4 247.48" style="fill:#95d4e9"/><polygon points="100.4 225.45 92.79 225.45 88.98 232.04 92.79 238.63 100.4 238.63 104.2 232.04 100.4 225.45" style="fill:#95d4e9"/><polygon points="100.4 203.42 92.79 203.42 88.98 210.01 92.79 216.6 100.4 216.6 104.2 210.01 100.4 203.42" style="fill:#95d4e9"/><polygon points="100.4 181.39 92.79 181.39 88.98 187.98 92.79 194.57 100.4 194.57 104.2 187.98 100.4 181.39" style="fill:#95d4e9"/><polygon points="100.4 159.36 92.79 159.36 88.98 165.95 92.79 172.54 100.4 172.54 104.2 165.95 100.4 159.36" style="fill:#95d4e9"/><polygon points="100.4 137.33 92.79 137.33 88.98 143.92 92.79 150.51 100.4 150.51 104.2 143.92 100.4 137.33" style="fill:#95d4e9"/><polygon points="100.4 115.3 92.79 115.3 88.98 121.89 92.79 128.49 100.4 128.49 104.2 121.89 100.4 115.3" style="fill:#95d4e9"/><polygon points="100.4 93.27 92.79 93.27 88.98 99.86 92.79 106.45 100.4 106.45 104.2 99.86 100.4 93.27" style="fill:#95d4e9"/></g><g style="opacity:0.5"><polygon points="119.86 676.02 112.25 676.02 108.44 682.61 112.25 689.2 119.86 689.2 123.66 682.61 119.86 676.02" style="fill:#95d4e9"/><polygon points="119.86 653.99 112.25 653.99 108.44 660.58 112.25 667.17 119.86 667.17 123.66 660.58 119.86 653.99" style="fill:#95d4e9"/><polygon points="119.86 631.96 112.25 631.96 108.44 638.55 112.25 645.14 119.86 645.14 123.66 638.55 119.86 631.96" style="fill:#95d4e9"/><polygon points="119.86 609.93 112.25 609.93 108.44 616.52 112.25 623.12 119.86 623.12 123.66 616.52 119.86 609.93" style="fill:#95d4e9"/><polygon points="119.86 587.9 112.25 587.9 108.44 594.49 112.25 601.09 119.86 601.09 123.66 594.49 119.86 587.9" style="fill:#95d4e9"/><polygon points="119.86 565.87 112.25 565.87 108.44 572.47 112.25 579.06 119.86 579.06 123.66 572.47 119.86 565.87" style="fill:#95d4e9"/><polygon points="119.86 543.84 112.25 543.84 108.44 550.44 112.25 557.03 119.86 557.03 123.66 550.44 119.86 543.84" style="fill:#95d4e9"/><polygon points="119.86 521.82 112.25 521.82 108.44 528.41 112.25 535 119.86 535 123.66 528.41 119.86 521.82" style="fill:#95d4e9"/><polygon points="119.86 499.79 112.25 499.79 108.44 506.38 112.25 512.97 119.86 512.97 123.66 506.38 119.86 499.79" style="fill:#95d4e9"/><polygon points="119.86 477.76 112.25 477.76 108.44 484.35 112.25 490.94 119.86 490.94 123.66 484.35 119.86 477.76" style="fill:#95d4e9"/><polygon points="119.86 455.73 112.25 455.73 108.44 462.32 112.25 468.91 119.86 468.91 123.66 462.32 119.86 455.73" style="fill:#95d4e9"/><polygon points="119.86 433.7 112.25 433.7 108.44 440.29 112.25 446.88 119.86 446.88 123.66 440.29 119.86 433.7" style="fill:#95d4e9"/><polygon points="119.86 411.67 112.25 411.67 108.44 418.26 112.25 424.85 119.86 424.85 123.66 418.26 119.86 411.67" style="fill:#95d4e9"/><polygon points="119.86 389.64 112.25 389.64 108.44 396.23 112.25 402.82 119.86 402.82 123.66 396.23 119.86 389.64" style="fill:#95d4e9"/><polygon points="119.86 367.61 112.25 367.61 108.44 374.2 112.25 380.8 119.86 380.8 123.66 374.2 119.86 367.61" style="fill:#95d4e9"/><polygon points="119.86 345.58 112.25 345.58 108.44 352.17 112.25 358.76 119.86 358.76 123.66 352.17 119.86 345.58" style="fill:#95d4e9"/><polygon points="119.86 323.55 112.25 323.55 108.44 330.14 112.25 336.74 119.86 336.74 123.66 330.14 119.86 323.55" style="fill:#95d4e9"/><polygon points="119.86 301.52 112.25 301.52 108.44 308.12 112.25 314.71 119.86 314.71 123.66 308.12 119.86 301.52" style="fill:#95d4e9"/><polygon points="119.86 279.49 112.25 279.49 108.44 286.09 112.25 292.68 119.86 292.68 123.66 286.09 119.86 279.49" style="fill:#95d4e9"/><polygon points="119.86 257.46 112.25 257.46 108.44 264.06 112.25 270.65 119.86 270.65 123.66 264.06 119.86 257.46" style="fill:#95d4e9"/><polygon points="119.86 235.44 112.25 235.44 108.44 242.03 112.25 248.62 119.86 248.62 123.66 242.03 119.86 235.44" style="fill:#95d4e9"/><polygon points="119.86 213.41 112.25 213.41 108.44 220 112.25 226.59 119.86 226.59 123.66 220 119.86 213.41" style="fill:#95d4e9"/><polygon points="119.86 191.38 112.25 191.38 108.44 197.97 112.25 204.56 119.86 204.56 123.66 197.97 119.86 191.38" style="fill:#95d4e9"/><polygon points="119.86 169.35 112.25 169.35 108.44 175.94 112.25 182.53 119.86 182.53 123.66 175.94 119.86 169.35" style="fill:#95d4e9"/><polygon points="119.86 147.32 112.25 147.32 108.44 153.91 112.25 160.5 119.86 160.5 123.66 153.91 119.86 147.32" style="fill:#95d4e9"/><polygon points="119.86 125.29 112.25 125.29 108.44 131.88 112.25 138.47 119.86 138.47 123.66 131.88 119.86 125.29" style="fill:#95d4e9"/><polygon points="119.86 103.26 112.25 103.26 108.44 109.85 112.25 116.44 119.86 116.44 123.66 109.85 119.86 103.26" style="fill:#95d4e9"/><polygon points="119.86 81.23 112.25 81.23 108.44 87.82 112.25 94.42 119.86 94.42 123.66 87.82 119.86 81.23" style="fill:#95d4e9"/></g><g style="opacity:0.5"><polygon points="139.34 688.06 131.73 688.06 127.93 694.65 131.73 701.24 139.34 701.24 143.15 694.65 139.34 688.06" style="fill:#95d4e9"/><polygon points="139.34 666.03 131.73 666.03 127.93 672.62 131.73 679.22 139.34 679.22 143.15 672.62 139.34 666.03" style="fill:#95d4e9"/><polygon points="139.34 644 131.73 644 127.93 650.59 131.73 657.18 139.34 657.18 143.15 650.59 139.34 644" style="fill:#95d4e9"/><polygon points="139.34 621.97 131.73 621.97 127.93 628.56 131.73 635.16 139.34 635.16 143.15 628.56 139.34 621.97" style="fill:#95d4e9"/><polygon points="139.34 599.94 131.73 599.94 127.93 606.53 131.73 613.13 139.34 613.13 143.15 606.53 139.34 599.94" style="fill:#95d4e9"/><polygon points="139.34 577.91 131.73 577.91 127.93 584.51 131.73 591.1 139.34 591.1 143.15 584.51 139.34 577.91" style="fill:#95d4e9"/><polygon points="139.34 555.88 131.73 555.88 127.93 562.48 131.73 569.07 139.34 569.07 143.15 562.48 139.34 555.88" style="fill:#95d4e9"/><polygon points="139.34 533.86 131.73 533.86 127.93 540.45 131.73 547.04 139.34 547.04 143.15 540.45 139.34 533.86" style="fill:#95d4e9"/><polygon points="139.34 511.83 131.73 511.83 127.93 518.42 131.73 525.01 139.34 525.01 143.15 518.42 139.34 511.83" style="fill:#95d4e9"/><polygon points="139.34 489.8 131.73 489.8 127.93 496.39 131.73 502.98 139.34 502.98 143.15 496.39 139.34 489.8" style="fill:#95d4e9"/><polygon points="139.34 467.77 131.73 467.77 127.93 474.36 131.73 480.95 139.34 480.95 143.15 474.36 139.34 467.77" style="fill:#95d4e9"/><polygon points="139.34 445.74 131.73 445.74 127.93 452.33 131.73 458.92 139.34 458.92 143.15 452.33 139.34 445.74" style="fill:#95d4e9"/><polygon points="139.34 423.71 131.73 423.71 127.93 430.3 131.73 436.89 139.34 436.89 143.15 430.3 139.34 423.71" style="fill:#95d4e9"/><polygon points="139.34 401.68 131.73 401.68 127.93 408.27 131.73 414.86 139.34 414.86 143.15 408.27 139.34 401.68" style="fill:#95d4e9"/><polygon points="139.34 379.65 131.73 379.65 127.93 386.24 131.73 392.83 139.34 392.83 143.15 386.24 139.34 379.65" style="fill:#95d4e9"/><polygon points="139.34 357.62 131.73 357.62 127.93 364.21 131.73 370.81 139.34 370.81 143.15 364.21 139.34 357.62" style="fill:#95d4e9"/><polygon points="139.34 335.59 131.73 335.59 127.93 342.18 131.73 348.78 139.34 348.78 143.15 342.18 139.34 335.59" style="fill:#95d4e9"/><polygon points="139.34 313.56 131.73 313.56 127.93 320.15 131.73 326.75 139.34 326.75 143.15 320.15 139.34 313.56" style="fill:#95d4e9"/><polygon points="139.34 291.53 131.73 291.53 127.93 298.13 131.73 304.72 139.34 304.72 143.15 298.13 139.34 291.53" style="fill:#95d4e9"/><polygon points="139.34 269.5 131.73 269.5 127.93 276.1 131.73 282.69 139.34 282.69 143.15 276.1 139.34 269.5" style="fill:#95d4e9"/><polygon points="139.34 247.48 131.73 247.48 127.93 254.07 131.73 260.66 139.34 260.66 143.15 254.07 139.34 247.48" style="fill:#95d4e9"/><polygon points="139.34 225.45 131.73 225.45 127.93 232.04 131.73 238.63 139.34 238.63 143.15 232.04 139.34 225.45" style="fill:#95d4e9"/><polygon points="139.34 203.42 131.73 203.42 127.93 210.01 131.73 216.6 139.34 216.6 143.15 210.01 139.34 203.42" style="fill:#95d4e9"/><polygon points="139.34 181.39 131.73 181.39 127.93 187.98 131.73 194.57 139.34 194.57 143.15 187.98 139.34 181.39" style="fill:#95d4e9"/><polygon points="139.34 159.36 131.73 159.36 127.93 165.95 131.73 172.54 139.34 172.54 143.15 165.95 139.34 159.36" style="fill:#95d4e9"/><polygon points="139.34 137.33 131.73 137.33 127.93 143.92 131.73 150.51 139.34 150.51 143.15 143.92 139.34 137.33" style="fill:#95d4e9"/><polygon points="139.34 115.3 131.73 115.3 127.93 121.89 131.73 128.49 139.34 128.49 143.15 121.89 139.34 115.3" style="fill:#95d4e9"/><polygon points="139.34 93.27 131.73 93.27 127.93 99.86 131.73 106.45 139.34 106.45 143.15 99.86 139.34 93.27" style="fill:#95d4e9"/></g><g style="opacity:0.5"><polygon points="158.8 676.02 151.19 676.02 147.39 682.61 151.19 689.2 158.8 689.2 162.61 682.61 158.8 676.02" style="fill:#95d4e9"/><polygon points="158.8 653.99 151.19 653.99 147.39 660.58 151.19 667.17 158.8 667.17 162.61 660.58 158.8 653.99" style="fill:#95d4e9"/><polygon points="158.8 631.96 151.19 631.96 147.39 638.55 151.19 645.14 158.8 645.14 162.61 638.55 158.8 631.96" style="fill:#95d4e9"/><polygon points="158.8 609.93 151.19 609.93 147.39 616.52 151.19 623.12 158.8 623.12 162.61 616.52 158.8 609.93" style="fill:#95d4e9"/><polygon points="158.8 587.9 151.19 587.9 147.39 594.49 151.19 601.09 158.8 601.09 162.61 594.49 158.8 587.9" style="fill:#95d4e9"/><polygon points="158.8 565.87 151.19 565.87 147.39 572.47 151.19 579.06 158.8 579.06 162.61 572.47 158.8 565.87" style="fill:#95d4e9"/><polygon points="158.8 543.84 151.19 543.84 147.39 550.44 151.19 557.03 158.8 557.03 162.61 550.44 158.8 543.84" style="fill:#95d4e9"/><polygon points="158.8 521.82 151.19 521.82 147.39 528.41 151.19 535 158.8 535 162.61 528.41 158.8 521.82" style="fill:#95d4e9"/><polygon points="158.8 499.79 151.19 499.79 147.39 506.38 151.19 512.97 158.8 512.97 162.61 506.38 158.8 499.79" style="fill:#95d4e9"/><polygon points="158.8 477.76 151.19 477.76 147.39 484.35 151.19 490.94 158.8 490.94 162.61 484.35 158.8 477.76" style="fill:#95d4e9"/><polygon points="158.8 455.73 151.19 455.73 147.39 462.32 151.19 468.91 158.8 468.91 162.61 462.32 158.8 455.73" style="fill:#95d4e9"/><polygon points="158.8 433.7 151.19 433.7 147.39 440.29 151.19 446.88 158.8 446.88 162.61 440.29 158.8 433.7" style="fill:#95d4e9"/><polygon points="158.8 411.67 151.19 411.67 147.39 418.26 151.19 424.85 158.8 424.85 162.61 418.26 158.8 411.67" style="fill:#95d4e9"/><polygon points="158.8 389.64 151.19 389.64 147.39 396.23 151.19 402.82 158.8 402.82 162.61 396.23 158.8 389.64" style="fill:#95d4e9"/><polygon points="158.8 367.61 151.19 367.61 147.39 374.2 151.19 380.8 158.8 380.8 162.61 374.2 158.8 367.61" style="fill:#95d4e9"/><polygon points="158.8 345.58 151.19 345.58 147.39 352.17 151.19 358.76 158.8 358.76 162.61 352.17 158.8 345.58" style="fill:#95d4e9"/><polygon points="158.8 323.55 151.19 323.55 147.39 330.14 151.19 336.74 158.8 336.74 162.61 330.14 158.8 323.55" style="fill:#95d4e9"/><polygon points="158.8 301.52 151.19 301.52 147.39 308.12 151.19 314.71 158.8 314.71 162.61 308.12 158.8 301.52" style="fill:#95d4e9"/><polygon points="158.8 279.49 151.19 279.49 147.39 286.09 151.19 292.68 158.8 292.68 162.61 286.09 158.8 279.49" style="fill:#95d4e9"/><polygon points="158.8 257.46 151.19 257.46 147.39 264.06 151.19 270.65 158.8 270.65 162.61 264.06 158.8 257.46" style="fill:#95d4e9"/><polygon points="158.8 235.44 151.19 235.44 147.39 242.03 151.19 248.62 158.8 248.62 162.61 242.03 158.8 235.44" style="fill:#95d4e9"/><polygon points="158.8 213.41 151.19 213.41 147.39 220 151.19 226.59 158.8 226.59 162.61 220 158.8 213.41" style="fill:#95d4e9"/><polygon points="158.8 191.38 151.19 191.38 147.39 197.97 151.19 204.56 158.8 204.56 162.61 197.97 158.8 191.38" style="fill:#95d4e9"/><polygon points="158.8 169.35 151.19 169.35 147.39 175.94 151.19 182.53 158.8 182.53 162.61 175.94 158.8 169.35" style="fill:#95d4e9"/><polygon points="158.8 147.32 151.19 147.32 147.39 153.91 151.19 160.5 158.8 160.5 162.61 153.91 158.8 147.32" style="fill:#95d4e9"/><polygon points="158.8 125.29 151.19 125.29 147.39 131.88 151.19 138.47 158.8 138.47 162.61 131.88 158.8 125.29" style="fill:#95d4e9"/><polygon points="158.8 103.26 151.19 103.26 147.39 109.85 151.19 116.44 158.8 116.44 162.61 109.85 158.8 103.26" style="fill:#95d4e9"/><polygon points="158.8 81.23 151.19 81.23 147.39 87.82 151.19 94.42 158.8 94.42 162.61 87.82 158.8 81.23" style="fill:#95d4e9"/></g><g style="opacity:0.5"><polygon points="178.29 688.06 170.68 688.06 166.87 694.65 170.68 701.24 178.29 701.24 182.1 694.65 178.29 688.06" style="fill:#95d4e9"/><polygon points="178.29 666.03 170.68 666.03 166.87 672.62 170.68 679.22 178.29 679.22 182.1 672.62 178.29 666.03" style="fill:#95d4e9"/><polygon points="178.29 644 170.68 644 166.87 650.59 170.68 657.18 178.29 657.18 182.1 650.59 178.29 644" style="fill:#95d4e9"/><polygon points="178.29 621.97 170.68 621.97 166.87 628.56 170.68 635.16 178.29 635.16 182.1 628.56 178.29 621.97" style="fill:#95d4e9"/><polygon points="178.29 599.94 170.68 599.94 166.87 606.53 170.68 613.13 178.29 613.13 182.1 606.53 178.29 599.94" style="fill:#95d4e9"/><polygon points="178.29 577.91 170.68 577.91 166.87 584.51 170.68 591.1 178.29 591.1 182.1 584.51 178.29 577.91" style="fill:#95d4e9"/><polygon points="178.29 555.88 170.68 555.88 166.87 562.48 170.68 569.07 178.29 569.07 182.1 562.48 178.29 555.88" style="fill:#95d4e9"/><polygon points="178.29 533.86 170.68 533.86 166.87 540.45 170.68 547.04 178.29 547.04 182.1 540.45 178.29 533.86" style="fill:#95d4e9"/><polygon points="178.29 511.83 170.68 511.83 166.87 518.42 170.68 525.01 178.29 525.01 182.1 518.42 178.29 511.83" style="fill:#95d4e9"/><polygon points="178.29 489.8 170.68 489.8 166.87 496.39 170.68 502.98 178.29 502.98 182.1 496.39 178.29 489.8" style="fill:#95d4e9"/><polygon points="178.29 467.77 170.68 467.77 166.87 474.36 170.68 480.95 178.29 480.95 182.1 474.36 178.29 467.77" style="fill:#95d4e9"/><polygon points="178.29 445.74 170.68 445.74 166.87 452.33 170.68 458.92 178.29 458.92 182.1 452.33 178.29 445.74" style="fill:#95d4e9"/><polygon points="178.29 423.71 170.68 423.71 166.87 430.3 170.68 436.89 178.29 436.89 182.1 430.3 178.29 423.71" style="fill:#95d4e9"/><polygon points="178.29 401.68 170.68 401.68 166.87 408.27 170.68 414.86 178.29 414.86 182.1 408.27 178.29 401.68" style="fill:#95d4e9"/><polygon points="178.29 379.65 170.68 379.65 166.87 386.24 170.68 392.83 178.29 392.83 182.1 386.24 178.29 379.65" style="fill:#95d4e9"/><polygon points="178.29 357.62 170.68 357.62 166.87 364.21 170.68 370.81 178.29 370.81 182.1 364.21 178.29 357.62" style="fill:#95d4e9"/><polygon points="178.29 335.59 170.68 335.59 166.87 342.18 170.68 348.78 178.29 348.78 182.1 342.18 178.29 335.59" style="fill:#95d4e9"/><polygon points="178.29 313.56 170.68 313.56 166.87 320.15 170.68 326.75 178.29 326.75 182.1 320.15 178.29 313.56" style="fill:#95d4e9"/><polygon points="178.29 291.53 170.68 291.53 166.87 298.13 170.68 304.72 178.29 304.72 182.1 298.13 178.29 291.53" style="fill:#95d4e9"/><polygon points="178.29 269.5 170.68 269.5 166.87 276.1 170.68 282.69 178.29 282.69 182.1 276.1 178.29 269.5" style="fill:#95d4e9"/><polygon points="178.29 247.48 170.68 247.48 166.87 254.07 170.68 260.66 178.29 260.66 182.1 254.07 178.29 247.48" style="fill:#95d4e9"/><polygon points="178.29 225.45 170.68 225.45 166.87 232.04 170.68 238.63 178.29 238.63 182.1 232.04 178.29 225.45" style="fill:#95d4e9"/><polygon points="178.29 203.42 170.68 203.42 166.87 210.01 170.68 216.6 178.29 216.6 182.1 210.01 178.29 203.42" style="fill:#95d4e9"/><polygon points="178.29 181.39 170.68 181.39 166.87 187.98 170.68 194.57 178.29 194.57 182.1 187.98 178.29 181.39" style="fill:#95d4e9"/><polygon points="178.29 159.36 170.68 159.36 166.87 165.95 170.68 172.54 178.29 172.54 182.1 165.95 178.29 159.36" style="fill:#95d4e9"/><polygon points="178.29 137.33 170.68 137.33 166.87 143.92 170.68 150.51 178.29 150.51 182.1 143.92 178.29 137.33" style="fill:#95d4e9"/><polygon points="178.29 115.3 170.68 115.3 166.87 121.89 170.68 128.49 178.29 128.49 182.1 121.89 178.29 115.3" style="fill:#95d4e9"/><polygon points="178.29 93.27 170.68 93.27 166.87 99.86 170.68 106.45 178.29 106.45 182.1 99.86 178.29 93.27" style="fill:#95d4e9"/></g><g style="opacity:0.5"><polygon points="197.75 676.02 190.14 676.02 186.33 682.61 190.14 689.2 197.75 689.2 201.56 682.61 197.75 676.02" style="fill:#95d4e9"/><polygon points="197.75 653.99 190.14 653.99 186.33 660.58 190.14 667.17 197.75 667.17 201.56 660.58 197.75 653.99" style="fill:#95d4e9"/><polygon points="197.75 631.96 190.14 631.96 186.33 638.55 190.14 645.14 197.75 645.14 201.56 638.55 197.75 631.96" style="fill:#95d4e9"/><polygon points="197.75 609.93 190.14 609.93 186.33 616.52 190.14 623.12 197.75 623.12 201.56 616.52 197.75 609.93" style="fill:#95d4e9"/><polygon points="197.75 587.9 190.14 587.9 186.33 594.49 190.14 601.09 197.75 601.09 201.56 594.49 197.75 587.9" style="fill:#95d4e9"/><polygon points="197.75 565.87 190.14 565.87 186.33 572.47 190.14 579.06 197.75 579.06 201.56 572.47 197.75 565.87" style="fill:#95d4e9"/><polygon points="197.75 543.84 190.14 543.84 186.33 550.44 190.14 557.03 197.75 557.03 201.56 550.44 197.75 543.84" style="fill:#95d4e9"/><polygon points="197.75 521.82 190.14 521.82 186.33 528.41 190.14 535 197.75 535 201.56 528.41 197.75 521.82" style="fill:#95d4e9"/><polygon points="197.75 499.79 190.14 499.79 186.33 506.38 190.14 512.97 197.75 512.97 201.56 506.38 197.75 499.79" style="fill:#95d4e9"/><polygon points="197.75 477.76 190.14 477.76 186.33 484.35 190.14 490.94 197.75 490.94 201.56 484.35 197.75 477.76" style="fill:#95d4e9"/><polygon points="197.75 455.73 190.14 455.73 186.33 462.32 190.14 468.91 197.75 468.91 201.56 462.32 197.75 455.73" style="fill:#95d4e9"/><polygon points="197.75 433.7 190.14 433.7 186.33 440.29 190.14 446.88 197.75 446.88 201.56 440.29 197.75 433.7" style="fill:#95d4e9"/><polygon points="197.75 411.67 190.14 411.67 186.33 418.26 190.14 424.85 197.75 424.85 201.56 418.26 197.75 411.67" style="fill:#95d4e9"/><polygon points="197.75 389.64 190.14 389.64 186.33 396.23 190.14 402.82 197.75 402.82 201.56 396.23 197.75 389.64" style="fill:#95d4e9"/><polygon points="197.75 367.61 190.14 367.61 186.33 374.2 190.14 380.8 197.75 380.8 201.56 374.2 197.75 367.61" style="fill:#95d4e9"/><polygon points="197.75 345.58 190.14 345.58 186.33 352.17 190.14 358.76 197.75 358.76 201.56 352.17 197.75 345.58" style="fill:#95d4e9"/><polygon points="197.75 323.55 190.14 323.55 186.33 330.14 190.14 336.74 197.75 336.74 201.56 330.14 197.75 323.55" style="fill:#95d4e9"/><polygon points="197.75 301.52 190.14 301.52 186.33 308.12 190.14 314.71 197.75 314.71 201.56 308.12 197.75 301.52" style="fill:#95d4e9"/><polygon points="197.75 279.49 190.14 279.49 186.33 286.09 190.14 292.68 197.75 292.68 201.56 286.09 197.75 279.49" style="fill:#95d4e9"/><polygon points="197.75 257.46 190.14 257.46 186.33 264.06 190.14 270.65 197.75 270.65 201.56 264.06 197.75 257.46" style="fill:#95d4e9"/><polygon points="197.75 235.44 190.14 235.44 186.33 242.03 190.14 248.62 197.75 248.62 201.56 242.03 197.75 235.44" style="fill:#95d4e9"/><polygon points="197.75 213.41 190.14 213.41 186.33 220 190.14 226.59 197.75 226.59 201.56 220 197.75 213.41" style="fill:#95d4e9"/><polygon points="197.75 191.38 190.14 191.38 186.33 197.97 190.14 204.56 197.75 204.56 201.56 197.97 197.75 191.38" style="fill:#95d4e9"/><polygon points="197.75 169.35 190.14 169.35 186.33 175.94 190.14 182.53 197.75 182.53 201.56 175.94 197.75 169.35" style="fill:#95d4e9"/><polygon points="197.75 147.32 190.14 147.32 186.33 153.91 190.14 160.5 197.75 160.5 201.56 153.91 197.75 147.32" style="fill:#95d4e9"/><polygon points="197.75 125.29 190.14 125.29 186.33 131.88 190.14 138.47 197.75 138.47 201.56 131.88 197.75 125.29" style="fill:#95d4e9"/><polygon points="197.75 103.26 190.14 103.26 186.33 109.85 190.14 116.44 197.75 116.44 201.56 109.85 197.75 103.26" style="fill:#95d4e9"/><polygon points="197.75 81.23 190.14 81.23 186.33 87.82 190.14 94.42 197.75 94.42 201.56 87.82 197.75 81.23" style="fill:#95d4e9"/></g><g style="opacity:0.5"><polygon points="217.24 688.06 209.62 688.06 205.82 694.65 209.62 701.24 217.24 701.24 221.04 694.65 217.24 688.06" style="fill:#95d4e9"/><polygon points="217.24 666.03 209.62 666.03 205.82 672.62 209.62 679.22 217.24 679.22 221.04 672.62 217.24 666.03" style="fill:#95d4e9"/><polygon points="217.24 644 209.62 644 205.82 650.59 209.62 657.18 217.24 657.18 221.04 650.59 217.24 644" style="fill:#95d4e9"/><polygon points="217.24 621.97 209.62 621.97 205.82 628.56 209.62 635.16 217.24 635.16 221.04 628.56 217.24 621.97" style="fill:#95d4e9"/><polygon points="217.24 599.94 209.62 599.94 205.82 606.53 209.62 613.13 217.24 613.13 221.04 606.53 217.24 599.94" style="fill:#95d4e9"/><polygon points="217.24 577.91 209.62 577.91 205.82 584.51 209.62 591.1 217.24 591.1 221.04 584.51 217.24 577.91" style="fill:#95d4e9"/><polygon points="217.24 555.88 209.62 555.88 205.82 562.48 209.62 569.07 217.24 569.07 221.04 562.48 217.24 555.88" style="fill:#95d4e9"/><polygon points="217.24 533.86 209.62 533.86 205.82 540.45 209.62 547.04 217.24 547.04 221.04 540.45 217.24 533.86" style="fill:#95d4e9"/><polygon points="217.24 511.83 209.62 511.83 205.82 518.42 209.62 525.01 217.24 525.01 221.04 518.42 217.24 511.83" style="fill:#95d4e9"/><polygon points="217.24 489.8 209.62 489.8 205.82 496.39 209.62 502.98 217.24 502.98 221.04 496.39 217.24 489.8" style="fill:#95d4e9"/><polygon points="217.24 467.77 209.62 467.77 205.82 474.36 209.62 480.95 217.24 480.95 221.04 474.36 217.24 467.77" style="fill:#95d4e9"/><polygon points="217.24 445.74 209.62 445.74 205.82 452.33 209.62 458.92 217.24 458.92 221.04 452.33 217.24 445.74" style="fill:#95d4e9"/><polygon points="217.24 423.71 209.62 423.71 205.82 430.3 209.62 436.89 217.24 436.89 221.04 430.3 217.24 423.71" style="fill:#95d4e9"/><polygon points="217.24 401.68 209.62 401.68 205.82 408.27 209.62 414.86 217.24 414.86 221.04 408.27 217.24 401.68" style="fill:#95d4e9"/><polygon points="217.24 379.65 209.62 379.65 205.82 386.24 209.62 392.83 217.24 392.83 221.04 386.24 217.24 379.65" style="fill:#95d4e9"/><polygon points="217.24 357.62 209.62 357.62 205.82 364.21 209.62 370.81 217.24 370.81 221.04 364.21 217.24 357.62" style="fill:#95d4e9"/><polygon points="217.24 335.59 209.62 335.59 205.82 342.18 209.62 348.78 217.24 348.78 221.04 342.18 217.24 335.59" style="fill:#95d4e9"/><polygon points="217.24 313.56 209.62 313.56 205.82 320.15 209.62 326.75 217.24 326.75 221.04 320.15 217.24 313.56" style="fill:#95d4e9"/><polygon points="217.24 291.53 209.62 291.53 205.82 298.13 209.62 304.72 217.24 304.72 221.04 298.13 217.24 291.53" style="fill:#95d4e9"/><polygon points="217.24 269.5 209.62 269.5 205.82 276.1 209.62 282.69 217.24 282.69 221.04 276.1 217.24 269.5" style="fill:#95d4e9"/><polygon points="217.24 247.48 209.62 247.48 205.82 254.07 209.62 260.66 217.24 260.66 221.04 254.07 217.24 247.48" style="fill:#95d4e9"/><polygon points="217.24 225.45 209.62 225.45 205.82 232.04 209.62 238.63 217.24 238.63 221.04 232.04 217.24 225.45" style="fill:#95d4e9"/><polygon points="217.24 203.42 209.62 203.42 205.82 210.01 209.62 216.6 217.24 216.6 221.04 210.01 217.24 203.42" style="fill:#95d4e9"/><polygon points="217.24 181.39 209.62 181.39 205.82 187.98 209.62 194.57 217.24 194.57 221.04 187.98 217.24 181.39" style="fill:#95d4e9"/><polygon points="217.24 159.36 209.62 159.36 205.82 165.95 209.62 172.54 217.24 172.54 221.04 165.95 217.24 159.36" style="fill:#95d4e9"/><polygon points="217.24 137.33 209.62 137.33 205.82 143.92 209.62 150.51 217.24 150.51 221.04 143.92 217.24 137.33" style="fill:#95d4e9"/><polygon points="217.24 115.3 209.62 115.3 205.82 121.89 209.62 128.49 217.24 128.49 221.04 121.89 217.24 115.3" style="fill:#95d4e9"/><polygon points="217.24 93.27 209.62 93.27 205.82 99.86 209.62 106.45 217.24 106.45 221.04 99.86 217.24 93.27" style="fill:#95d4e9"/></g><g style="opacity:0.5"><polygon points="236.69 676.02 229.08 676.02 225.28 682.61 229.08 689.2 236.69 689.2 240.5 682.61 236.69 676.02" style="fill:#95d4e9"/><polygon points="236.69 653.99 229.08 653.99 225.28 660.58 229.08 667.17 236.69 667.17 240.5 660.58 236.69 653.99" style="fill:#95d4e9"/><polygon points="236.69 631.96 229.08 631.96 225.28 638.55 229.08 645.14 236.69 645.14 240.5 638.55 236.69 631.96" style="fill:#95d4e9"/><polygon points="236.69 609.93 229.08 609.93 225.28 616.52 229.08 623.12 236.69 623.12 240.5 616.52 236.69 609.93" style="fill:#95d4e9"/><polygon points="236.69 587.9 229.08 587.9 225.28 594.49 229.08 601.09 236.69 601.09 240.5 594.49 236.69 587.9" style="fill:#95d4e9"/><polygon points="236.69 565.87 229.08 565.87 225.28 572.47 229.08 579.06 236.69 579.06 240.5 572.47 236.69 565.87" style="fill:#95d4e9"/><polygon points="236.69 543.84 229.08 543.84 225.28 550.44 229.08 557.03 236.69 557.03 240.5 550.44 236.69 543.84" style="fill:#95d4e9"/><polygon points="236.69 521.82 229.08 521.82 225.28 528.41 229.08 535 236.69 535 240.5 528.41 236.69 521.82" style="fill:#95d4e9"/><polygon points="236.69 499.79 229.08 499.79 225.28 506.38 229.08 512.97 236.69 512.97 240.5 506.38 236.69 499.79" style="fill:#95d4e9"/><polygon points="236.69 477.76 229.08 477.76 225.28 484.35 229.08 490.94 236.69 490.94 240.5 484.35 236.69 477.76" style="fill:#95d4e9"/><polygon points="236.69 455.73 229.08 455.73 225.28 462.32 229.08 468.91 236.69 468.91 240.5 462.32 236.69 455.73" style="fill:#95d4e9"/><polygon points="236.69 433.7 229.08 433.7 225.28 440.29 229.08 446.88 236.69 446.88 240.5 440.29 236.69 433.7" style="fill:#95d4e9"/><polygon points="236.69 411.67 229.08 411.67 225.28 418.26 229.08 424.85 236.69 424.85 240.5 418.26 236.69 411.67" style="fill:#95d4e9"/><polygon points="236.69 389.64 229.08 389.64 225.28 396.23 229.08 402.82 236.69 402.82 240.5 396.23 236.69 389.64" style="fill:#95d4e9"/><polygon points="236.69 367.61 229.08 367.61 225.28 374.2 229.08 380.8 236.69 380.8 240.5 374.2 236.69 367.61" style="fill:#95d4e9"/><polygon points="236.69 345.58 229.08 345.58 225.28 352.17 229.08 358.76 236.69 358.76 240.5 352.17 236.69 345.58" style="fill:#95d4e9"/><polygon points="236.69 323.55 229.08 323.55 225.28 330.14 229.08 336.74 236.69 336.74 240.5 330.14 236.69 323.55" style="fill:#95d4e9"/><polygon points="236.69 301.52 229.08 301.52 225.28 308.12 229.08 314.71 236.69 314.71 240.5 308.12 236.69 301.52" style="fill:#95d4e9"/><polygon points="236.69 279.49 229.08 279.49 225.28 286.09 229.08 292.68 236.69 292.68 240.5 286.09 236.69 279.49" style="fill:#95d4e9"/><polygon points="236.69 257.46 229.08 257.46 225.28 264.06 229.08 270.65 236.69 270.65 240.5 264.06 236.69 257.46" style="fill:#95d4e9"/><polygon points="236.69 235.44 229.08 235.44 225.28 242.03 229.08 248.62 236.69 248.62 240.5 242.03 236.69 235.44" style="fill:#95d4e9"/><polygon points="236.69 213.41 229.08 213.41 225.28 220 229.08 226.59 236.69 226.59 240.5 220 236.69 213.41" style="fill:#95d4e9"/><polygon points="236.69 191.38 229.08 191.38 225.28 197.97 229.08 204.56 236.69 204.56 240.5 197.97 236.69 191.38" style="fill:#95d4e9"/><polygon points="236.69 169.35 229.08 169.35 225.28 175.94 229.08 182.53 236.69 182.53 240.5 175.94 236.69 169.35" style="fill:#95d4e9"/><polygon points="236.69 147.32 229.08 147.32 225.28 153.91 229.08 160.5 236.69 160.5 240.5 153.91 236.69 147.32" style="fill:#95d4e9"/><polygon points="236.69 125.29 229.08 125.29 225.28 131.88 229.08 138.47 236.69 138.47 240.5 131.88 236.69 125.29" style="fill:#95d4e9"/><polygon points="236.69 103.26 229.08 103.26 225.28 109.85 229.08 116.44 236.69 116.44 240.5 109.85 236.69 103.26" style="fill:#95d4e9"/><polygon points="236.69 81.23 229.08 81.23 225.28 87.82 229.08 94.42 236.69 94.42 240.5 87.82 236.69 81.23" style="fill:#95d4e9"/></g><g style="opacity:0.5"><polygon points="256.18 688.06 248.57 688.06 244.76 694.65 248.57 701.24 256.18 701.24 259.99 694.65 256.18 688.06" style="fill:#95d4e9"/><polygon points="256.18 666.03 248.57 666.03 244.76 672.62 248.57 679.22 256.18 679.22 259.99 672.62 256.18 666.03" style="fill:#95d4e9"/><polygon points="256.18 644 248.57 644 244.76 650.59 248.57 657.18 256.18 657.18 259.99 650.59 256.18 644" style="fill:#95d4e9"/><polygon points="256.18 621.97 248.57 621.97 244.76 628.56 248.57 635.16 256.18 635.16 259.99 628.56 256.18 621.97" style="fill:#95d4e9"/><polygon points="256.18 599.94 248.57 599.94 244.76 606.53 248.57 613.13 256.18 613.13 259.99 606.53 256.18 599.94" style="fill:#95d4e9"/><polygon points="256.18 577.91 248.57 577.91 244.76 584.51 248.57 591.1 256.18 591.1 259.99 584.51 256.18 577.91" style="fill:#95d4e9"/><polygon points="256.18 555.88 248.57 555.88 244.76 562.48 248.57 569.07 256.18 569.07 259.99 562.48 256.18 555.88" style="fill:#95d4e9"/><polygon points="256.18 533.86 248.57 533.86 244.76 540.45 248.57 547.04 256.18 547.04 259.99 540.45 256.18 533.86" style="fill:#95d4e9"/><polygon points="256.18 511.83 248.57 511.83 244.76 518.42 248.57 525.01 256.18 525.01 259.99 518.42 256.18 511.83" style="fill:#95d4e9"/><polygon points="256.18 489.8 248.57 489.8 244.76 496.39 248.57 502.98 256.18 502.98 259.99 496.39 256.18 489.8" style="fill:#95d4e9"/><polygon points="256.18 467.77 248.57 467.77 244.76 474.36 248.57 480.95 256.18 480.95 259.99 474.36 256.18 467.77" style="fill:#95d4e9"/><polygon points="256.18 445.74 248.57 445.74 244.76 452.33 248.57 458.92 256.18 458.92 259.99 452.33 256.18 445.74" style="fill:#95d4e9"/><polygon points="256.18 423.71 248.57 423.71 244.76 430.3 248.57 436.89 256.18 436.89 259.99 430.3 256.18 423.71" style="fill:#95d4e9"/><polygon points="256.18 401.68 248.57 401.68 244.76 408.27 248.57 414.86 256.18 414.86 259.99 408.27 256.18 401.68" style="fill:#95d4e9"/><polygon points="256.18 379.65 248.57 379.65 244.76 386.24 248.57 392.83 256.18 392.83 259.99 386.24 256.18 379.65" style="fill:#95d4e9"/><polygon points="256.18 357.62 248.57 357.62 244.76 364.21 248.57 370.81 256.18 370.81 259.99 364.21 256.18 357.62" style="fill:#95d4e9"/><polygon points="256.18 335.59 248.57 335.59 244.76 342.18 248.57 348.78 256.18 348.78 259.99 342.18 256.18 335.59" style="fill:#95d4e9"/><polygon points="256.18 313.56 248.57 313.56 244.76 320.15 248.57 326.75 256.18 326.75 259.99 320.15 256.18 313.56" style="fill:#95d4e9"/><polygon points="256.18 291.53 248.57 291.53 244.76 298.13 248.57 304.72 256.18 304.72 259.99 298.13 256.18 291.53" style="fill:#95d4e9"/><polygon points="256.18 269.5 248.57 269.5 244.76 276.1 248.57 282.69 256.18 282.69 259.99 276.1 256.18 269.5" style="fill:#95d4e9"/><polygon points="256.18 247.48 248.57 247.48 244.76 254.07 248.57 260.66 256.18 260.66 259.99 254.07 256.18 247.48" style="fill:#95d4e9"/><polygon points="256.18 225.45 248.57 225.45 244.76 232.04 248.57 238.63 256.18 238.63 259.99 232.04 256.18 225.45" style="fill:#95d4e9"/><polygon points="256.18 203.42 248.57 203.42 244.76 210.01 248.57 216.6 256.18 216.6 259.99 210.01 256.18 203.42" style="fill:#95d4e9"/><polygon points="256.18 181.39 248.57 181.39 244.76 187.98 248.57 194.57 256.18 194.57 259.99 187.98 256.18 181.39" style="fill:#95d4e9"/><polygon points="256.18 159.36 248.57 159.36 244.76 165.95 248.57 172.54 256.18 172.54 259.99 165.95 256.18 159.36" style="fill:#95d4e9"/><polygon points="256.18 137.33 248.57 137.33 244.76 143.92 248.57 150.51 256.18 150.51 259.99 143.92 256.18 137.33" style="fill:#95d4e9"/><polygon points="256.18 115.3 248.57 115.3 244.76 121.89 248.57 128.49 256.18 128.49 259.99 121.89 256.18 115.3" style="fill:#95d4e9"/><polygon points="256.18 93.27 248.57 93.27 244.76 99.86 248.57 106.45 256.18 106.45 259.99 99.86 256.18 93.27" style="fill:#95d4e9"/></g><g style="opacity:0.5"><polygon points="275.64 676.02 268.03 676.02 264.22 682.61 268.03 689.2 275.64 689.2 279.45 682.61 275.64 676.02" style="fill:#95d4e9"/><polygon points="275.64 653.99 268.03 653.99 264.22 660.58 268.03 667.17 275.64 667.17 279.45 660.58 275.64 653.99" style="fill:#95d4e9"/><polygon points="275.64 631.96 268.03 631.96 264.22 638.55 268.03 645.14 275.64 645.14 279.45 638.55 275.64 631.96" style="fill:#95d4e9"/><polygon points="275.64 609.93 268.03 609.93 264.22 616.52 268.03 623.12 275.64 623.12 279.45 616.52 275.64 609.93" style="fill:#95d4e9"/><polygon points="275.64 587.9 268.03 587.9 264.22 594.49 268.03 601.09 275.64 601.09 279.45 594.49 275.64 587.9" style="fill:#95d4e9"/><polygon points="275.64 565.87 268.03 565.87 264.22 572.47 268.03 579.06 275.64 579.06 279.45 572.47 275.64 565.87" style="fill:#95d4e9"/><polygon points="275.64 543.84 268.03 543.84 264.22 550.44 268.03 557.03 275.64 557.03 279.45 550.44 275.64 543.84" style="fill:#95d4e9"/><polygon points="275.64 521.82 268.03 521.82 264.22 528.41 268.03 535 275.64 535 279.45 528.41 275.64 521.82" style="fill:#95d4e9"/><polygon points="275.64 499.79 268.03 499.79 264.22 506.38 268.03 512.97 275.64 512.97 279.45 506.38 275.64 499.79" style="fill:#95d4e9"/><polygon points="275.64 477.76 268.03 477.76 264.22 484.35 268.03 490.94 275.64 490.94 279.45 484.35 275.64 477.76" style="fill:#95d4e9"/><polygon points="275.64 455.73 268.03 455.73 264.22 462.32 268.03 468.91 275.64 468.91 279.45 462.32 275.64 455.73" style="fill:#95d4e9"/><polygon points="275.64 433.7 268.03 433.7 264.22 440.29 268.03 446.88 275.64 446.88 279.45 440.29 275.64 433.7" style="fill:#95d4e9"/><polygon points="275.64 411.67 268.03 411.67 264.22 418.26 268.03 424.85 275.64 424.85 279.45 418.26 275.64 411.67" style="fill:#95d4e9"/><polygon points="275.64 389.64 268.03 389.64 264.22 396.23 268.03 402.82 275.64 402.82 279.45 396.23 275.64 389.64" style="fill:#95d4e9"/><polygon points="275.64 367.61 268.03 367.61 264.22 374.2 268.03 380.8 275.64 380.8 279.45 374.2 275.64 367.61" style="fill:#95d4e9"/><polygon points="275.64 345.58 268.03 345.58 264.22 352.17 268.03 358.76 275.64 358.76 279.45 352.17 275.64 345.58" style="fill:#95d4e9"/><polygon points="275.64 323.55 268.03 323.55 264.22 330.14 268.03 336.74 275.64 336.74 279.45 330.14 275.64 323.55" style="fill:#95d4e9"/><polygon points="275.64 301.52 268.03 301.52 264.22 308.12 268.03 314.71 275.64 314.71 279.45 308.12 275.64 301.52" style="fill:#95d4e9"/><polygon points="275.64 279.49 268.03 279.49 264.22 286.09 268.03 292.68 275.64 292.68 279.45 286.09 275.64 279.49" style="fill:#95d4e9"/><polygon points="275.64 257.46 268.03 257.46 264.22 264.06 268.03 270.65 275.64 270.65 279.45 264.06 275.64 257.46" style="fill:#95d4e9"/><polygon points="275.64 235.44 268.03 235.44 264.22 242.03 268.03 248.62 275.64 248.62 279.45 242.03 275.64 235.44" style="fill:#95d4e9"/><polygon points="275.64 213.41 268.03 213.41 264.22 220 268.03 226.59 275.64 226.59 279.45 220 275.64 213.41" style="fill:#95d4e9"/><polygon points="275.64 191.38 268.03 191.38 264.22 197.97 268.03 204.56 275.64 204.56 279.45 197.97 275.64 191.38" style="fill:#95d4e9"/><polygon points="275.64 169.35 268.03 169.35 264.22 175.94 268.03 182.53 275.64 182.53 279.45 175.94 275.64 169.35" style="fill:#95d4e9"/><polygon points="275.64 147.32 268.03 147.32 264.22 153.91 268.03 160.5 275.64 160.5 279.45 153.91 275.64 147.32" style="fill:#95d4e9"/><polygon points="275.64 125.29 268.03 125.29 264.22 131.88 268.03 138.47 275.64 138.47 279.45 131.88 275.64 125.29" style="fill:#95d4e9"/><polygon points="275.64 103.26 268.03 103.26 264.22 109.85 268.03 116.44 275.64 116.44 279.45 109.85 275.64 103.26" style="fill:#95d4e9"/><polygon points="275.64 81.23 268.03 81.23 264.22 87.82 268.03 94.42 275.64 94.42 279.45 87.82 275.64 81.23" style="fill:#95d4e9"/></g><g style="opacity:0.5"><polygon points="295.13 688.06 287.51 688.06 283.71 694.65 287.51 701.24 295.13 701.24 298.93 694.65 295.13 688.06" style="fill:#95d4e9"/><polygon points="295.13 666.03 287.51 666.03 283.71 672.62 287.51 679.22 295.13 679.22 298.93 672.62 295.13 666.03" style="fill:#95d4e9"/><polygon points="295.13 644 287.51 644 283.71 650.59 287.51 657.18 295.13 657.18 298.93 650.59 295.13 644" style="fill:#95d4e9"/><polygon points="295.13 621.97 287.51 621.97 283.71 628.56 287.51 635.16 295.13 635.16 298.93 628.56 295.13 621.97" style="fill:#95d4e9"/><polygon points="295.13 599.94 287.51 599.94 283.71 606.53 287.51 613.13 295.13 613.13 298.93 606.53 295.13 599.94" style="fill:#95d4e9"/><polygon points="295.13 577.91 287.51 577.91 283.71 584.51 287.51 591.1 295.13 591.1 298.93 584.51 295.13 577.91" style="fill:#95d4e9"/><polygon points="295.13 555.88 287.51 555.88 283.71 562.48 287.51 569.07 295.13 569.07 298.93 562.48 295.13 555.88" style="fill:#95d4e9"/><polygon points="295.13 533.86 287.51 533.86 283.71 540.45 287.51 547.04 295.13 547.04 298.93 540.45 295.13 533.86" style="fill:#95d4e9"/><polygon points="295.13 511.83 287.51 511.83 283.71 518.42 287.51 525.01 295.13 525.01 298.93 518.42 295.13 511.83" style="fill:#95d4e9"/><polygon points="295.13 489.8 287.51 489.8 283.71 496.39 287.51 502.98 295.13 502.98 298.93 496.39 295.13 489.8" style="fill:#95d4e9"/><polygon points="295.13 467.77 287.51 467.77 283.71 474.36 287.51 480.95 295.13 480.95 298.93 474.36 295.13 467.77" style="fill:#95d4e9"/><polygon points="295.13 445.74 287.51 445.74 283.71 452.33 287.51 458.92 295.13 458.92 298.93 452.33 295.13 445.74" style="fill:#95d4e9"/><polygon points="295.13 423.71 287.51 423.71 283.71 430.3 287.51 436.89 295.13 436.89 298.93 430.3 295.13 423.71" style="fill:#95d4e9"/><polygon points="295.13 401.68 287.51 401.68 283.71 408.27 287.51 414.86 295.13 414.86 298.93 408.27 295.13 401.68" style="fill:#95d4e9"/><polygon points="295.13 379.65 287.51 379.65 283.71 386.24 287.51 392.83 295.13 392.83 298.93 386.24 295.13 379.65" style="fill:#95d4e9"/><polygon points="295.13 357.62 287.51 357.62 283.71 364.21 287.51 370.81 295.13 370.81 298.93 364.21 295.13 357.62" style="fill:#95d4e9"/><polygon points="295.13 335.59 287.51 335.59 283.71 342.18 287.51 348.78 295.13 348.78 298.93 342.18 295.13 335.59" style="fill:#95d4e9"/><polygon points="295.13 313.56 287.51 313.56 283.71 320.15 287.51 326.75 295.13 326.75 298.93 320.15 295.13 313.56" style="fill:#95d4e9"/><polygon points="295.13 291.53 287.51 291.53 283.71 298.13 287.51 304.72 295.13 304.72 298.93 298.13 295.13 291.53" style="fill:#95d4e9"/><polygon points="295.13 269.5 287.51 269.5 283.71 276.1 287.51 282.69 295.13 282.69 298.93 276.1 295.13 269.5" style="fill:#95d4e9"/><polygon points="295.13 247.48 287.51 247.48 283.71 254.07 287.51 260.66 295.13 260.66 298.93 254.07 295.13 247.48" style="fill:#95d4e9"/><polygon points="295.13 225.45 287.51 225.45 283.71 232.04 287.51 238.63 295.13 238.63 298.93 232.04 295.13 225.45" style="fill:#95d4e9"/><polygon points="295.13 203.42 287.51 203.42 283.71 210.01 287.51 216.6 295.13 216.6 298.93 210.01 295.13 203.42" style="fill:#95d4e9"/><polygon points="295.13 181.39 287.51 181.39 283.71 187.98 287.51 194.57 295.13 194.57 298.93 187.98 295.13 181.39" style="fill:#95d4e9"/><polygon points="295.13 159.36 287.51 159.36 283.71 165.95 287.51 172.54 295.13 172.54 298.93 165.95 295.13 159.36" style="fill:#95d4e9"/><polygon points="295.13 137.33 287.51 137.33 283.71 143.92 287.51 150.51 295.13 150.51 298.93 143.92 295.13 137.33" style="fill:#95d4e9"/><polygon points="295.13 115.3 287.51 115.3 283.71 121.89 287.51 128.49 295.13 128.49 298.93 121.89 295.13 115.3" style="fill:#95d4e9"/><polygon points="295.13 93.27 287.51 93.27 283.71 99.86 287.51 106.45 295.13 106.45 298.93 99.86 295.13 93.27" style="fill:#95d4e9"/></g><g style="opacity:0.5"><polygon points="314.59 676.02 306.98 676.02 303.17 682.61 306.98 689.2 314.59 689.2 318.39 682.61 314.59 676.02" style="fill:#95d4e9"/><polygon points="314.59 653.99 306.98 653.99 303.17 660.58 306.98 667.17 314.59 667.17 318.39 660.58 314.59 653.99" style="fill:#95d4e9"/><polygon points="314.59 631.96 306.98 631.96 303.17 638.55 306.98 645.14 314.59 645.14 318.39 638.55 314.59 631.96" style="fill:#95d4e9"/><polygon points="314.59 609.93 306.98 609.93 303.17 616.52 306.98 623.12 314.59 623.12 318.39 616.52 314.59 609.93" style="fill:#95d4e9"/><polygon points="314.59 587.9 306.98 587.9 303.17 594.49 306.98 601.09 314.59 601.09 318.39 594.49 314.59 587.9" style="fill:#95d4e9"/><polygon points="314.59 565.87 306.98 565.87 303.17 572.47 306.98 579.06 314.59 579.06 318.39 572.47 314.59 565.87" style="fill:#95d4e9"/><polygon points="314.59 543.84 306.98 543.84 303.17 550.44 306.98 557.03 314.59 557.03 318.39 550.44 314.59 543.84" style="fill:#95d4e9"/><polygon points="314.59 521.82 306.98 521.82 303.17 528.41 306.98 535 314.59 535 318.39 528.41 314.59 521.82" style="fill:#95d4e9"/><polygon points="314.59 499.79 306.98 499.79 303.17 506.38 306.98 512.97 314.59 512.97 318.39 506.38 314.59 499.79" style="fill:#95d4e9"/><polygon points="314.59 477.76 306.98 477.76 303.17 484.35 306.98 490.94 314.59 490.94 318.39 484.35 314.59 477.76" style="fill:#95d4e9"/><polygon points="314.59 455.73 306.98 455.73 303.17 462.32 306.98 468.91 314.59 468.91 318.39 462.32 314.59 455.73" style="fill:#95d4e9"/><polygon points="314.59 433.7 306.98 433.7 303.17 440.29 306.98 446.88 314.59 446.88 318.39 440.29 314.59 433.7" style="fill:#95d4e9"/><polygon points="314.59 411.67 306.98 411.67 303.17 418.26 306.98 424.85 314.59 424.85 318.39 418.26 314.59 411.67" style="fill:#95d4e9"/><polygon points="314.59 389.64 306.98 389.64 303.17 396.23 306.98 402.82 314.59 402.82 318.39 396.23 314.59 389.64" style="fill:#95d4e9"/><polygon points="314.59 367.61 306.98 367.61 303.17 374.2 306.98 380.8 314.59 380.8 318.39 374.2 314.59 367.61" style="fill:#95d4e9"/><polygon points="314.59 345.58 306.98 345.58 303.17 352.17 306.98 358.76 314.59 358.76 318.39 352.17 314.59 345.58" style="fill:#95d4e9"/><polygon points="314.59 323.55 306.98 323.55 303.17 330.14 306.98 336.74 314.59 336.74 318.39 330.14 314.59 323.55" style="fill:#95d4e9"/><polygon points="314.59 301.52 306.98 301.52 303.17 308.12 306.98 314.71 314.59 314.71 318.39 308.12 314.59 301.52" style="fill:#95d4e9"/><polygon points="314.59 279.49 306.98 279.49 303.17 286.09 306.98 292.68 314.59 292.68 318.39 286.09 314.59 279.49" style="fill:#95d4e9"/><polygon points="314.59 257.46 306.98 257.46 303.17 264.06 306.98 270.65 314.59 270.65 318.39 264.06 314.59 257.46" style="fill:#95d4e9"/><polygon points="314.59 235.44 306.98 235.44 303.17 242.03 306.98 248.62 314.59 248.62 318.39 242.03 314.59 235.44" style="fill:#95d4e9"/><polygon points="314.59 213.41 306.98 213.41 303.17 220 306.98 226.59 314.59 226.59 318.39 220 314.59 213.41" style="fill:#95d4e9"/><polygon points="314.59 191.38 306.98 191.38 303.17 197.97 306.98 204.56 314.59 204.56 318.39 197.97 314.59 191.38" style="fill:#95d4e9"/><polygon points="314.59 169.35 306.98 169.35 303.17 175.94 306.98 182.53 314.59 182.53 318.39 175.94 314.59 169.35" style="fill:#95d4e9"/><polygon points="314.59 147.32 306.98 147.32 303.17 153.91 306.98 160.5 314.59 160.5 318.39 153.91 314.59 147.32" style="fill:#95d4e9"/><polygon points="314.59 125.29 306.98 125.29 303.17 131.88 306.98 138.47 314.59 138.47 318.39 131.88 314.59 125.29" style="fill:#95d4e9"/><polygon points="314.59 103.26 306.98 103.26 303.17 109.85 306.98 116.44 314.59 116.44 318.39 109.85 314.59 103.26" style="fill:#95d4e9"/><polygon points="314.59 81.23 306.98 81.23 303.17 87.82 306.98 94.42 314.59 94.42 318.39 87.82 314.59 81.23" style="fill:#95d4e9"/></g><path d="M236.35,341.14h2.92a17.58,17.58,0,0,1,17.59,17.56v57.81a17.57,17.57,0,0,1-17.59,17.56h-2.92l-8-.16H112.6A17.58,17.58,0,0,0,95,451.47V473.1" style="fill:none;stroke:#231f20;stroke-miterlimit:10;stroke-width:2.23090946674347px"/><path d="M250.65,532.44h-14.3v-2.23h14.3a16.48,16.48,0,0,0,16.47-16.45V255.2a16.47,16.47,0,0,0-16.47-16.44h-14.3v-2.23h14.3a18.7,18.7,0,0,1,18.7,18.67V513.76A18.71,18.71,0,0,1,250.65,532.44Z" style="fill:#231f20"/><path d="M308.79,1325.67H100.58a33.48,33.48,0,0,1-33.45-33.45V33.45A33.49,33.49,0,0,1,100.58,0H308.79a33.5,33.5,0,0,1,33.46,33.45V1292.22A33.49,33.49,0,0,1,308.79,1325.67ZM100.58,2.28A31.2,31.2,0,0,0,69.41,33.45V1292.22a31.2,31.2,0,0,0,31.17,31.17H308.79A31.21,31.21,0,0,0,340,1292.22V33.45A31.21,31.21,0,0,0,308.79,2.28Z" style="fill:#231f20"/><rect x="37.71" y="67.93" width="197.5" height="105.89" style="fill:#fff"/><path d="M236.33,174.94H36.6V66.82H236.33Zm-197.5-2.23H234.1V69.05H38.83Z" style="fill:#231f20"/><path d="M93.91,118.8,99,112.09h5.24l-6.47,7.7,7,8.56H99.36l-5.45-7h0v7H89.63V112.09h4.23v6.71Z"/><path d="M110.21,112.09v16.26H106V112.09Z"/><path d="M124.59,112.48v5.07a4.23,4.23,0,0,0-1.63-1.33,4.76,4.76,0,0,0-2.08-.46,4.07,4.07,0,0,0-3.12,1.29,4.54,4.54,0,0,0-1.21,3.22,4.33,4.33,0,0,0,1.22,3.18,4.28,4.28,0,0,0,3.18,1.24,4.55,4.55,0,0,0,2-.47,4.65,4.65,0,0,0,1.64-1.26V128a14.17,14.17,0,0,1-3.73.76,8.77,8.77,0,0,1-6.1-2.4,7.87,7.87,0,0,1-2.61-6.14,8.26,8.26,0,0,1,2.39-6,8.92,8.92,0,0,1,2.85-1.93,8.55,8.55,0,0,1,3.34-.7A10.19,10.19,0,0,1,124.59,112.48Z"/><path d="M131.47,118.8l5.11-6.71h5.24l-6.47,7.7,7.06,8.56h-5.48l-5.46-7h0v7H127.2V112.09h4.23v6.71Z"/><path d="M147.32,112.6a9.74,9.74,0,0,1,8.8,0,8.53,8.53,0,0,1,3.32,3,7.71,7.71,0,0,1,1.27,4.33,9,9,0,1,1-18,0,7.71,7.71,0,0,1,1.27-4.33A8.6,8.6,0,0,1,147.32,112.6ZM155,117a4.68,4.68,0,0,0-6.47,0,4,4,0,0,0-1.36,3,4.78,4.78,0,0,0,1.33,3.46,4.52,4.52,0,0,0,6.52,0,4.78,4.78,0,0,0,1.33-3.46A4,4,0,0,0,155,117Z"/><path d="M172,115.67H166.9v2.72h4.64V122H166.9v6.38h-4.22V112.09H172Z"/><path d="M183.7,115.67h-5.11v2.72h4.64V122h-4.64v6.38h-4.22V112.09h9.33Z"/><rect x="37.68" y="295.4" width="197.5" height="105.89" style="fill:#fff"/><path d="M236.3,402.4H36.57V294.28H236.3ZM38.8,400.17H234.07V296.51H38.8Z" style="fill:#231f20"/><path d="M85.42,349.15l5.11,6.67H85.27l-4-6.26h0v6.26H77V339.56h6.32a6.31,6.31,0,0,1,4.1,1.25A4.53,4.53,0,0,1,89,344.56a4.93,4.93,0,0,1-.94,3A4,4,0,0,1,85.42,349.15Zm-4.18-6.36v4.06h.41c1.95,0,2.93-.68,2.93-2s-1-2-2.93-2Z"/><path d="M100.93,343.14h-5v2.71h4.77v3.58H95.9v2.81h5v3.58H91.67V339.56h9.26Z"/><path d="M106.43,339.56l3.92,9.87,4-9.87h4.59L112,355.82h-3.28l-6.84-16.26Z"/><path d="M124.17,339.56v16.26H120V339.56Z"/><path d="M137.54,340.46l-1.68,3.28a4.29,4.29,0,0,0-2.8-1.08,2.28,2.28,0,0,0-1.24.37,1.12,1.12,0,0,0-.57,1,1.08,1.08,0,0,0,.35.78,2.11,2.11,0,0,0,.67.47,8.59,8.59,0,0,0,.85.3l1.08.33a7,7,0,0,1,3,1.58,3.83,3.83,0,0,1,1.05,2.86,5.43,5.43,0,0,1-1.68,4.38,6.92,6.92,0,0,1-4.62,1.53,9.76,9.76,0,0,1-5.71-1.86L128,351a5.78,5.78,0,0,0,3.75,1.68,2.49,2.49,0,0,0,1.44-.42,1.39,1.39,0,0,0,.61-1.22c0-.73-.68-1.3-2.05-1.7l-.51-.16a14.78,14.78,0,0,1-1.84-.6,6.2,6.2,0,0,1-1.33-.79,2.63,2.63,0,0,1-1-1.28,5.64,5.64,0,0,1-.28-1.92,5.21,5.21,0,0,1,1.57-4,5.61,5.61,0,0,1,4-1.49,10.43,10.43,0,0,1,2.62.36A10.69,10.69,0,0,1,137.54,340.46Z"/><path d="M144.44,339.56v16.26h-4.22V339.56Z"/><path d="M151,340.06a9.83,9.83,0,0,1,8.8,0,8.68,8.68,0,0,1,3.32,3,7.72,7.72,0,0,1,1.27,4.34,8.67,8.67,0,0,1-2.53,6.45,9.54,9.54,0,0,1-12.92,0,8.68,8.68,0,0,1-2.54-6.45,7.73,7.73,0,0,1,1.28-4.34A8.61,8.61,0,0,1,151,340.06Zm7.63,4.35a4.7,4.7,0,0,0-6.47,0,4,4,0,0,0-1.36,3,4.81,4.81,0,0,0,1.34,3.46,4.51,4.51,0,0,0,6.51,0,4.77,4.77,0,0,0,1.34-3.46A4,4,0,0,0,158.61,344.41Z"/><path d="M166.33,355.82V339.56h4.23l7.74,9.94h0v-9.94h4.23v16.26h-4.23l-7.74-10h0v10Z"/><path d="M195.94,340.46l-1.68,3.28a4.29,4.29,0,0,0-2.8-1.08,2.28,2.28,0,0,0-1.24.37,1.12,1.12,0,0,0-.57,1,1,1,0,0,0,.35.78,2.11,2.11,0,0,0,.67.47,8.59,8.59,0,0,0,.85.3l1.08.33a7,7,0,0,1,3,1.58,3.8,3.8,0,0,1,1.06,2.86,5.43,5.43,0,0,1-1.68,4.38,6.92,6.92,0,0,1-4.62,1.53,9.76,9.76,0,0,1-5.71-1.86l1.81-3.4a5.78,5.78,0,0,0,3.75,1.68,2.49,2.49,0,0,0,1.44-.42,1.39,1.39,0,0,0,.61-1.22c0-.73-.68-1.3-2.05-1.7l-.51-.16a14.78,14.78,0,0,1-1.84-.6,6.51,6.51,0,0,1-1.34-.79,2.67,2.67,0,0,1-.94-1.28,5.64,5.64,0,0,1-.28-1.92,5.21,5.21,0,0,1,1.57-4,5.59,5.59,0,0,1,4-1.49,10.43,10.43,0,0,1,2.62.36A10.87,10.87,0,0,1,195.94,340.46Z"/><rect x="37.68" y="473.48" width="197.5" height="105.89" style="fill:#fff"/><path d="M236.3,580.48H36.57V472.36H236.3ZM38.8,578.25H234.07V474.59H38.8Z" style="fill:#231f20"/><path d="M103.29,527.23l5.11,6.67h-5.26l-4-6.26H99.1v6.26H94.88V517.64h6.32a6.28,6.28,0,0,1,4.09,1.25,4.51,4.51,0,0,1,1.56,3.75,5,5,0,0,1-.94,3A4,4,0,0,1,103.29,527.23Zm-4.19-6.36v4h.41c2,0,2.94-.67,2.94-2s-1-2-2.94-2Z"/><path d="M118.79,521.22h-5v2.71h4.77v3.58h-4.77v2.81h5v3.58h-9.25V517.64h9.25Z"/><path d="M124.29,517.64l3.93,9.87,3.94-9.87h4.6l-6.95,16.26h-3.27l-6.84-16.26Z"/><path d="M142,517.64V533.9h-4.23V517.64Z"/><path d="M154.05,521.22h-5v2.71h4.76v3.58H149v2.81h5v3.58H144.8V517.64h9.25Z"/><path d="M159.36,517.64l2.82,10.5h0l3.4-10.5H169l3.19,10.5h0l3.06-10.5h4.4L174.5,533.9h-4.32l-2.84-9.43h-.05l-3.19,9.43h-4.29L155,517.64Z"/><rect x="34.68" y="713.04" width="197.5" height="105.89" style="fill:#fff"/><path d="M233.29,820H33.56V711.92H233.29Zm-197.5-2.23H231.06V714.15H35.79Z" style="fill:#231f20"/><path d="M84.44,760.78H79.33v2.72H84v3.58H79.33v6.38H75.11V757.2h9.33Z"/><path d="M91,757.2v16.26H86.79V757.2Z"/><path d="M93.78,773.46V757.2H98l7.74,9.94h0V757.2H110v16.26h-4.23l-7.74-10h0v10Z"/><path d="M117,757.2v16.26h-4.23V757.2Z"/><path d="M130.38,758.1l-1.69,3.28a4.27,4.27,0,0,0-2.8-1.08,2.3,2.3,0,0,0-1.24.37,1.14,1.14,0,0,0-.57,1,1.06,1.06,0,0,0,.36.78,2.09,2.09,0,0,0,.66.47c.21.09.5.19.86.31l1.07.32a7,7,0,0,1,3,1.58,3.83,3.83,0,0,1,1,2.86,5.43,5.43,0,0,1-1.68,4.38,6.88,6.88,0,0,1-4.61,1.53A9.84,9.84,0,0,1,119,772l1.81-3.41a5.78,5.78,0,0,0,3.76,1.68,2.48,2.48,0,0,0,1.43-.42,1.39,1.39,0,0,0,.62-1.22c0-.73-.69-1.3-2.05-1.7l-.52-.15a15.44,15.44,0,0,1-1.83-.61,6.2,6.2,0,0,1-1.34-.78,2.77,2.77,0,0,1-1-1.29,5.6,5.6,0,0,1-.28-1.92,5.23,5.23,0,0,1,1.57-4,5.62,5.62,0,0,1,4-1.5,10.49,10.49,0,0,1,2.62.36A11.06,11.06,0,0,1,130.38,758.1Z"/><path d="M137.28,763.47h6.1V757.2h4.23v16.26h-4.23v-6.67h-6.1v6.67h-4.23V757.2h4.23Z"/><path d="M154.59,757.2v16.26h-4.22V757.2Z"/><path d="M157.35,773.46V757.2h4.23l7.74,9.94h.05V757.2h4.22v16.26h-4.22l-7.75-10h0v10Z"/><path d="M184.18,764.38h8.39a19.33,19.33,0,0,1-.36,3.58,7.45,7.45,0,0,1-1.3,2.85A7.74,7.74,0,0,1,184.2,774a8.55,8.55,0,0,1-6.25-2.38,8.34,8.34,0,0,1-2.42-6.2,8.56,8.56,0,0,1,2.44-6.36,8.71,8.71,0,0,1,6.38-2.4,8.39,8.39,0,0,1,4.43,1.14,7.5,7.5,0,0,1,2.91,3.41l-4,1.68a4.27,4.27,0,0,0-1.36-1.9,3.49,3.49,0,0,0-2.16-.69,3.6,3.6,0,0,0-3.09,1.56,5.86,5.86,0,0,0-1.14,3.58,5.78,5.78,0,0,0,1.16,3.56,4,4,0,0,0,5.49.79,2.87,2.87,0,0,0,1-2.09h-3.45Z"/><rect x="38.81" y="1128.87" width="197.5" height="105.89" style="fill:#fff"/><path d="M237.42,1235.88H37.69V1127.76H237.42Zm-197.5-2.23H235.19V1130H39.92Z" style="fill:#231f20"/><path d="M88.52,1173.54a9.83,9.83,0,0,1,8.8,0,8.68,8.68,0,0,1,3.32,3,7.71,7.71,0,0,1,1.27,4.33,9,9,0,1,1-18,0,7.71,7.71,0,0,1,1.27-4.33A8.61,8.61,0,0,1,88.52,1173.54Zm7.63,4.35a4.66,4.66,0,0,0-6.46,0,4,4,0,0,0-1.36,3,4.8,4.8,0,0,0,1.33,3.46,4.52,4.52,0,0,0,6.52,0,4.8,4.8,0,0,0,1.33-3.46A4,4,0,0,0,96.15,1177.89Z"/><path d="M103.87,1189.3V1173h6.47a6.57,6.57,0,0,1,4.33,1.32,5,5,0,0,1,1.58,4q0,5.52-5.75,5.52h-2.4v5.4Zm4.23-12.86v4.06h1.63a5.19,5.19,0,0,0,.8-.12,1.73,1.73,0,0,0,.72-.3,1.63,1.63,0,0,0,.42-.59,2.3,2.3,0,0,0,.18-1,2.46,2.46,0,0,0-.17-1,1.59,1.59,0,0,0-.41-.61,1.47,1.47,0,0,0-.7-.32,7.83,7.83,0,0,0-.8-.12l-1,0Z"/><path d="M127.38,1176.62h-5v2.71h4.76v3.58h-4.76v2.81h5v3.58h-9.25V1173h9.25Z"/><path d="M130,1189.3V1173h4.23L142,1183h0V1173h4.23v16.26H142l-7.74-10h0v10Z"/><path d="M153.22,1173v16.26H149V1173Z"/><path d="M156,1189.3V1173h4.22L168,1183h0V1173h4.23v16.26H168l-7.74-10h-.05v10Z"/><path d="M182.8,1180.22h8.39a20.33,20.33,0,0,1-.35,3.58,7.84,7.84,0,0,1-8,6,8.53,8.53,0,0,1-6.26-2.38,8.32,8.32,0,0,1-2.41-6.2,8.53,8.53,0,0,1,2.43-6.35,8.73,8.73,0,0,1,6.39-2.4,8.36,8.36,0,0,1,4.42,1.14,7.5,7.5,0,0,1,2.91,3.41l-4,1.68a4.14,4.14,0,0,0-1.36-1.9,3.47,3.47,0,0,0-2.16-.69,3.62,3.62,0,0,0-3.09,1.55,5.89,5.89,0,0,0-1.13,3.58,5.75,5.75,0,0,0,1.15,3.56,3.72,3.72,0,0,0,3.14,1.53,3.66,3.66,0,0,0,2.35-.73,2.86,2.86,0,0,0,1.05-2.09H182.8Z"/><line y1="121.88" x2="34.38" y2="121.88" style="fill:none;stroke:#231f20;stroke-miterlimit:10;stroke-width:2.23090946674347px"/><polygon points="26.99 131 25.47 129.37 33.53 121.88 25.47 114.39 26.99 112.76 36.8 121.88 26.99 131" style="fill:#231f20"/><line x1="37.82" y1="1179.73" x2="3.44" y2="1179.73" style="fill:none;stroke:#231f20;stroke-miterlimit:10;stroke-width:2.23090946674347px"/><polygon points="10.83 1170.61 12.35 1172.24 4.29 1179.73 12.35 1187.22 10.83 1188.85 1.02 1179.73 10.83 1170.61" style="fill:#231f20"/><polygon points="139.98 422.5 126.86 422.5 120.3 433.86 126.86 445.22 139.98 445.22 146.54 433.86 139.98 422.5" style="fill:#1e2944"/><polygon points="171.19 422.5 158.07 422.5 151.51 433.86 158.07 445.22 171.19 445.22 177.75 433.86 171.19 422.5" style="fill:#1e2944"/><polygon points="202.39 422.5 189.27 422.5 182.71 433.86 189.27 445.22 202.39 445.22 208.95 433.86 202.39 422.5" style="fill:#1e2944"/><polygon points="233.6 422.5 220.48 422.5 213.92 433.86 220.48 445.22 233.6 445.22 240.16 433.86 233.6 422.5" style="fill:#1e2944"/><rect x="37.64" y="181.21" width="197.5" height="105.89" style="fill:#fff"/><path d="M236.26,288.22H36.53V180.1H236.26ZM38.76,286H234V182.33H38.76Z" style="fill:#231f20"/><path d="M82.92,217.39v12.68H78.7V217.39H75.2v-3.58H86.42v3.58Z"/><path d="M97.2,217.39h-5v2.72h4.76v3.58H92.18v2.8h5v3.58H88V213.81H97.2Z"/><path d="M111.43,214.2v5.06a4.34,4.34,0,0,0-1.62-1.32,4.84,4.84,0,0,0-2.09-.47,4.07,4.07,0,0,0-3.12,1.3,4.5,4.5,0,0,0-1.21,3.21,4.34,4.34,0,0,0,1.22,3.18,4.24,4.24,0,0,0,3.18,1.24,4.54,4.54,0,0,0,2-.46,4.77,4.77,0,0,0,1.64-1.26v5.07a14.07,14.07,0,0,1-3.73.75,8.81,8.81,0,0,1-6.1-2.39A7.89,7.89,0,0,1,99,222a8.23,8.23,0,0,1,2.39-6,8.92,8.92,0,0,1,2.85-1.93,8.38,8.38,0,0,1,3.34-.7A10,10,0,0,1,111.43,214.2Z"/><path d="M118.27,220.08h6.1v-6.27h4.23v16.26h-4.23v-6.66h-6.1v6.66H114V213.81h4.23Z"/><path d="M131.36,230.07V213.81h4.23l7.74,9.94h0v-9.94h4.23v16.26h-4.23l-7.74-10h0v10Z"/><path d="M154.58,213.81v16.26h-4.22V213.81Z"/><path d="M169,214.2v5.06a4.29,4.29,0,0,0-1.63-1.32,4.8,4.8,0,0,0-2.08-.47,4.11,4.11,0,0,0-3.13,1.3,4.54,4.54,0,0,0-1.21,3.21,4.34,4.34,0,0,0,1.22,3.18,4.27,4.27,0,0,0,3.18,1.24,4.61,4.61,0,0,0,2-.46,4.87,4.87,0,0,0,1.64-1.26v5.07a14.07,14.07,0,0,1-3.73.75,8.83,8.83,0,0,1-6.11-2.39,7.92,7.92,0,0,1-2.6-6.15,8.19,8.19,0,0,1,2.39-6,8.71,8.71,0,0,1,2.85-1.93,8.34,8.34,0,0,1,3.34-.7A10,10,0,0,1,169,214.2Z"/><path d="M181.54,227.24h-5.82l-1.12,2.83h-4.49l6.26-16.26H181l6.13,16.26H182.6ZM180.4,224l-1.73-5.18h0L176.88,224Z"/><path d="M192.65,213.81v12.68h5.06v3.58h-9.29V213.81Z"/><path d="M95,256V239.69h6a8,8,0,0,1,5.83,2.36,8.07,8.07,0,0,1,0,11.54A8.08,8.08,0,0,1,101,256Zm4.23-12.68v9.1h1a4.9,4.9,0,0,0,3.35-1.15,4.22,4.22,0,0,0,1.33-3.4,4.43,4.43,0,0,0-1.27-3.35,4.73,4.73,0,0,0-3.37-1.2Z"/><path d="M120.49,243.27h-5V246h4.76v3.58h-4.76v2.81h5V256h-9.25V239.69h9.25Z"/><path d="M133.71,240.59,132,243.87a4.29,4.29,0,0,0-2.81-1.08,2.33,2.33,0,0,0-1.24.37,1.12,1.12,0,0,0-.57,1,1.06,1.06,0,0,0,.36.78,2.11,2.11,0,0,0,.67.47,8.59,8.59,0,0,0,.85.3l1.08.33a7,7,0,0,1,2.95,1.58,3.8,3.8,0,0,1,1.06,2.86,5.43,5.43,0,0,1-1.68,4.38,6.92,6.92,0,0,1-4.62,1.53,9.76,9.76,0,0,1-5.71-1.86l1.81-3.4a5.78,5.78,0,0,0,3.75,1.68,2.49,2.49,0,0,0,1.44-.42,1.41,1.41,0,0,0,.61-1.22c0-.73-.68-1.3-2-1.7l-.52-.15a16.81,16.81,0,0,1-1.83-.61,6.26,6.26,0,0,1-1.34-.79,2.76,2.76,0,0,1-.95-1.28,5.9,5.9,0,0,1-.28-1.92,5.22,5.22,0,0,1,1.58-4,5.64,5.64,0,0,1,4-1.49,10.49,10.49,0,0,1,2.62.36A10.87,10.87,0,0,1,133.71,240.59Z"/><path d="M140.61,239.69V256h-4.23V239.69Z"/><path d="M151.2,246.87h8.39a19.33,19.33,0,0,1-.36,3.58,7.49,7.49,0,0,1-1.3,2.84,7.74,7.74,0,0,1-6.71,3.2A8.51,8.51,0,0,1,145,254.1a8.31,8.31,0,0,1-2.42-6.2,8.51,8.51,0,0,1,2.44-6.35,8.69,8.69,0,0,1,6.38-2.4,8.33,8.33,0,0,1,4.42,1.14,7.5,7.5,0,0,1,2.91,3.41l-4,1.68a4.13,4.13,0,0,0-1.36-1.9,3.44,3.44,0,0,0-2.15-.69,3.63,3.63,0,0,0-3.1,1.56,5.91,5.91,0,0,0-1.13,3.57,5.79,5.79,0,0,0,1.15,3.56,3.73,3.73,0,0,0,3.14,1.53,3.66,3.66,0,0,0,2.35-.73,2.88,2.88,0,0,0,1.06-2.09H151.2Z"/><path d="M161.53,256V239.69h4.23l7.74,9.94h0v-9.94h4.23V256h-4.23l-7.74-10h0v10Z"/><polygon points="145.72 184.15 145.72 171.03 134.36 164.47 123 171.03 123 184.15 134.36 190.71 145.72 184.15" style="fill:#1e2944"/><polygon points="124.99 174.28 126.65 172.74 134.23 180.9 141.82 172.74 143.48 174.28 134.23 184.22 124.99 174.28" style="fill:#fff"/><polygon points="106.77 480.49 106.77 467.37 95.41 460.81 84.05 467.37 84.05 480.49 95.41 487.05 106.77 480.49" style="fill:#1e2944"/><polygon points="86.04 470.62 87.69 469.07 95.28 477.24 102.87 469.07 104.53 470.62 95.28 480.56 86.04 470.62" style="fill:#fff"/><g style="opacity:0.41000000000000003"><path d="M240.34,1079.75H149a2.5,2.5,0,0,1-2.5-2.5V964.52A2.5,2.5,0,0,1,149,962h45.69a2.5,2.5,0,0,1,2.49,2.5v64.55h43.2a43.2,43.2,0,0,0,0-86.39H149a2.5,2.5,0,0,1-2.5-2.49V894.5A2.5,2.5,0,0,1,149,892h91.38a93.88,93.88,0,1,1,0,187.75Zm-88.89-5h88.89a88.89,88.89,0,0,0,77-133.32h0a88.84,88.84,0,0,0-77-44.45H151.45v40.7h88.89a48.19,48.19,0,0,1,0,96.37H194.65a2.49,2.49,0,0,1-2.49-2.49V967H151.45Z" style="fill:#68a2b9"/><path d="M224.12,1092.25H132.74a2.5,2.5,0,0,1-2.49-2.49V977a2.5,2.5,0,0,1,2.49-2.5h45.69a2.5,2.5,0,0,1,2.5,2.5v64.55h43.19a43.2,43.2,0,1,0,0-86.39H132.74a2.5,2.5,0,0,1-2.49-2.49V907a2.49,2.49,0,0,1,2.49-2.49h91.38a93.87,93.87,0,1,1,0,187.74Zm-88.88-5h88.88a88.89,88.89,0,0,0,77-133.32h0a88.88,88.88,0,0,0-77-44.45H135.24v40.7h88.88a48.19,48.19,0,0,1,0,96.37H178.43a2.5,2.5,0,0,1-2.49-2.49V979.51h-40.7Z" style="fill:#68a2b9"/><path d="M132.75,909.49a2.5,2.5,0,0,1-1.53-4.47l16.22-12.5a2.49,2.49,0,0,1,3,4L134.27,909A2.5,2.5,0,0,1,132.75,909.49Z" style="fill:#68a2b9"/><path d="M132.75,979.51a2.5,2.5,0,0,1-1.53-4.47l16.22-12.5a2.49,2.49,0,0,1,3,4L134.27,979A2.5,2.5,0,0,1,132.75,979.51Z" style="fill:#68a2b9"/><path d="M132.75,955.18a2.5,2.5,0,0,1-1.53-4.47l16.22-12.5a2.49,2.49,0,0,1,3,3.95l-16.21,12.5A2.5,2.5,0,0,1,132.75,955.18Z" style="fill:#68a2b9"/><path d="M178.44,979.51a2.5,2.5,0,0,1-1.53-4.47l16.22-12.5a2.49,2.49,0,0,1,3,4L180,979A2.5,2.5,0,0,1,178.44,979.51Z" style="fill:#68a2b9"/><path d="M178.44,1046.56a2.5,2.5,0,0,1-1.53-4.47l16.22-12.5a2.49,2.49,0,0,1,3,4L180,1046A2.5,2.5,0,0,1,178.44,1046.56Z" style="fill:#68a2b9"/><path d="M132.75,1092.25a2.5,2.5,0,0,1-1.53-4.47l16.22-12.5a2.49,2.49,0,0,1,3,4l-16.21,12.5A2.5,2.5,0,0,1,132.75,1092.25Z" style="fill:#68a2b9"/></g><rect x="36.62" y="1048.21" width="197.5" height="62.47" transform="translate(270.74 2158.88) rotate(180)" style="fill:#1e2944"/><path d="M235,1111.53H35.76v-64.18H235Zm-197.5-1.71H233.27v-60.76H37.48Z" style="fill:#231f20"/><path d="M102.23,1076.65l5.11,6.67h-5.26l-4-6.26h0v6.26H93.82v-16.26h6.32a6.39,6.39,0,0,1,4.1,1.25,4.53,4.53,0,0,1,1.55,3.75,4.91,4.91,0,0,1-.94,3A4,4,0,0,1,102.23,1076.65Zm-4.18-6.36v4.06h.41c2,0,2.93-.68,2.93-2s-1-2-2.93-2Z" style="fill:#fff"/><path d="M117.74,1070.64h-5v2.72h4.77v3.57h-4.77v2.81h5v3.58h-9.26v-16.26h9.26Z" style="fill:#fff"/><path d="M123.23,1067.06l3.93,9.87,4-9.87h4.59l-6.95,16.26h-3.27l-6.84-16.26Z" style="fill:#fff"/><path d="M141,1067.06v16.26h-4.22v-16.26Z" style="fill:#fff"/><path d="M153,1070.64h-5v2.72h4.77v3.57H148v2.81h5v3.58h-9.25v-16.26H153Z" style="fill:#fff"/><path d="M158.3,1067.06l2.82,10.5h0l3.41-10.5h3.36l3.19,10.5h0l3.07-10.5h4.4l-5.2,16.26h-4.32l-2.84-9.43h0l-3.2,9.43h-4.29l-4.85-16.26Z" style="fill:#fff"/><rect x="36.62" y="979.77" width="197.5" height="62.47" transform="translate(270.74 2022) rotate(180)" style="fill:#1e2944"/><path d="M235,1043.09H35.76V978.91H235Zm-197.5-1.71H233.27V980.62H37.48Z" style="fill:#231f20"/><path d="M61.07,998.62v16.26H56.84V998.62Z" style="fill:#fff"/><path d="M63.83,1014.88V998.62h4.23l7.74,9.94h0v-9.94h4.23v16.26H75.84l-7.74-10h0v10Z" style="fill:#fff"/><path d="M93.44,999.52l-1.68,3.28a4.29,4.29,0,0,0-2.8-1.08,2.34,2.34,0,0,0-1.25.37,1.13,1.13,0,0,0-.57,1,1.06,1.06,0,0,0,.36.78,2.11,2.11,0,0,0,.67.47c.21.09.49.19.85.31l1.08.32a7,7,0,0,1,3,1.58,3.8,3.8,0,0,1,1.06,2.86,5.43,5.43,0,0,1-1.68,4.38,6.92,6.92,0,0,1-4.62,1.53,9.81,9.81,0,0,1-5.71-1.85l1.81-3.41a5.78,5.78,0,0,0,3.75,1.68,2.49,2.49,0,0,0,1.44-.42,1.41,1.41,0,0,0,.61-1.22c0-.73-.68-1.3-2-1.7l-.52-.15a16.81,16.81,0,0,1-1.83-.61,6.44,6.44,0,0,1-1.34-.78,2.84,2.84,0,0,1-1-1.29,5.86,5.86,0,0,1-.28-1.92,5.2,5.2,0,0,1,1.58-3.95,5.6,5.6,0,0,1,4-1.5,10.49,10.49,0,0,1,2.62.36A10.87,10.87,0,0,1,93.44,999.52Z" style="fill:#fff"/><path d="M102.58,1002.2v12.68H98.36V1002.2h-3.5v-3.58h11.22v3.58Z" style="fill:#fff"/><path d="M116.28,1012.05h-5.82l-1.13,2.83h-4.48l6.25-16.26h4.62l6.12,16.26h-4.51Zm-1.14-3.23-1.73-5.18h0l-1.75,5.18Z" style="fill:#fff"/><path d="M127.38,998.62v12.68h5.07v3.58h-9.29V998.62Z" style="fill:#fff"/><path d="M138.06,998.62v12.68h5.07v3.58h-9.3V998.62Z" style="fill:#fff"/><path d="M154.47,1012.05h-5.82l-1.12,2.83H143l6.25-16.26h4.62l6.12,16.26h-4.5Zm-1.14-3.23-1.73-5.18h0l-1.75,5.18Z" style="fill:#fff"/><path d="M166.52,1002.2v12.68H162.3V1002.2h-3.5v-3.58H170v3.58Z" style="fill:#fff"/><path d="M175.78,998.62v16.26h-4.23V998.62Z" style="fill:#fff"/><path d="M182.31,999.12a9.83,9.83,0,0,1,8.8,0,8.68,8.68,0,0,1,3.32,3,7.74,7.74,0,0,1,1.27,4.34,8.71,8.71,0,0,1-2.53,6.46,9.57,9.57,0,0,1-12.92,0,8.71,8.71,0,0,1-2.53-6.46,7.74,7.74,0,0,1,1.27-4.34A8.61,8.61,0,0,1,182.31,999.12Zm7.63,4.35a4.7,4.7,0,0,0-6.47,0,4,4,0,0,0-1.35,3,4.8,4.8,0,0,0,1.33,3.46,4.52,4.52,0,0,0,6.52,0,4.8,4.8,0,0,0,1.33-3.46A4,4,0,0,0,189.94,1003.47Z" style="fill:#fff"/><path d="M197.66,1014.88V998.62h4.23l7.74,9.94h.05v-9.94h4.22v16.26h-4.22l-7.75-10h0v10Z" style="fill:#fff"/><rect x="36.62" y="911.33" width="197.5" height="62.47" transform="translate(270.74 1885.12) rotate(180)" style="fill:#1e2944"/><path d="M235,974.65H35.76V910.47H235Zm-197.5-1.71H233.27V912.18H37.48Z" style="fill:#231f20"/><path d="M84.93,946.44V930.18h6a8,8,0,0,1,5.83,2.36,8.07,8.07,0,0,1,0,11.54,8.06,8.06,0,0,1-5.83,2.36Zm4.23-12.68v9.1h1a4.9,4.9,0,0,0,3.35-1.15,4.22,4.22,0,0,0,1.33-3.4A4.39,4.39,0,0,0,93.52,935a4.71,4.71,0,0,0-3.37-1.2Z" style="fill:#fff"/><path d="M110.4,933.76h-5v2.71h4.76v3.58h-4.76v2.81h5v3.58h-9.25V930.18h9.25Z" style="fill:#fff"/><path d="M117.24,930.18v12.68h5.07v3.58H113V930.18Z" style="fill:#fff"/><path d="M127.91,930.18v16.26h-4.22V930.18Z" style="fill:#fff"/><path d="M133.56,930.18l3.93,9.87,3.94-9.87H146l-6.95,16.26h-3.27L129,930.18Z" style="fill:#fff"/><path d="M156.34,933.76h-5v2.71h4.77v3.58h-4.77v2.81h5v3.58h-9.26V930.18h9.26Z" style="fill:#fff"/><path d="M167.36,939.77l5.11,6.67h-5.26l-4-6.26h-.05v6.26H159V930.18h6.31a6.29,6.29,0,0,1,4.1,1.25,4.5,4.5,0,0,1,1.55,3.75,5,5,0,0,1-.93,3A4,4,0,0,1,167.36,939.77Zm-4.19-6.36v4.06h.41c2,0,2.94-.68,2.94-2s-1-2-2.94-2Z" style="fill:#fff"/><path d="M177,938.63l-6-8.45H176l3,4.42,3-4.42h5.07l-6,8.45v7.81H177Z" style="fill:#fff"/><rect x="36.62" y="842.89" width="197.5" height="62.47" transform="translate(270.74 1748.24) rotate(180)" style="fill:#1e2944"/><path d="M235,906.21H35.76V842H235ZM37.48,904.5H233.27V843.74H37.48Z" style="fill:#231f20"/><path d="M63.82,861.74V878H59.59V861.74Z" style="fill:#fff"/><path d="M66.58,878V861.74h4.23l7.74,9.94h0v-9.94h4.23V878H78.59l-7.74-10h0v10Z" style="fill:#fff"/><path d="M92.05,865.32V878H87.82V865.32H84.33v-3.58H95.54v3.58Z" style="fill:#fff"/><path d="M106.33,865.32h-5V868h4.77v3.57H101.3v2.81h5V878H97.08V861.74h9.25Z" style="fill:#fff"/><path d="M116.76,868.92h8.39a20.33,20.33,0,0,1-.35,3.58,7.63,7.63,0,0,1-1.31,2.85,7.74,7.74,0,0,1-6.7,3.19,8.54,8.54,0,0,1-6.26-2.39,8.3,8.3,0,0,1-2.41-6.2,8.55,8.55,0,0,1,2.43-6.35,8.73,8.73,0,0,1,6.39-2.4,8.36,8.36,0,0,1,4.42,1.14,7.5,7.5,0,0,1,2.91,3.41l-4,1.68a4.2,4.2,0,0,0-1.36-1.9,3.47,3.47,0,0,0-2.16-.69,3.6,3.6,0,0,0-3.09,1.56,5.85,5.85,0,0,0-1.13,3.58,5.72,5.72,0,0,0,1.15,3.55,3.73,3.73,0,0,0,3.14,1.54,3.67,3.67,0,0,0,2.35-.74,2.84,2.84,0,0,0,1-2.09h-3.45Z" style="fill:#fff"/><path d="M135.5,871.33l5.12,6.67h-5.27l-4-6.26h0V878h-4.23V861.74h6.32a6.37,6.37,0,0,1,4.1,1.25,4.53,4.53,0,0,1,1.55,3.75,4.91,4.91,0,0,1-.94,3A4,4,0,0,1,135.5,871.33ZM131.32,865V869h.41c2,0,2.93-.68,2.93-2s-1-2-2.93-2Z" style="fill:#fff"/><path d="M151.72,875.17H145.9L144.78,878h-4.49l6.26-16.26h4.61L157.29,878h-4.51Zm-1.14-3.23-1.73-5.18h0l-1.75,5.18Z" style="fill:#fff"/><path d="M163.78,865.32V878h-4.23V865.32h-3.49v-3.58h11.21v3.58Z" style="fill:#fff"/><path d="M173,861.74V878H168.8V861.74Z" style="fill:#fff"/><path d="M179.56,862.24a9.83,9.83,0,0,1,8.8,0,8.61,8.61,0,0,1,3.32,3,7.74,7.74,0,0,1,1.27,4.34,8.67,8.67,0,0,1-2.53,6.45,9.54,9.54,0,0,1-12.92,0,8.67,8.67,0,0,1-2.53-6.45,7.74,7.74,0,0,1,1.27-4.34A8.68,8.68,0,0,1,179.56,862.24Zm7.64,4.35a4.7,4.7,0,0,0-6.47,0,4,4,0,0,0-1.36,3,4.8,4.8,0,0,0,1.33,3.46,4.52,4.52,0,0,0,6.52,0,4.8,4.8,0,0,0,1.33-3.46A4,4,0,0,0,187.2,866.59Z" style="fill:#fff"/><path d="M194.92,878V861.74h4.22l7.74,9.94h.05v-9.94h4.23V878h-4.23l-7.74-10h-.05v10Z" style="fill:#fff"/><polygon points="146.88 914.75 146.88 901.63 135.52 895.07 124.16 901.63 124.16 914.75 135.52 921.3 146.88 914.75" style="fill:#6aa2b9"/><polygon points="126.16 904.87 127.81 903.33 135.4 911.49 142.99 903.33 144.65 904.87 135.4 914.81 126.16 904.87" style="fill:#fff"/><polygon points="146.88 984.4 146.88 971.28 135.52 964.72 124.16 971.28 124.16 984.4 135.52 990.96 146.88 984.4" style="fill:#6aa2b9"/><polygon points="126.16 974.53 127.81 972.98 135.4 981.15 142.99 972.98 144.65 974.53 135.4 984.47 126.16 974.53" style="fill:#fff"/><polygon points="146.88 1051.32 146.88 1038.2 135.52 1031.64 124.16 1038.2 124.16 1051.32 135.52 1057.88 146.88 1051.32" style="fill:#6aa2b9"/><polygon points="126.16 1041.45 127.81 1039.91 135.4 1048.07 142.99 1039.91 144.65 1041.45 135.4 1051.39 126.16 1041.45" style="fill:#fff"/><rect x="35.49" y="593.3" width="197.5" height="105.89" style="fill:#6aa2b9"/><path d="M234.11,700.31H34.37V592.19H234.11ZM36.6,698.08H231.88V594.42H36.6Z" style="fill:#231f20"/><path d="M70,642.63H64.93v2.72h4.64v3.58H64.93v6.38H60.7V639.05H70Z" style="fill:#fff"/><path d="M81.17,652.48H75.35l-1.12,2.83H69.74L76,639.05h4.62l6.12,16.26h-4.5ZM80,649.25l-1.73-5.18h0l-1.75,5.18Z" style="fill:#fff"/><path d="M94.56,655.31H88.05V639.05h6q4.83,0,4.83,4.23a3.39,3.39,0,0,1-1.79,3.32v0q3.32.43,3.32,4.14a4.42,4.42,0,0,1-.5,2.14,3.66,3.66,0,0,1-1.35,1.41,6.4,6.4,0,0,1-1.85.74A9.42,9.42,0,0,1,94.56,655.31Zm-2.28-13v3.15h.47a3.71,3.71,0,0,0,1.66-.32,1.27,1.27,0,0,0,.63-1.25,1.66,1.66,0,0,0-.21-.88,1.12,1.12,0,0,0-.61-.47,4.33,4.33,0,0,0-.76-.18,6.86,6.86,0,0,0-.88-.05Zm0,6.3v3.49h1.24l.7,0a2.64,2.64,0,0,0,.76-.15,6.23,6.23,0,0,0,.58-.29,1.05,1.05,0,0,0,.48-.5,1.84,1.84,0,0,0,.14-.74,2,2,0,0,0-.07-.58.92.92,0,0,0-.22-.44,4,4,0,0,1-.29-.31.92.92,0,0,0-.42-.21l-.45-.13a2.08,2.08,0,0,0-.52-.08l-.5,0H92.28Z" style="fill:#fff"/><path d="M111.06,648.65l5.11,6.66h-5.26l-4-6.26h0v6.26h-4.22V639.05H109a6.34,6.34,0,0,1,4.09,1.25,4.51,4.51,0,0,1,1.56,3.75,5,5,0,0,1-.94,3A4,4,0,0,1,111.06,648.65Zm-4.19-6.37v4.06h.41c2,0,2.94-.68,2.94-2s-1-2-2.94-2Z" style="fill:#fff"/><path d="M121.54,639.05v16.26h-4.23V639.05Z" style="fill:#fff"/><path d="M135.92,639.44v5.06a4.29,4.29,0,0,0-1.63-1.32,4.76,4.76,0,0,0-2.08-.47,4.07,4.07,0,0,0-3.12,1.3,4.5,4.5,0,0,0-1.21,3.21,4.34,4.34,0,0,0,1.22,3.18,4.24,4.24,0,0,0,3.18,1.24,4.54,4.54,0,0,0,2-.46,4.77,4.77,0,0,0,1.64-1.26V655a14.07,14.07,0,0,1-3.73.75,8.81,8.81,0,0,1-6.1-2.39,7.89,7.89,0,0,1-2.61-6.15,8.23,8.23,0,0,1,2.39-6,8.92,8.92,0,0,1,2.85-1.93,8.38,8.38,0,0,1,3.34-.7A10,10,0,0,1,135.92,639.44Z" style="fill:#fff"/><path d="M148.5,652.48h-5.83l-1.12,2.83h-4.48l6.25-16.26h4.61l6.13,16.26h-4.51Zm-1.15-3.23-1.72-5.18h0l-1.74,5.18Z" style="fill:#fff"/><path d="M160.55,642.63v12.68h-4.23V642.63h-3.49v-3.58H164v3.58Z" style="fill:#fff"/><path d="M169.8,639.05v16.26h-4.22V639.05Z" style="fill:#fff"/><path d="M176.34,639.56a9.72,9.72,0,0,1,8.79,0,8.53,8.53,0,0,1,3.33,3,7.82,7.82,0,0,1,1.27,4.34,9,9,0,1,1-18,0,7.82,7.82,0,0,1,1.27-4.34A8.53,8.53,0,0,1,176.34,639.56ZM184,643.9a4.7,4.7,0,0,0-6.47,0,4,4,0,0,0-1.36,3,4.81,4.81,0,0,0,1.34,3.46,4.51,4.51,0,0,0,6.51,0,4.81,4.81,0,0,0,1.34-3.46A4,4,0,0,0,184,643.9Z" style="fill:#fff"/><path d="M191.69,655.31V639.05h4.23l7.74,9.94h0v-9.94h4.23v16.26H203.7l-7.74-10h0v10Z" style="fill:#fff"/><path d="M39.82,1314.77l-9.18,1.76-.59-3.12a5.22,5.22,0,0,1,.56-3.89,4.58,4.58,0,0,1,3.1-1.92,4.3,4.3,0,0,1,3.41.59,5,5,0,0,1,2.06,3.25Zm-2.48-2-.09-.48a2.78,2.78,0,0,0-1-1.88,2.53,2.53,0,0,0-2-.34,2.77,2.77,0,0,0-1.88,1.1,2.73,2.73,0,0,0-.21,2l.11.58Z" style="fill:#202945"/><path d="M38.15,1296.34a5.58,5.58,0,0,1-1,7.3,4.9,4.9,0,0,1-6.92-1,5.58,5.58,0,0,1,1-7.3,4.87,4.87,0,0,1,6.92,1Zm-6,4.79a2.57,2.57,0,0,0,1.72,1,2.34,2.34,0,0,0,1.82-.5,2.63,2.63,0,0,0,1-1.77,2.54,2.54,0,0,0-2.14-2.95,2.54,2.54,0,0,0-1.88.5,2.8,2.8,0,0,0-1,1.76A2.67,2.67,0,0,0,32.15,1301.13Z" style="fill:#202945"/><path d="M32.24,1288.14l6.07,1.49L34,1285l.93-1.7,6.18,1.3-4.44-4.45,1.22-2.22,6.75,7.11-1.2,2.17-5.55-1.11,3.87,4.17-1.18,2.16L31,1290.36Z" style="fill:#202945"/><path d="M47.16,1281.82l-5.89-7.26,1.88-1.53,7.07,1.63-3.6-4.44,1.89-1.53,5.88,7.26-1.88,1.53-7.07-1.63,3.6,4.44Z" style="fill:#202945"/><path d="M57.1,1266.87l2.84,6.71-2.23.94-2.85-6.7-1.83.77-.8-1.89,5.89-2.5.81,1.89Z" style="fill:#202945"/><path d="M71.37,1270.06a5.3,5.3,0,0,1-3.49,1.81,5.38,5.38,0,0,1-3.83-.95,4.9,4.9,0,0,1-.81-6.94,5.58,5.58,0,0,1,7.32-.86,4.88,4.88,0,0,1,.81,6.94Zm-6.15-4.6a2.62,2.62,0,0,0-.53,1.91,2.36,2.36,0,0,0,1,1.64,2.77,2.77,0,0,0,3.74-.42,2.54,2.54,0,0,0,.54-1.87,2.49,2.49,0,0,0-1-1.69,2.75,2.75,0,0,0-1.95-.52A2.72,2.72,0,0,0,65.22,1265.46Z" style="fill:#202945"/><path d="M78.43,1262.37v6.26l3.48-5.32,1.87.5.2,6.31,3.28-5.37,2.45.66-5.32,8.25L82,1273l-.22-5.66-3.14,4.76-2.39-.65-.25-9.75Z" style="fill:#202945"/><path d="M88.13,1275.37l5.64-7.45,1.93,1.46.12,7.26,3.45-4.56,1.93,1.46L95.56,1281l-1.93-1.46-.12-7.25-3.45,4.55Z" style="fill:#202945"/><path d="M56.23,1336.54l-2.52-1.5-.8,1.34,2.29,1.36-1.05,1.77-2.29-1.36L50,1341.31l-2.08-1.23,4.76-8,4.61,2.73Z" style="fill:#202945"/><path d="M62.35,1344.66l-3.27-.92-1,1.34-2.47-.69,6-8,2.55.71.87,10-2.49-.7Zm-.13-2-.19-3.2-1.8,2.64Z" style="fill:#202945"/><path d="M68.6,1347.3l0-9.35h3.62a2.63,2.63,0,0,1,2,.72,2.53,2.53,0,0,1,.58,1.75,2.48,2.48,0,0,1-.26,1.15,1.5,1.5,0,0,1-.76.73,2.29,2.29,0,0,1,1.28.56,2.36,2.36,0,0,1,.64,1.7,2.54,2.54,0,0,1-.68,1.84,3.51,3.51,0,0,1-2.54.89Zm2.42-1.9h.54a2,2,0,0,0,1.5-.39.86.86,0,0,0,.19-.6.93.93,0,0,0-.24-.67,2.22,2.22,0,0,0-1.5-.31H71Zm0-3.77h.45a1.26,1.26,0,0,0,.92-.3.9.9,0,0,0,.23-.62,1,1,0,0,0-.23-.63,1.28,1.28,0,0,0-.93-.27H71Z" style="fill:#202945"/><path d="M78.83,1337.51l3.59,5.11-.21-6.35,1.81-.66,3.8,5-.41-6.27,2.38-.87.4,9.8-2.33.85-3.45-4.5.17,5.69-2.31.85-5.83-7.82Z" style="fill:#202945"/><path d="M102.09,1333.14a5.6,5.6,0,0,1-5.5,4.9,4.89,4.89,0,0,1-4.65-5.22,5.36,5.36,0,0,1,1.83-3.49,5.29,5.29,0,0,1,3.67-1.41,4.87,4.87,0,0,1,4.65,5.22Zm-7.67-.24a2.52,2.52,0,0,0,.66,1.87,2.41,2.41,0,0,0,1.71.8,2.65,2.65,0,0,0,1.91-.7,2.56,2.56,0,0,0,.29-3.64,2.53,2.53,0,0,0-1.76-.83,2.76,2.76,0,0,0-1.9.69A2.69,2.69,0,0,0,94.42,1332.9Z" style="fill:#202945"/><path d="M100.69,1321.07a3,3,0,0,1,1.86-1.56,3.07,3.07,0,0,1,2.22.36,2.74,2.74,0,0,1,1.32,1.62,2.68,2.68,0,0,1-.09,1.44l4.78-.62-1.52,2.61-4.27.21,3.11,1.8-1.22,2.1-8.08-4.69Zm3,3.28.23-.4a1.82,1.82,0,0,0,.26-1.21,1.19,1.19,0,0,0-.52-.66,1.13,1.13,0,0,0-.84-.12,1.66,1.66,0,0,0-.9.83l-.23.4Z" style="fill:#202945"/><path d="M107.5,1314.72l-3.06-3.78.7-2.92,3.44,4.63,5.72-2.8-.72,3.06-4.67,2.14,3.94.94-.56,2.35-9.09-2.16.56-2.36Z" style="fill:#202945"/><path d="M111.61,1305.46a3.3,3.3,0,0,0,.87-2.18,1.22,1.22,0,0,0-.36-.92.82.82,0,0,0-.6-.22.75.75,0,0,0-.55.29,3.5,3.5,0,0,0-.44,1.22l-.17.64a3.12,3.12,0,0,1-.7,1.38,2.4,2.4,0,0,1-1.63.6,3.08,3.08,0,0,1-2.29-.77,3.27,3.27,0,0,1-1-2.36,6.47,6.47,0,0,1,.64-2.91l1.93.89a2.46,2.46,0,0,0-.57,1.62,1.15,1.15,0,0,0,.32.79.73.73,0,0,0,.51.22.59.59,0,0,0,.41-.15c.09-.07.25-.25.39-.83l.2-.75a3.52,3.52,0,0,1,.85-1.73,2.26,2.26,0,0,1,1.64-.67,3.21,3.21,0,0,1,2.39.79,3.63,3.63,0,0,1,1.06,2.72,5,5,0,0,1-.23,1.85,6.53,6.53,0,0,1-.69,1.44Z" style="fill:#202945"/><polygon points="42.91 1327.29 41.99 1325.75 40.2 1325.77 39.32 1327.33 40.24 1328.88 42.03 1328.85 42.91 1327.29" style="fill:#202945"/><polygon points="108.03 1288.62 107.12 1287.08 105.32 1287.1 104.44 1288.67 105.36 1290.21 107.16 1290.19 108.03 1288.62" style="fill:#202945"/></g></g></svg>