<svg xmlns="http://www.w3.org/2000/svg" width="587.66" height="1056.66" viewBox="0 0 587.66 1056.66"><g id="Layer_2" data-name="Layer 2"><g id="Layer_1-2" data-name="Layer 1"><rect x="1.14" y="92.04" width="503.04" height="963.48" rx="32.31" style="fill:none;stroke:#231f20;stroke-miterlimit:10;stroke-width:2.27914372333019px"/><g style="opacity:0.5"><polygon points="303.6 138.39 309.22 138.39 312.03 133.52 309.22 128.66 303.6 128.66 300.79 133.52 303.6 138.39" style="fill:#95d4e9"/><polygon points="303.6 154.66 309.22 154.66 312.03 149.8 309.22 144.93 303.6 144.93 300.79 149.8 303.6 154.66" style="fill:#95d4e9"/><polygon points="303.6 170.94 309.22 170.94 312.03 166.07 309.22 161.2 303.6 161.2 300.79 166.07 303.6 170.94" style="fill:#95d4e9"/><polygon points="303.6 187.21 309.22 187.21 312.03 182.34 309.22 177.47 303.6 177.47 300.79 182.34 303.6 187.21" style="fill:#95d4e9"/><polygon points="303.6 203.48 309.22 203.48 312.03 198.61 309.22 193.74 303.6 193.74 300.79 198.61 303.6 203.48" style="fill:#95d4e9"/><polygon points="303.6 219.75 309.22 219.75 312.03 214.88 309.22 210.01 303.6 210.01 300.79 214.88 303.6 219.75" style="fill:#95d4e9"/><polygon points="303.6 236.02 309.22 236.02 312.03 231.15 309.22 226.28 303.6 226.28 300.79 231.15 303.6 236.02" style="fill:#95d4e9"/><polygon points="303.6 252.29 309.22 252.29 312.03 247.43 309.22 242.56 303.6 242.56 300.79 247.43 303.6 252.29" style="fill:#95d4e9"/><polygon points="303.6 268.57 309.22 268.57 312.03 263.7 309.22 258.83 303.6 258.83 300.79 263.7 303.6 268.57" style="fill:#95d4e9"/><polygon points="303.6 284.84 309.22 284.84 312.03 279.97 309.22 275.1 303.6 275.1 300.79 279.97 303.6 284.84" style="fill:#95d4e9"/><polygon points="303.6 301.11 309.22 301.11 312.03 296.24 309.22 291.37 303.6 291.37 300.79 296.24 303.6 301.11" style="fill:#95d4e9"/><polygon points="303.6 317.38 309.22 317.38 312.03 312.51 309.22 307.64 303.6 307.64 300.79 312.51 303.6 317.38" style="fill:#95d4e9"/><polygon points="303.6 333.65 309.22 333.65 312.03 328.78 309.22 323.91 303.6 323.91 300.79 328.78 303.6 333.65" style="fill:#95d4e9"/><polygon points="303.6 349.92 309.22 349.92 312.03 345.05 309.22 340.19 303.6 340.19 300.79 345.05 303.6 349.92" style="fill:#95d4e9"/><polygon points="303.6 366.19 309.22 366.19 312.03 361.33 309.22 356.46 303.6 356.46 300.79 361.33 303.6 366.19" style="fill:#95d4e9"/><polygon points="303.6 382.47 309.22 382.47 312.03 377.6 309.22 372.73 303.6 372.73 300.79 377.6 303.6 382.47" style="fill:#95d4e9"/><polygon points="303.6 398.74 309.22 398.74 312.03 393.87 309.22 389 303.6 389 300.79 393.87 303.6 398.74" style="fill:#95d4e9"/><polygon points="303.6 415.01 309.22 415.01 312.03 410.14 309.22 405.27 303.6 405.27 300.79 410.14 303.6 415.01" style="fill:#95d4e9"/><polygon points="303.6 431.28 309.22 431.28 312.03 426.41 309.22 421.54 303.6 421.54 300.79 426.41 303.6 431.28" style="fill:#95d4e9"/><polygon points="303.6 447.55 309.22 447.55 312.03 442.68 309.22 437.81 303.6 437.81 300.79 442.68 303.6 447.55" style="fill:#95d4e9"/><polygon points="303.6 463.82 309.22 463.82 312.03 458.95 309.22 454.09 303.6 454.09 300.79 458.95 303.6 463.82" style="fill:#95d4e9"/><polygon points="303.6 480.1 309.22 480.1 312.03 475.23 309.22 470.36 303.6 470.36 300.79 475.23 303.6 480.1" style="fill:#95d4e9"/><polygon points="303.6 496.37 309.22 496.37 312.03 491.5 309.22 486.63 303.6 486.63 300.79 491.5 303.6 496.37" style="fill:#95d4e9"/><polygon points="303.6 512.64 309.22 512.64 312.03 507.77 309.22 502.9 303.6 502.9 300.79 507.77 303.6 512.64" style="fill:#95d4e9"/><polygon points="303.6 528.91 309.22 528.91 312.03 524.04 309.22 519.17 303.6 519.17 300.79 524.04 303.6 528.91" style="fill:#95d4e9"/><polygon points="303.6 545.18 309.22 545.18 312.03 540.31 309.22 535.44 303.6 535.44 300.79 540.31 303.6 545.18" style="fill:#95d4e9"/><polygon points="303.6 561.45 309.22 561.45 312.03 556.59 309.22 551.72 303.6 551.72 300.79 556.59 303.6 561.45" style="fill:#95d4e9"/><polygon points="303.6 577.73 309.22 577.73 312.03 572.86 309.22 567.99 303.6 567.99 300.79 572.86 303.6 577.73" style="fill:#95d4e9"/></g><g style="opacity:0.5"><polygon points="289.23 147.29 294.85 147.29 297.66 142.42 294.85 137.55 289.23 137.55 286.42 142.42 289.23 147.29" style="fill:#95d4e9"/><polygon points="289.23 163.56 294.85 163.56 297.66 158.69 294.85 153.82 289.23 153.82 286.42 158.69 289.23 163.56" style="fill:#95d4e9"/><polygon points="289.23 179.83 294.85 179.83 297.66 174.96 294.85 170.09 289.23 170.09 286.42 174.96 289.23 179.83" style="fill:#95d4e9"/><polygon points="289.23 196.1 294.85 196.1 297.66 191.23 294.85 186.36 289.23 186.36 286.42 191.23 289.23 196.1" style="fill:#95d4e9"/><polygon points="289.23 212.37 294.85 212.37 297.66 207.5 294.85 202.63 289.23 202.63 286.42 207.5 289.23 212.37" style="fill:#95d4e9"/><polygon points="289.23 228.65 294.85 228.65 297.66 223.78 294.85 218.91 289.23 218.91 286.42 223.78 289.23 228.65" style="fill:#95d4e9"/><polygon points="289.23 244.92 294.85 244.92 297.66 240.05 294.85 235.18 289.23 235.18 286.42 240.05 289.23 244.92" style="fill:#95d4e9"/><polygon points="289.23 261.19 294.85 261.19 297.66 256.32 294.85 251.45 289.23 251.45 286.42 256.32 289.23 261.19" style="fill:#95d4e9"/><polygon points="289.23 277.46 294.85 277.46 297.66 272.59 294.85 267.72 289.23 267.72 286.42 272.59 289.23 277.46" style="fill:#95d4e9"/><polygon points="289.23 293.73 294.85 293.73 297.66 288.86 294.85 283.99 289.23 283.99 286.42 288.86 289.23 293.73" style="fill:#95d4e9"/><polygon points="289.23 310 294.85 310 297.66 305.13 294.85 300.26 289.23 300.26 286.42 305.13 289.23 310" style="fill:#95d4e9"/><polygon points="289.23 326.27 294.85 326.27 297.66 321.4 294.85 316.54 289.23 316.54 286.42 321.4 289.23 326.27" style="fill:#95d4e9"/><polygon points="289.23 342.55 294.85 342.55 297.66 337.68 294.85 332.81 289.23 332.81 286.42 337.68 289.23 342.55" style="fill:#95d4e9"/><polygon points="289.23 358.82 294.85 358.82 297.66 353.95 294.85 349.08 289.23 349.08 286.42 353.95 289.23 358.82" style="fill:#95d4e9"/><polygon points="289.23 375.09 294.85 375.09 297.66 370.22 294.85 365.35 289.23 365.35 286.42 370.22 289.23 375.09" style="fill:#95d4e9"/><polygon points="289.23 391.36 294.85 391.36 297.66 386.49 294.85 381.62 289.23 381.62 286.42 386.49 289.23 391.36" style="fill:#95d4e9"/><polygon points="289.23 407.63 294.85 407.63 297.66 402.76 294.85 397.89 289.23 397.89 286.42 402.76 289.23 407.63" style="fill:#95d4e9"/><polygon points="289.23 423.9 294.85 423.9 297.66 419.03 294.85 414.17 289.23 414.17 286.42 419.03 289.23 423.9" style="fill:#95d4e9"/><polygon points="289.23 440.18 294.85 440.18 297.66 435.31 294.85 430.44 289.23 430.44 286.42 435.31 289.23 440.18" style="fill:#95d4e9"/><polygon points="289.23 456.45 294.85 456.45 297.66 451.58 294.85 446.71 289.23 446.71 286.42 451.58 289.23 456.45" style="fill:#95d4e9"/><polygon points="289.23 472.72 294.85 472.72 297.66 467.85 294.85 462.98 289.23 462.98 286.42 467.85 289.23 472.72" style="fill:#95d4e9"/><polygon points="289.23 488.99 294.85 488.99 297.66 484.12 294.85 479.25 289.23 479.25 286.42 484.12 289.23 488.99" style="fill:#95d4e9"/><polygon points="289.23 505.26 294.85 505.26 297.66 500.39 294.85 495.52 289.23 495.52 286.42 500.39 289.23 505.26" style="fill:#95d4e9"/><polygon points="289.23 521.53 294.85 521.53 297.66 516.66 294.85 511.79 289.23 511.79 286.42 516.66 289.23 521.53" style="fill:#95d4e9"/><polygon points="289.23 537.8 294.85 537.8 297.66 532.93 294.85 528.07 289.23 528.07 286.42 532.93 289.23 537.8" style="fill:#95d4e9"/><polygon points="289.23 554.08 294.85 554.08 297.66 549.21 294.85 544.34 289.23 544.34 286.42 549.21 289.23 554.08" style="fill:#95d4e9"/><polygon points="289.23 570.35 294.85 570.35 297.66 565.48 294.85 560.61 289.23 560.61 286.42 565.48 289.23 570.35" style="fill:#95d4e9"/><polygon points="289.23 586.62 294.85 586.62 297.66 581.75 294.85 576.88 289.23 576.88 286.42 581.75 289.23 586.62" style="fill:#95d4e9"/></g><g style="opacity:0.5"><polygon points="274.83 138.39 280.46 138.39 283.27 133.52 280.46 128.66 274.83 128.66 272.02 133.52 274.83 138.39" style="fill:#95d4e9"/><polygon points="274.83 154.66 280.46 154.66 283.27 149.8 280.46 144.93 274.83 144.93 272.02 149.8 274.83 154.66" style="fill:#95d4e9"/><polygon points="274.83 170.94 280.46 170.94 283.27 166.07 280.46 161.2 274.83 161.2 272.02 166.07 274.83 170.94" style="fill:#95d4e9"/><polygon points="274.83 187.21 280.46 187.21 283.27 182.34 280.46 177.47 274.83 177.47 272.02 182.34 274.83 187.21" style="fill:#95d4e9"/><polygon points="274.83 203.48 280.46 203.48 283.27 198.61 280.46 193.74 274.83 193.74 272.02 198.61 274.83 203.48" style="fill:#95d4e9"/><polygon points="274.83 219.75 280.46 219.75 283.27 214.88 280.46 210.01 274.83 210.01 272.02 214.88 274.83 219.75" style="fill:#95d4e9"/><polygon points="274.83 236.02 280.46 236.02 283.27 231.15 280.46 226.28 274.83 226.28 272.02 231.15 274.83 236.02" style="fill:#95d4e9"/><polygon points="274.83 252.29 280.46 252.29 283.27 247.43 280.46 242.56 274.83 242.56 272.02 247.43 274.83 252.29" style="fill:#95d4e9"/><polygon points="274.83 268.57 280.46 268.57 283.27 263.7 280.46 258.83 274.83 258.83 272.02 263.7 274.83 268.57" style="fill:#95d4e9"/><polygon points="274.83 284.84 280.46 284.84 283.27 279.97 280.46 275.1 274.83 275.1 272.02 279.97 274.83 284.84" style="fill:#95d4e9"/><polygon points="274.83 301.11 280.46 301.11 283.27 296.24 280.46 291.37 274.83 291.37 272.02 296.24 274.83 301.11" style="fill:#95d4e9"/><polygon points="274.83 317.38 280.46 317.38 283.27 312.51 280.46 307.64 274.83 307.64 272.02 312.51 274.83 317.38" style="fill:#95d4e9"/><polygon points="274.83 333.65 280.46 333.65 283.27 328.78 280.46 323.91 274.83 323.91 272.02 328.78 274.83 333.65" style="fill:#95d4e9"/><polygon points="274.83 349.92 280.46 349.92 283.27 345.05 280.46 340.19 274.83 340.19 272.02 345.05 274.83 349.92" style="fill:#95d4e9"/><polygon points="274.83 366.19 280.46 366.19 283.27 361.33 280.46 356.46 274.83 356.46 272.02 361.33 274.83 366.19" style="fill:#95d4e9"/><polygon points="274.83 382.47 280.46 382.47 283.27 377.6 280.46 372.73 274.83 372.73 272.02 377.6 274.83 382.47" style="fill:#95d4e9"/><polygon points="274.83 398.74 280.46 398.74 283.27 393.87 280.46 389 274.83 389 272.02 393.87 274.83 398.74" style="fill:#95d4e9"/><polygon points="274.83 415.01 280.46 415.01 283.27 410.14 280.46 405.27 274.83 405.27 272.02 410.14 274.83 415.01" style="fill:#95d4e9"/><polygon points="274.83 431.28 280.46 431.28 283.27 426.41 280.46 421.54 274.83 421.54 272.02 426.41 274.83 431.28" style="fill:#95d4e9"/><polygon points="274.83 447.55 280.46 447.55 283.27 442.68 280.46 437.81 274.83 437.81 272.02 442.68 274.83 447.55" style="fill:#95d4e9"/><polygon points="274.83 463.82 280.46 463.82 283.27 458.95 280.46 454.09 274.83 454.09 272.02 458.95 274.83 463.82" style="fill:#95d4e9"/><polygon points="274.83 480.1 280.46 480.1 283.27 475.23 280.46 470.36 274.83 470.36 272.02 475.23 274.83 480.1" style="fill:#95d4e9"/><polygon points="274.83 496.37 280.46 496.37 283.27 491.5 280.46 486.63 274.83 486.63 272.02 491.5 274.83 496.37" style="fill:#95d4e9"/><polygon points="274.83 512.64 280.46 512.64 283.27 507.77 280.46 502.9 274.83 502.9 272.02 507.77 274.83 512.64" style="fill:#95d4e9"/><polygon points="274.83 528.91 280.46 528.91 283.27 524.04 280.46 519.17 274.83 519.17 272.02 524.04 274.83 528.91" style="fill:#95d4e9"/><polygon points="274.83 545.18 280.46 545.18 283.27 540.31 280.46 535.44 274.83 535.44 272.02 540.31 274.83 545.18" style="fill:#95d4e9"/><polygon points="274.83 561.45 280.46 561.45 283.27 556.59 280.46 551.72 274.83 551.72 272.02 556.59 274.83 561.45" style="fill:#95d4e9"/><polygon points="274.83 577.73 280.46 577.73 283.27 572.86 280.46 567.99 274.83 567.99 272.02 572.86 274.83 577.73" style="fill:#95d4e9"/></g><g style="opacity:0.5"><polygon points="260.46 147.29 266.08 147.29 268.89 142.42 266.08 137.55 260.46 137.55 257.65 142.42 260.46 147.29" style="fill:#95d4e9"/><polygon points="260.46 163.56 266.08 163.56 268.89 158.69 266.08 153.82 260.46 153.82 257.65 158.69 260.46 163.56" style="fill:#95d4e9"/><polygon points="260.46 179.83 266.08 179.83 268.89 174.96 266.08 170.09 260.46 170.09 257.65 174.96 260.46 179.83" style="fill:#95d4e9"/><polygon points="260.46 196.1 266.08 196.1 268.89 191.23 266.08 186.36 260.46 186.36 257.65 191.23 260.46 196.1" style="fill:#95d4e9"/><polygon points="260.46 212.37 266.08 212.37 268.89 207.5 266.08 202.63 260.46 202.63 257.65 207.5 260.46 212.37" style="fill:#95d4e9"/><polygon points="260.46 228.65 266.08 228.65 268.89 223.78 266.08 218.91 260.46 218.91 257.65 223.78 260.46 228.65" style="fill:#95d4e9"/><polygon points="260.46 244.92 266.08 244.92 268.89 240.05 266.08 235.18 260.46 235.18 257.65 240.05 260.46 244.92" style="fill:#95d4e9"/><polygon points="260.46 261.19 266.08 261.19 268.89 256.32 266.08 251.45 260.46 251.45 257.65 256.32 260.46 261.19" style="fill:#95d4e9"/><polygon points="260.46 277.46 266.08 277.46 268.89 272.59 266.08 267.72 260.46 267.72 257.65 272.59 260.46 277.46" style="fill:#95d4e9"/><polygon points="260.46 293.73 266.08 293.73 268.89 288.86 266.08 283.99 260.46 283.99 257.65 288.86 260.46 293.73" style="fill:#95d4e9"/><polygon points="260.46 310 266.08 310 268.89 305.13 266.08 300.26 260.46 300.26 257.65 305.13 260.46 310" style="fill:#95d4e9"/><polygon points="260.46 326.27 266.08 326.27 268.89 321.4 266.08 316.54 260.46 316.54 257.65 321.4 260.46 326.27" style="fill:#95d4e9"/><polygon points="260.46 342.55 266.08 342.55 268.89 337.68 266.08 332.81 260.46 332.81 257.65 337.68 260.46 342.55" style="fill:#95d4e9"/><polygon points="260.46 358.82 266.08 358.82 268.89 353.95 266.08 349.08 260.46 349.08 257.65 353.95 260.46 358.82" style="fill:#95d4e9"/><polygon points="260.46 375.09 266.08 375.09 268.89 370.22 266.08 365.35 260.46 365.35 257.65 370.22 260.46 375.09" style="fill:#95d4e9"/><polygon points="260.46 391.36 266.08 391.36 268.89 386.49 266.08 381.62 260.46 381.62 257.65 386.49 260.46 391.36" style="fill:#95d4e9"/><polygon points="260.46 407.63 266.08 407.63 268.89 402.76 266.08 397.89 260.46 397.89 257.65 402.76 260.46 407.63" style="fill:#95d4e9"/><polygon points="260.46 423.9 266.08 423.9 268.89 419.03 266.08 414.17 260.46 414.17 257.65 419.03 260.46 423.9" style="fill:#95d4e9"/><polygon points="260.46 440.18 266.08 440.18 268.89 435.31 266.08 430.44 260.46 430.44 257.65 435.31 260.46 440.18" style="fill:#95d4e9"/><polygon points="260.46 456.45 266.08 456.45 268.89 451.58 266.08 446.71 260.46 446.71 257.65 451.58 260.46 456.45" style="fill:#95d4e9"/><polygon points="260.46 472.72 266.08 472.72 268.89 467.85 266.08 462.98 260.46 462.98 257.65 467.85 260.46 472.72" style="fill:#95d4e9"/><polygon points="260.46 488.99 266.08 488.99 268.89 484.12 266.08 479.25 260.46 479.25 257.65 484.12 260.46 488.99" style="fill:#95d4e9"/><polygon points="260.46 505.26 266.08 505.26 268.89 500.39 266.08 495.52 260.46 495.52 257.65 500.39 260.46 505.26" style="fill:#95d4e9"/><polygon points="260.46 521.53 266.08 521.53 268.89 516.66 266.08 511.79 260.46 511.79 257.65 516.66 260.46 521.53" style="fill:#95d4e9"/><polygon points="260.46 537.8 266.08 537.8 268.89 532.93 266.08 528.07 260.46 528.07 257.65 532.93 260.46 537.8" style="fill:#95d4e9"/><polygon points="260.46 554.08 266.08 554.08 268.89 549.21 266.08 544.34 260.46 544.34 257.65 549.21 260.46 554.08" style="fill:#95d4e9"/><polygon points="260.46 570.35 266.08 570.35 268.89 565.48 266.08 560.61 260.46 560.61 257.65 565.48 260.46 570.35" style="fill:#95d4e9"/><polygon points="260.46 586.62 266.08 586.62 268.89 581.75 266.08 576.88 260.46 576.88 257.65 581.75 260.46 586.62" style="fill:#95d4e9"/></g><g style="opacity:0.5"><polygon points="246.07 138.39 251.69 138.39 254.5 133.52 251.69 128.66 246.07 128.66 243.26 133.52 246.07 138.39" style="fill:#95d4e9"/><polygon points="246.07 154.66 251.69 154.66 254.5 149.8 251.69 144.93 246.07 144.93 243.26 149.8 246.07 154.66" style="fill:#95d4e9"/><polygon points="246.07 170.94 251.69 170.94 254.5 166.07 251.69 161.2 246.07 161.2 243.26 166.07 246.07 170.94" style="fill:#95d4e9"/><polygon points="246.07 187.21 251.69 187.21 254.5 182.34 251.69 177.47 246.07 177.47 243.26 182.34 246.07 187.21" style="fill:#95d4e9"/><polygon points="246.07 203.48 251.69 203.48 254.5 198.61 251.69 193.74 246.07 193.74 243.26 198.61 246.07 203.48" style="fill:#95d4e9"/><polygon points="246.07 219.75 251.69 219.75 254.5 214.88 251.69 210.01 246.07 210.01 243.26 214.88 246.07 219.75" style="fill:#95d4e9"/><polygon points="246.07 236.02 251.69 236.02 254.5 231.15 251.69 226.28 246.07 226.28 243.26 231.15 246.07 236.02" style="fill:#95d4e9"/><polygon points="246.07 252.29 251.69 252.29 254.5 247.43 251.69 242.56 246.07 242.56 243.26 247.43 246.07 252.29" style="fill:#95d4e9"/><polygon points="246.07 268.57 251.69 268.57 254.5 263.7 251.69 258.83 246.07 258.83 243.26 263.7 246.07 268.57" style="fill:#95d4e9"/><polygon points="246.07 284.84 251.69 284.84 254.5 279.97 251.69 275.1 246.07 275.1 243.26 279.97 246.07 284.84" style="fill:#95d4e9"/><polygon points="246.07 301.11 251.69 301.11 254.5 296.24 251.69 291.37 246.07 291.37 243.26 296.24 246.07 301.11" style="fill:#95d4e9"/><polygon points="246.07 317.38 251.69 317.38 254.5 312.51 251.69 307.64 246.07 307.64 243.26 312.51 246.07 317.38" style="fill:#95d4e9"/><polygon points="246.07 333.65 251.69 333.65 254.5 328.78 251.69 323.91 246.07 323.91 243.26 328.78 246.07 333.65" style="fill:#95d4e9"/><polygon points="246.07 349.92 251.69 349.92 254.5 345.05 251.69 340.19 246.07 340.19 243.26 345.05 246.07 349.92" style="fill:#95d4e9"/><polygon points="246.07 366.19 251.69 366.19 254.5 361.33 251.69 356.46 246.07 356.46 243.26 361.33 246.07 366.19" style="fill:#95d4e9"/><polygon points="246.07 382.47 251.69 382.47 254.5 377.6 251.69 372.73 246.07 372.73 243.26 377.6 246.07 382.47" style="fill:#95d4e9"/><polygon points="246.07 398.74 251.69 398.74 254.5 393.87 251.69 389 246.07 389 243.26 393.87 246.07 398.74" style="fill:#95d4e9"/><polygon points="246.07 415.01 251.69 415.01 254.5 410.14 251.69 405.27 246.07 405.27 243.26 410.14 246.07 415.01" style="fill:#95d4e9"/><polygon points="246.07 431.28 251.69 431.28 254.5 426.41 251.69 421.54 246.07 421.54 243.26 426.41 246.07 431.28" style="fill:#95d4e9"/><polygon points="246.07 447.55 251.69 447.55 254.5 442.68 251.69 437.81 246.07 437.81 243.26 442.68 246.07 447.55" style="fill:#95d4e9"/><polygon points="246.07 463.82 251.69 463.82 254.5 458.95 251.69 454.09 246.07 454.09 243.26 458.95 246.07 463.82" style="fill:#95d4e9"/><polygon points="246.07 480.1 251.69 480.1 254.5 475.23 251.69 470.36 246.07 470.36 243.26 475.23 246.07 480.1" style="fill:#95d4e9"/><polygon points="246.07 496.37 251.69 496.37 254.5 491.5 251.69 486.63 246.07 486.63 243.26 491.5 246.07 496.37" style="fill:#95d4e9"/><polygon points="246.07 512.64 251.69 512.64 254.5 507.77 251.69 502.9 246.07 502.9 243.26 507.77 246.07 512.64" style="fill:#95d4e9"/><polygon points="246.07 528.91 251.69 528.91 254.5 524.04 251.69 519.17 246.07 519.17 243.26 524.04 246.07 528.91" style="fill:#95d4e9"/><polygon points="246.07 545.18 251.69 545.18 254.5 540.31 251.69 535.44 246.07 535.44 243.26 540.31 246.07 545.18" style="fill:#95d4e9"/><polygon points="246.07 561.45 251.69 561.45 254.5 556.59 251.69 551.72 246.07 551.72 243.26 556.59 246.07 561.45" style="fill:#95d4e9"/><polygon points="246.07 577.73 251.69 577.73 254.5 572.86 251.69 567.99 246.07 567.99 243.26 572.86 246.07 577.73" style="fill:#95d4e9"/></g><g style="opacity:0.5"><polygon points="231.69 147.29 237.32 147.29 240.13 142.42 237.32 137.55 231.69 137.55 228.88 142.42 231.69 147.29" style="fill:#95d4e9"/><polygon points="231.69 163.56 237.32 163.56 240.13 158.69 237.32 153.82 231.69 153.82 228.88 158.69 231.69 163.56" style="fill:#95d4e9"/><polygon points="231.69 179.83 237.32 179.83 240.13 174.96 237.32 170.09 231.69 170.09 228.88 174.96 231.69 179.83" style="fill:#95d4e9"/><polygon points="231.69 196.1 237.32 196.1 240.13 191.23 237.32 186.36 231.69 186.36 228.88 191.23 231.69 196.1" style="fill:#95d4e9"/><polygon points="231.69 212.37 237.32 212.37 240.13 207.5 237.32 202.63 231.69 202.63 228.88 207.5 231.69 212.37" style="fill:#95d4e9"/><polygon points="231.69 228.65 237.32 228.65 240.13 223.78 237.32 218.91 231.69 218.91 228.88 223.78 231.69 228.65" style="fill:#95d4e9"/><polygon points="231.69 244.92 237.32 244.92 240.13 240.05 237.32 235.18 231.69 235.18 228.88 240.05 231.69 244.92" style="fill:#95d4e9"/><polygon points="231.69 261.19 237.32 261.19 240.13 256.32 237.32 251.45 231.69 251.45 228.88 256.32 231.69 261.19" style="fill:#95d4e9"/><polygon points="231.69 277.46 237.32 277.46 240.13 272.59 237.32 267.72 231.69 267.72 228.88 272.59 231.69 277.46" style="fill:#95d4e9"/><polygon points="231.69 293.73 237.32 293.73 240.13 288.86 237.32 283.99 231.69 283.99 228.88 288.86 231.69 293.73" style="fill:#95d4e9"/><polygon points="231.69 310 237.32 310 240.13 305.13 237.32 300.26 231.69 300.26 228.88 305.13 231.69 310" style="fill:#95d4e9"/><polygon points="231.69 326.27 237.32 326.27 240.13 321.4 237.32 316.54 231.69 316.54 228.88 321.4 231.69 326.27" style="fill:#95d4e9"/><polygon points="231.69 342.55 237.32 342.55 240.13 337.68 237.32 332.81 231.69 332.81 228.88 337.68 231.69 342.55" style="fill:#95d4e9"/><polygon points="231.69 358.82 237.32 358.82 240.13 353.95 237.32 349.08 231.69 349.08 228.88 353.95 231.69 358.82" style="fill:#95d4e9"/><polygon points="231.69 375.09 237.32 375.09 240.13 370.22 237.32 365.35 231.69 365.35 228.88 370.22 231.69 375.09" style="fill:#95d4e9"/><polygon points="231.69 391.36 237.32 391.36 240.13 386.49 237.32 381.62 231.69 381.62 228.88 386.49 231.69 391.36" style="fill:#95d4e9"/><polygon points="231.69 407.63 237.32 407.63 240.13 402.76 237.32 397.89 231.69 397.89 228.88 402.76 231.69 407.63" style="fill:#95d4e9"/><polygon points="231.69 423.9 237.32 423.9 240.13 419.03 237.32 414.17 231.69 414.17 228.88 419.03 231.69 423.9" style="fill:#95d4e9"/><polygon points="231.69 440.18 237.32 440.18 240.13 435.31 237.32 430.44 231.69 430.44 228.88 435.31 231.69 440.18" style="fill:#95d4e9"/><polygon points="231.69 456.45 237.32 456.45 240.13 451.58 237.32 446.71 231.69 446.71 228.88 451.58 231.69 456.45" style="fill:#95d4e9"/><polygon points="231.69 472.72 237.32 472.72 240.13 467.85 237.32 462.98 231.69 462.98 228.88 467.85 231.69 472.72" style="fill:#95d4e9"/><polygon points="231.69 488.99 237.32 488.99 240.13 484.12 237.32 479.25 231.69 479.25 228.88 484.12 231.69 488.99" style="fill:#95d4e9"/><polygon points="231.69 505.26 237.32 505.26 240.13 500.39 237.32 495.52 231.69 495.52 228.88 500.39 231.69 505.26" style="fill:#95d4e9"/><polygon points="231.69 521.53 237.32 521.53 240.13 516.66 237.32 511.79 231.69 511.79 228.88 516.66 231.69 521.53" style="fill:#95d4e9"/><polygon points="231.69 537.8 237.32 537.8 240.13 532.93 237.32 528.07 231.69 528.07 228.88 532.93 231.69 537.8" style="fill:#95d4e9"/><polygon points="231.69 554.08 237.32 554.08 240.13 549.21 237.32 544.34 231.69 544.34 228.88 549.21 231.69 554.08" style="fill:#95d4e9"/><polygon points="231.69 570.35 237.32 570.35 240.13 565.48 237.32 560.61 231.69 560.61 228.88 565.48 231.69 570.35" style="fill:#95d4e9"/><polygon points="231.69 586.62 237.32 586.62 240.13 581.75 237.32 576.88 231.69 576.88 228.88 581.75 231.69 586.62" style="fill:#95d4e9"/></g><g style="opacity:0.5"><polygon points="217.3 138.39 222.92 138.39 225.73 133.52 222.92 128.66 217.3 128.66 214.49 133.52 217.3 138.39" style="fill:#95d4e9"/><polygon points="217.3 154.66 222.92 154.66 225.73 149.8 222.92 144.93 217.3 144.93 214.49 149.8 217.3 154.66" style="fill:#95d4e9"/><polygon points="217.3 170.94 222.92 170.94 225.73 166.07 222.92 161.2 217.3 161.2 214.49 166.07 217.3 170.94" style="fill:#95d4e9"/><polygon points="217.3 187.21 222.92 187.21 225.73 182.34 222.92 177.47 217.3 177.47 214.49 182.34 217.3 187.21" style="fill:#95d4e9"/><polygon points="217.3 203.48 222.92 203.48 225.73 198.61 222.92 193.74 217.3 193.74 214.49 198.61 217.3 203.48" style="fill:#95d4e9"/><polygon points="217.3 219.75 222.92 219.75 225.73 214.88 222.92 210.01 217.3 210.01 214.49 214.88 217.3 219.75" style="fill:#95d4e9"/><polygon points="217.3 236.02 222.92 236.02 225.73 231.15 222.92 226.28 217.3 226.28 214.49 231.15 217.3 236.02" style="fill:#95d4e9"/><polygon points="217.3 252.29 222.92 252.29 225.73 247.43 222.92 242.56 217.3 242.56 214.49 247.43 217.3 252.29" style="fill:#95d4e9"/><polygon points="217.3 268.57 222.92 268.57 225.73 263.7 222.92 258.83 217.3 258.83 214.49 263.7 217.3 268.57" style="fill:#95d4e9"/><polygon points="217.3 284.84 222.92 284.84 225.73 279.97 222.92 275.1 217.3 275.1 214.49 279.97 217.3 284.84" style="fill:#95d4e9"/><polygon points="217.3 301.11 222.92 301.11 225.73 296.24 222.92 291.37 217.3 291.37 214.49 296.24 217.3 301.11" style="fill:#95d4e9"/><polygon points="217.3 317.38 222.92 317.38 225.73 312.51 222.92 307.64 217.3 307.64 214.49 312.51 217.3 317.38" style="fill:#95d4e9"/><polygon points="217.3 333.65 222.92 333.65 225.73 328.78 222.92 323.91 217.3 323.91 214.49 328.78 217.3 333.65" style="fill:#95d4e9"/><polygon points="217.3 349.92 222.92 349.92 225.73 345.05 222.92 340.19 217.3 340.19 214.49 345.05 217.3 349.92" style="fill:#95d4e9"/><polygon points="217.3 366.19 222.92 366.19 225.73 361.33 222.92 356.46 217.3 356.46 214.49 361.33 217.3 366.19" style="fill:#95d4e9"/><polygon points="217.3 382.47 222.92 382.47 225.73 377.6 222.92 372.73 217.3 372.73 214.49 377.6 217.3 382.47" style="fill:#95d4e9"/><polygon points="217.3 398.74 222.92 398.74 225.73 393.87 222.92 389 217.3 389 214.49 393.87 217.3 398.74" style="fill:#95d4e9"/><polygon points="217.3 415.01 222.92 415.01 225.73 410.14 222.92 405.27 217.3 405.27 214.49 410.14 217.3 415.01" style="fill:#95d4e9"/><polygon points="217.3 431.28 222.92 431.28 225.73 426.41 222.92 421.54 217.3 421.54 214.49 426.41 217.3 431.28" style="fill:#95d4e9"/><polygon points="217.3 447.55 222.92 447.55 225.73 442.68 222.92 437.81 217.3 437.81 214.49 442.68 217.3 447.55" style="fill:#95d4e9"/><polygon points="217.3 463.82 222.92 463.82 225.73 458.95 222.92 454.09 217.3 454.09 214.49 458.95 217.3 463.82" style="fill:#95d4e9"/><polygon points="217.3 480.1 222.92 480.1 225.73 475.23 222.92 470.36 217.3 470.36 214.49 475.23 217.3 480.1" style="fill:#95d4e9"/><polygon points="217.3 496.37 222.92 496.37 225.73 491.5 222.92 486.63 217.3 486.63 214.49 491.5 217.3 496.37" style="fill:#95d4e9"/><polygon points="217.3 512.64 222.92 512.64 225.73 507.77 222.92 502.9 217.3 502.9 214.49 507.77 217.3 512.64" style="fill:#95d4e9"/><polygon points="217.3 528.91 222.92 528.91 225.73 524.04 222.92 519.17 217.3 519.17 214.49 524.04 217.3 528.91" style="fill:#95d4e9"/><polygon points="217.3 545.18 222.92 545.18 225.73 540.31 222.92 535.44 217.3 535.44 214.49 540.31 217.3 545.18" style="fill:#95d4e9"/><polygon points="217.3 561.45 222.92 561.45 225.73 556.59 222.92 551.72 217.3 551.72 214.49 556.59 217.3 561.45" style="fill:#95d4e9"/><polygon points="217.3 577.73 222.92 577.73 225.73 572.86 222.92 567.99 217.3 567.99 214.49 572.86 217.3 577.73" style="fill:#95d4e9"/></g><g style="opacity:0.5"><polygon points="202.93 147.29 208.55 147.29 211.36 142.42 208.55 137.55 202.93 137.55 200.12 142.42 202.93 147.29" style="fill:#95d4e9"/><polygon points="202.93 163.56 208.55 163.56 211.36 158.69 208.55 153.82 202.93 153.82 200.12 158.69 202.93 163.56" style="fill:#95d4e9"/><polygon points="202.93 179.83 208.55 179.83 211.36 174.96 208.55 170.09 202.93 170.09 200.12 174.96 202.93 179.83" style="fill:#95d4e9"/><polygon points="202.93 196.1 208.55 196.1 211.36 191.23 208.55 186.36 202.93 186.36 200.12 191.23 202.93 196.1" style="fill:#95d4e9"/><polygon points="202.93 212.37 208.55 212.37 211.36 207.5 208.55 202.63 202.93 202.63 200.12 207.5 202.93 212.37" style="fill:#95d4e9"/><polygon points="202.93 228.65 208.55 228.65 211.36 223.78 208.55 218.91 202.93 218.91 200.12 223.78 202.93 228.65" style="fill:#95d4e9"/><polygon points="202.93 244.92 208.55 244.92 211.36 240.05 208.55 235.18 202.93 235.18 200.12 240.05 202.93 244.92" style="fill:#95d4e9"/><polygon points="202.93 261.19 208.55 261.19 211.36 256.32 208.55 251.45 202.93 251.45 200.12 256.32 202.93 261.19" style="fill:#95d4e9"/><polygon points="202.93 277.46 208.55 277.46 211.36 272.59 208.55 267.72 202.93 267.72 200.12 272.59 202.93 277.46" style="fill:#95d4e9"/><polygon points="202.93 293.73 208.55 293.73 211.36 288.86 208.55 283.99 202.93 283.99 200.12 288.86 202.93 293.73" style="fill:#95d4e9"/><polygon points="202.93 310 208.55 310 211.36 305.13 208.55 300.26 202.93 300.26 200.12 305.13 202.93 310" style="fill:#95d4e9"/><polygon points="202.93 326.27 208.55 326.27 211.36 321.4 208.55 316.54 202.93 316.54 200.12 321.4 202.93 326.27" style="fill:#95d4e9"/><polygon points="202.93 342.55 208.55 342.55 211.36 337.68 208.55 332.81 202.93 332.81 200.12 337.68 202.93 342.55" style="fill:#95d4e9"/><polygon points="202.93 358.82 208.55 358.82 211.36 353.95 208.55 349.08 202.93 349.08 200.12 353.95 202.93 358.82" style="fill:#95d4e9"/><polygon points="202.93 375.09 208.55 375.09 211.36 370.22 208.55 365.35 202.93 365.35 200.12 370.22 202.93 375.09" style="fill:#95d4e9"/><polygon points="202.93 391.36 208.55 391.36 211.36 386.49 208.55 381.62 202.93 381.62 200.12 386.49 202.93 391.36" style="fill:#95d4e9"/><polygon points="202.93 407.63 208.55 407.63 211.36 402.76 208.55 397.89 202.93 397.89 200.12 402.76 202.93 407.63" style="fill:#95d4e9"/><polygon points="202.93 423.9 208.55 423.9 211.36 419.03 208.55 414.17 202.93 414.17 200.12 419.03 202.93 423.9" style="fill:#95d4e9"/><polygon points="202.93 440.18 208.55 440.18 211.36 435.31 208.55 430.44 202.93 430.44 200.12 435.31 202.93 440.18" style="fill:#95d4e9"/><polygon points="202.93 456.45 208.55 456.45 211.36 451.58 208.55 446.71 202.93 446.71 200.12 451.58 202.93 456.45" style="fill:#95d4e9"/><polygon points="202.93 472.72 208.55 472.72 211.36 467.85 208.55 462.98 202.93 462.98 200.12 467.85 202.93 472.72" style="fill:#95d4e9"/><polygon points="202.93 488.99 208.55 488.99 211.36 484.12 208.55 479.25 202.93 479.25 200.12 484.12 202.93 488.99" style="fill:#95d4e9"/><polygon points="202.93 505.26 208.55 505.26 211.36 500.39 208.55 495.52 202.93 495.52 200.12 500.39 202.93 505.26" style="fill:#95d4e9"/><polygon points="202.93 521.53 208.55 521.53 211.36 516.66 208.55 511.79 202.93 511.79 200.12 516.66 202.93 521.53" style="fill:#95d4e9"/><polygon points="202.93 537.8 208.55 537.8 211.36 532.93 208.55 528.07 202.93 528.07 200.12 532.93 202.93 537.8" style="fill:#95d4e9"/><polygon points="202.93 554.08 208.55 554.08 211.36 549.21 208.55 544.34 202.93 544.34 200.12 549.21 202.93 554.08" style="fill:#95d4e9"/><polygon points="202.93 570.35 208.55 570.35 211.36 565.48 208.55 560.61 202.93 560.61 200.12 565.48 202.93 570.35" style="fill:#95d4e9"/><polygon points="202.93 586.62 208.55 586.62 211.36 581.75 208.55 576.88 202.93 576.88 200.12 581.75 202.93 586.62" style="fill:#95d4e9"/></g><g style="opacity:0.5"><polygon points="188.53 138.39 194.16 138.39 196.97 133.52 194.16 128.66 188.53 128.66 185.72 133.52 188.53 138.39" style="fill:#95d4e9"/><polygon points="188.53 154.66 194.16 154.66 196.97 149.8 194.16 144.93 188.53 144.93 185.72 149.8 188.53 154.66" style="fill:#95d4e9"/><polygon points="188.53 170.94 194.16 170.94 196.97 166.07 194.16 161.2 188.53 161.2 185.72 166.07 188.53 170.94" style="fill:#95d4e9"/><polygon points="188.53 187.21 194.16 187.21 196.97 182.34 194.16 177.47 188.53 177.47 185.72 182.34 188.53 187.21" style="fill:#95d4e9"/><polygon points="188.53 203.48 194.16 203.48 196.97 198.61 194.16 193.74 188.53 193.74 185.72 198.61 188.53 203.48" style="fill:#95d4e9"/><polygon points="188.53 219.75 194.16 219.75 196.97 214.88 194.16 210.01 188.53 210.01 185.72 214.88 188.53 219.75" style="fill:#95d4e9"/><polygon points="188.53 236.02 194.16 236.02 196.97 231.15 194.16 226.28 188.53 226.28 185.72 231.15 188.53 236.02" style="fill:#95d4e9"/><polygon points="188.53 252.29 194.16 252.29 196.97 247.43 194.16 242.56 188.53 242.56 185.72 247.43 188.53 252.29" style="fill:#95d4e9"/><polygon points="188.53 268.57 194.16 268.57 196.97 263.7 194.16 258.83 188.53 258.83 185.72 263.7 188.53 268.57" style="fill:#95d4e9"/><polygon points="188.53 284.84 194.16 284.84 196.97 279.97 194.16 275.1 188.53 275.1 185.72 279.97 188.53 284.84" style="fill:#95d4e9"/><polygon points="188.53 301.11 194.16 301.11 196.97 296.24 194.16 291.37 188.53 291.37 185.72 296.24 188.53 301.11" style="fill:#95d4e9"/><polygon points="188.53 317.38 194.16 317.38 196.97 312.51 194.16 307.64 188.53 307.64 185.72 312.51 188.53 317.38" style="fill:#95d4e9"/><polygon points="188.53 333.65 194.16 333.65 196.97 328.78 194.16 323.91 188.53 323.91 185.72 328.78 188.53 333.65" style="fill:#95d4e9"/><polygon points="188.53 349.92 194.16 349.92 196.97 345.05 194.16 340.19 188.53 340.19 185.72 345.05 188.53 349.92" style="fill:#95d4e9"/><polygon points="188.53 366.19 194.16 366.19 196.97 361.33 194.16 356.46 188.53 356.46 185.72 361.33 188.53 366.19" style="fill:#95d4e9"/><polygon points="188.53 382.47 194.16 382.47 196.97 377.6 194.16 372.73 188.53 372.73 185.72 377.6 188.53 382.47" style="fill:#95d4e9"/><polygon points="188.53 398.74 194.16 398.74 196.97 393.87 194.16 389 188.53 389 185.72 393.87 188.53 398.74" style="fill:#95d4e9"/><polygon points="188.53 415.01 194.16 415.01 196.97 410.14 194.16 405.27 188.53 405.27 185.72 410.14 188.53 415.01" style="fill:#95d4e9"/><polygon points="188.53 431.28 194.16 431.28 196.97 426.41 194.16 421.54 188.53 421.54 185.72 426.41 188.53 431.28" style="fill:#95d4e9"/><polygon points="188.53 447.55 194.16 447.55 196.97 442.68 194.16 437.81 188.53 437.81 185.72 442.68 188.53 447.55" style="fill:#95d4e9"/><polygon points="188.53 463.82 194.16 463.82 196.97 458.95 194.16 454.09 188.53 454.09 185.72 458.95 188.53 463.82" style="fill:#95d4e9"/><polygon points="188.53 480.1 194.16 480.1 196.97 475.23 194.16 470.36 188.53 470.36 185.72 475.23 188.53 480.1" style="fill:#95d4e9"/><polygon points="188.53 496.37 194.16 496.37 196.97 491.5 194.16 486.63 188.53 486.63 185.72 491.5 188.53 496.37" style="fill:#95d4e9"/><polygon points="188.53 512.64 194.16 512.64 196.97 507.77 194.16 502.9 188.53 502.9 185.72 507.77 188.53 512.64" style="fill:#95d4e9"/><polygon points="188.53 528.91 194.16 528.91 196.97 524.04 194.16 519.17 188.53 519.17 185.72 524.04 188.53 528.91" style="fill:#95d4e9"/><polygon points="188.53 545.18 194.16 545.18 196.97 540.31 194.16 535.44 188.53 535.44 185.72 540.31 188.53 545.18" style="fill:#95d4e9"/><polygon points="188.53 561.45 194.16 561.45 196.97 556.59 194.16 551.72 188.53 551.72 185.72 556.59 188.53 561.45" style="fill:#95d4e9"/><polygon points="188.53 577.73 194.16 577.73 196.97 572.86 194.16 567.99 188.53 567.99 185.72 572.86 188.53 577.73" style="fill:#95d4e9"/></g><g style="opacity:0.5"><polygon points="174.16 147.29 179.78 147.29 182.59 142.42 179.78 137.55 174.16 137.55 171.35 142.42 174.16 147.29" style="fill:#95d4e9"/><polygon points="174.16 163.56 179.78 163.56 182.59 158.69 179.78 153.82 174.16 153.82 171.35 158.69 174.16 163.56" style="fill:#95d4e9"/><polygon points="174.16 179.83 179.78 179.83 182.59 174.96 179.78 170.09 174.16 170.09 171.35 174.96 174.16 179.83" style="fill:#95d4e9"/><polygon points="174.16 196.1 179.78 196.1 182.59 191.23 179.78 186.36 174.16 186.36 171.35 191.23 174.16 196.1" style="fill:#95d4e9"/><polygon points="174.16 212.37 179.78 212.37 182.59 207.5 179.78 202.63 174.16 202.63 171.35 207.5 174.16 212.37" style="fill:#95d4e9"/><polygon points="174.16 228.65 179.78 228.65 182.59 223.78 179.78 218.91 174.16 218.91 171.35 223.78 174.16 228.65" style="fill:#95d4e9"/><polygon points="174.16 244.92 179.78 244.92 182.59 240.05 179.78 235.18 174.16 235.18 171.35 240.05 174.16 244.92" style="fill:#95d4e9"/><polygon points="174.16 261.19 179.78 261.19 182.59 256.32 179.78 251.45 174.16 251.45 171.35 256.32 174.16 261.19" style="fill:#95d4e9"/><polygon points="174.16 277.46 179.78 277.46 182.59 272.59 179.78 267.72 174.16 267.72 171.35 272.59 174.16 277.46" style="fill:#95d4e9"/><polygon points="174.16 293.73 179.78 293.73 182.59 288.86 179.78 283.99 174.16 283.99 171.35 288.86 174.16 293.73" style="fill:#95d4e9"/><polygon points="174.16 310 179.78 310 182.59 305.13 179.78 300.26 174.16 300.26 171.35 305.13 174.16 310" style="fill:#95d4e9"/><polygon points="174.16 326.27 179.78 326.27 182.59 321.4 179.78 316.54 174.16 316.54 171.35 321.4 174.16 326.27" style="fill:#95d4e9"/><polygon points="174.16 342.55 179.78 342.55 182.59 337.68 179.78 332.81 174.16 332.81 171.35 337.68 174.16 342.55" style="fill:#95d4e9"/><polygon points="174.16 358.82 179.78 358.82 182.59 353.95 179.78 349.08 174.16 349.08 171.35 353.95 174.16 358.82" style="fill:#95d4e9"/><polygon points="174.16 375.09 179.78 375.09 182.59 370.22 179.78 365.35 174.16 365.35 171.35 370.22 174.16 375.09" style="fill:#95d4e9"/><polygon points="174.16 391.36 179.78 391.36 182.59 386.49 179.78 381.62 174.16 381.62 171.35 386.49 174.16 391.36" style="fill:#95d4e9"/><polygon points="174.16 407.63 179.78 407.63 182.59 402.76 179.78 397.89 174.16 397.89 171.35 402.76 174.16 407.63" style="fill:#95d4e9"/><polygon points="174.16 423.9 179.78 423.9 182.59 419.03 179.78 414.17 174.16 414.17 171.35 419.03 174.16 423.9" style="fill:#95d4e9"/><polygon points="174.16 440.18 179.78 440.18 182.59 435.31 179.78 430.44 174.16 430.44 171.35 435.31 174.16 440.18" style="fill:#95d4e9"/><polygon points="174.16 456.45 179.78 456.45 182.59 451.58 179.78 446.71 174.16 446.71 171.35 451.58 174.16 456.45" style="fill:#95d4e9"/><polygon points="174.16 472.72 179.78 472.72 182.59 467.85 179.78 462.98 174.16 462.98 171.35 467.85 174.16 472.72" style="fill:#95d4e9"/><polygon points="174.16 488.99 179.78 488.99 182.59 484.12 179.78 479.25 174.16 479.25 171.35 484.12 174.16 488.99" style="fill:#95d4e9"/><polygon points="174.16 505.26 179.78 505.26 182.59 500.39 179.78 495.52 174.16 495.52 171.35 500.39 174.16 505.26" style="fill:#95d4e9"/><polygon points="174.16 521.53 179.78 521.53 182.59 516.66 179.78 511.79 174.16 511.79 171.35 516.66 174.16 521.53" style="fill:#95d4e9"/><polygon points="174.16 537.8 179.78 537.8 182.59 532.93 179.78 528.07 174.16 528.07 171.35 532.93 174.16 537.8" style="fill:#95d4e9"/><polygon points="174.16 554.08 179.78 554.08 182.59 549.21 179.78 544.34 174.16 544.34 171.35 549.21 174.16 554.08" style="fill:#95d4e9"/><polygon points="174.16 570.35 179.78 570.35 182.59 565.48 179.78 560.61 174.16 560.61 171.35 565.48 174.16 570.35" style="fill:#95d4e9"/><polygon points="174.16 586.62 179.78 586.62 182.59 581.75 179.78 576.88 174.16 576.88 171.35 581.75 174.16 586.62" style="fill:#95d4e9"/></g><g style="opacity:0.5"><polygon points="159.77 138.39 165.39 138.39 168.2 133.52 165.39 128.66 159.77 128.66 156.96 133.52 159.77 138.39" style="fill:#95d4e9"/><polygon points="159.77 154.66 165.39 154.66 168.2 149.8 165.39 144.93 159.77 144.93 156.96 149.8 159.77 154.66" style="fill:#95d4e9"/><polygon points="159.77 170.94 165.39 170.94 168.2 166.07 165.39 161.2 159.77 161.2 156.96 166.07 159.77 170.94" style="fill:#95d4e9"/><polygon points="159.77 187.21 165.39 187.21 168.2 182.34 165.39 177.47 159.77 177.47 156.96 182.34 159.77 187.21" style="fill:#95d4e9"/><polygon points="159.77 203.48 165.39 203.48 168.2 198.61 165.39 193.74 159.77 193.74 156.96 198.61 159.77 203.48" style="fill:#95d4e9"/><polygon points="159.77 219.75 165.39 219.75 168.2 214.88 165.39 210.01 159.77 210.01 156.96 214.88 159.77 219.75" style="fill:#95d4e9"/><polygon points="159.77 236.02 165.39 236.02 168.2 231.15 165.39 226.28 159.77 226.28 156.96 231.15 159.77 236.02" style="fill:#95d4e9"/><polygon points="159.77 252.29 165.39 252.29 168.2 247.43 165.39 242.56 159.77 242.56 156.96 247.43 159.77 252.29" style="fill:#95d4e9"/><polygon points="159.77 268.57 165.39 268.57 168.2 263.7 165.39 258.83 159.77 258.83 156.96 263.7 159.77 268.57" style="fill:#95d4e9"/><polygon points="159.77 284.84 165.39 284.84 168.2 279.97 165.39 275.1 159.77 275.1 156.96 279.97 159.77 284.84" style="fill:#95d4e9"/><polygon points="159.77 301.11 165.39 301.11 168.2 296.24 165.39 291.37 159.77 291.37 156.96 296.24 159.77 301.11" style="fill:#95d4e9"/><polygon points="159.77 317.38 165.39 317.38 168.2 312.51 165.39 307.64 159.77 307.64 156.96 312.51 159.77 317.38" style="fill:#95d4e9"/><polygon points="159.77 333.65 165.39 333.65 168.2 328.78 165.39 323.91 159.77 323.91 156.96 328.78 159.77 333.65" style="fill:#95d4e9"/><polygon points="159.77 349.92 165.39 349.92 168.2 345.05 165.39 340.19 159.77 340.19 156.96 345.05 159.77 349.92" style="fill:#95d4e9"/><polygon points="159.77 366.19 165.39 366.19 168.2 361.33 165.39 356.46 159.77 356.46 156.96 361.33 159.77 366.19" style="fill:#95d4e9"/><polygon points="159.77 382.47 165.39 382.47 168.2 377.6 165.39 372.73 159.77 372.73 156.96 377.6 159.77 382.47" style="fill:#95d4e9"/><polygon points="159.77 398.74 165.39 398.74 168.2 393.87 165.39 389 159.77 389 156.96 393.87 159.77 398.74" style="fill:#95d4e9"/><polygon points="159.77 415.01 165.39 415.01 168.2 410.14 165.39 405.27 159.77 405.27 156.96 410.14 159.77 415.01" style="fill:#95d4e9"/><polygon points="159.77 431.28 165.39 431.28 168.2 426.41 165.39 421.54 159.77 421.54 156.96 426.41 159.77 431.28" style="fill:#95d4e9"/><polygon points="159.77 447.55 165.39 447.55 168.2 442.68 165.39 437.81 159.77 437.81 156.96 442.68 159.77 447.55" style="fill:#95d4e9"/><polygon points="159.77 463.82 165.39 463.82 168.2 458.95 165.39 454.09 159.77 454.09 156.96 458.95 159.77 463.82" style="fill:#95d4e9"/><polygon points="159.77 480.1 165.39 480.1 168.2 475.23 165.39 470.36 159.77 470.36 156.96 475.23 159.77 480.1" style="fill:#95d4e9"/><polygon points="159.77 496.37 165.39 496.37 168.2 491.5 165.39 486.63 159.77 486.63 156.96 491.5 159.77 496.37" style="fill:#95d4e9"/><polygon points="159.77 512.64 165.39 512.64 168.2 507.77 165.39 502.9 159.77 502.9 156.96 507.77 159.77 512.64" style="fill:#95d4e9"/><polygon points="159.77 528.91 165.39 528.91 168.2 524.04 165.39 519.17 159.77 519.17 156.96 524.04 159.77 528.91" style="fill:#95d4e9"/><polygon points="159.77 545.18 165.39 545.18 168.2 540.31 165.39 535.44 159.77 535.44 156.96 540.31 159.77 545.18" style="fill:#95d4e9"/><polygon points="159.77 561.45 165.39 561.45 168.2 556.59 165.39 551.72 159.77 551.72 156.96 556.59 159.77 561.45" style="fill:#95d4e9"/><polygon points="159.77 577.73 165.39 577.73 168.2 572.86 165.39 567.99 159.77 567.99 156.96 572.86 159.77 577.73" style="fill:#95d4e9"/></g><g style="opacity:0.5"><polygon points="145.39 147.29 151.02 147.29 153.83 142.42 151.02 137.55 145.39 137.55 142.58 142.42 145.39 147.29" style="fill:#95d4e9"/><polygon points="145.39 163.56 151.02 163.56 153.83 158.69 151.02 153.82 145.39 153.82 142.58 158.69 145.39 163.56" style="fill:#95d4e9"/><polygon points="145.39 179.83 151.02 179.83 153.83 174.96 151.02 170.09 145.39 170.09 142.58 174.96 145.39 179.83" style="fill:#95d4e9"/><polygon points="145.39 196.1 151.02 196.1 153.83 191.23 151.02 186.36 145.39 186.36 142.58 191.23 145.39 196.1" style="fill:#95d4e9"/><polygon points="145.39 212.37 151.02 212.37 153.83 207.5 151.02 202.63 145.39 202.63 142.58 207.5 145.39 212.37" style="fill:#95d4e9"/><polygon points="145.39 228.65 151.02 228.65 153.83 223.78 151.02 218.91 145.39 218.91 142.58 223.78 145.39 228.65" style="fill:#95d4e9"/><polygon points="145.39 244.92 151.02 244.92 153.83 240.05 151.02 235.18 145.39 235.18 142.58 240.05 145.39 244.92" style="fill:#95d4e9"/><polygon points="145.39 261.19 151.02 261.19 153.83 256.32 151.02 251.45 145.39 251.45 142.58 256.32 145.39 261.19" style="fill:#95d4e9"/><polygon points="145.39 277.46 151.02 277.46 153.83 272.59 151.02 267.72 145.39 267.72 142.58 272.59 145.39 277.46" style="fill:#95d4e9"/><polygon points="145.39 293.73 151.02 293.73 153.83 288.86 151.02 283.99 145.39 283.99 142.58 288.86 145.39 293.73" style="fill:#95d4e9"/><polygon points="145.39 310 151.02 310 153.83 305.13 151.02 300.26 145.39 300.26 142.58 305.13 145.39 310" style="fill:#95d4e9"/><polygon points="145.39 326.27 151.02 326.27 153.83 321.4 151.02 316.54 145.39 316.54 142.58 321.4 145.39 326.27" style="fill:#95d4e9"/><polygon points="145.39 342.55 151.02 342.55 153.83 337.68 151.02 332.81 145.39 332.81 142.58 337.68 145.39 342.55" style="fill:#95d4e9"/><polygon points="145.39 358.82 151.02 358.82 153.83 353.95 151.02 349.08 145.39 349.08 142.58 353.95 145.39 358.82" style="fill:#95d4e9"/><polygon points="145.39 375.09 151.02 375.09 153.83 370.22 151.02 365.35 145.39 365.35 142.58 370.22 145.39 375.09" style="fill:#95d4e9"/><polygon points="145.39 391.36 151.02 391.36 153.83 386.49 151.02 381.62 145.39 381.62 142.58 386.49 145.39 391.36" style="fill:#95d4e9"/><polygon points="145.39 407.63 151.02 407.63 153.83 402.76 151.02 397.89 145.39 397.89 142.58 402.76 145.39 407.63" style="fill:#95d4e9"/><polygon points="145.39 423.9 151.02 423.9 153.83 419.03 151.02 414.17 145.39 414.17 142.58 419.03 145.39 423.9" style="fill:#95d4e9"/><polygon points="145.39 440.18 151.02 440.18 153.83 435.31 151.02 430.44 145.39 430.44 142.58 435.31 145.39 440.18" style="fill:#95d4e9"/><polygon points="145.39 456.45 151.02 456.45 153.83 451.58 151.02 446.71 145.39 446.71 142.58 451.58 145.39 456.45" style="fill:#95d4e9"/><polygon points="145.39 472.72 151.02 472.72 153.83 467.85 151.02 462.98 145.39 462.98 142.58 467.85 145.39 472.72" style="fill:#95d4e9"/><polygon points="145.39 488.99 151.02 488.99 153.83 484.12 151.02 479.25 145.39 479.25 142.58 484.12 145.39 488.99" style="fill:#95d4e9"/><polygon points="145.39 505.26 151.02 505.26 153.83 500.39 151.02 495.52 145.39 495.52 142.58 500.39 145.39 505.26" style="fill:#95d4e9"/><polygon points="145.39 521.53 151.02 521.53 153.83 516.66 151.02 511.79 145.39 511.79 142.58 516.66 145.39 521.53" style="fill:#95d4e9"/><polygon points="145.39 537.8 151.02 537.8 153.83 532.93 151.02 528.07 145.39 528.07 142.58 532.93 145.39 537.8" style="fill:#95d4e9"/><polygon points="145.39 554.08 151.02 554.08 153.83 549.21 151.02 544.34 145.39 544.34 142.58 549.21 145.39 554.08" style="fill:#95d4e9"/><polygon points="145.39 570.35 151.02 570.35 153.83 565.48 151.02 560.61 145.39 560.61 142.58 565.48 145.39 570.35" style="fill:#95d4e9"/><polygon points="145.39 586.62 151.02 586.62 153.83 581.75 151.02 576.88 145.39 576.88 142.58 581.75 145.39 586.62" style="fill:#95d4e9"/></g><path d="M352.41,945.34H308.16a17.58,17.58,0,0,1-17.59-17.57V869.39A17.59,17.59,0,0,0,273,851.82H236.19" style="fill:none;stroke:#231f20;stroke-miterlimit:10;stroke-width:2.23090946674347px"/><path d="M107.69,299.23v72a17.57,17.57,0,0,0,17.56,17.58H273.39" style="fill:none;stroke:#231f20;stroke-miterlimit:10;stroke-width:2.23090946674347px"/><rect x="271.5" y="38.7" width="197.5" height="105.89" style="fill:#fff;stroke:#231f20;stroke-miterlimit:10;stroke-width:2.23090946674347px"/><text transform="translate(322.06 104.22)" style="font-size:21.565460205078125px;font-family:FuturaLT-Bold, Futura LT;font-weight:700">KICKOFF</text><rect x="49.22" y="220.61" width="197.5" height="105.89" style="fill:#fff;stroke:#231f20;stroke-miterlimit:10;stroke-width:2.23090946674347px"/><text transform="translate(87.17 281.03)" style="font-size:21.565460205078125px;font-family:FuturaLT-Bold, Futura LT;font-weight:700">REVISIONS</text><rect x="272.05" y="165.34" width="197.5" height="105.89" style="fill:#fff;stroke:#231f20;stroke-miterlimit:10;stroke-width:2.23090946674347px"/><text transform="translate(309.48 214.19)" style="font-size:21.565460205078125px;font-family:FuturaLT-Bold, Futura LT;font-weight:700">TECHNICAL<tspan x="18.57" y="25.88">DESIGN</tspan></text><rect x="272.56" y="335.4" width="197.5" height="105.89" style="fill:#fff;stroke:#231f20;stroke-miterlimit:10;stroke-width:2.23090946674347px"/><text transform="translate(328.37 396.93)" style="font-size:21.565460205078125px;font-family:FuturaLT-Bold, Futura LT;font-weight:700">REVIEW</text><path d="M321.33,604H163.1a17.57,17.57,0,0,0-17.58,17.56v37.94" style="fill:none;stroke:#231f20;stroke-miterlimit:10;stroke-width:2.23090946674347px"/><path d="M247.52,304.9H382.33a17.57,17.57,0,0,0,17.59-17.56V269.76" style="fill:none;stroke:#231f20;stroke-miterlimit:10;stroke-width:2.23090946674347px"/><rect x="273.64" y="585.49" width="197.5" height="105.89" style="fill:#fff;stroke:#231f20;stroke-miterlimit:10;stroke-width:2.23090946674347px"/><text transform="translate(312.68 645.91)" style="font-size:21.565460205078125px;font-family:FuturaLT-Bold, Futura LT;font-weight:700">FINISHING</text><rect x="353.17" y="892.7" width="197.5" height="105.89" style="fill:#fff;stroke:#231f20;stroke-miterlimit:10;stroke-width:2.23090946674347px"/><text transform="translate(397.73 953.12)" style="font-size:21.565460205078125px;font-family:FuturaLT-Bold, Futura LT;font-weight:700">OPENING</text><line x1="372.52" x2="372.52" y2="34.38" style="fill:none;stroke:#231f20;stroke-miterlimit:10;stroke-width:2.23090946674347px"/><polygon points="363.39 26.99 365.02 25.47 372.51 33.53 380 25.47 381.64 26.99 372.51 36.8 363.39 26.99" style="fill:#231f20"/><line x1="422.71" y1="271.29" x2="422.71" y2="331.5" style="fill:none;stroke:#231f20;stroke-miterlimit:10;stroke-width:2.23090946674347px"/><polygon points="413.59 324.11 415.22 322.58 422.71 330.64 430.2 322.58 431.83 324.11 422.71 333.92 413.59 324.11" style="fill:#231f20"/><line x1="422.71" y1="440.72" x2="422.71" y2="459.13" style="fill:none;stroke:#231f20;stroke-miterlimit:10;stroke-width:2.23090946674347px"/><polygon points="413.59 451.74 415.22 450.22 422.71 458.27 430.2 450.22 431.83 451.74 422.71 461.55 413.59 451.74" style="fill:#231f20"/><line x1="422.71" y1="566.03" x2="422.71" y2="584.43" style="fill:none;stroke:#231f20;stroke-miterlimit:10;stroke-width:2.23090946674347px"/><polygon points="413.59 577.04 415.22 575.52 422.71 583.58 430.2 575.52 431.83 577.04 422.71 586.85 413.59 577.04" style="fill:#231f20"/><line x1="550.86" y1="947.11" x2="585.24" y2="947.11" style="fill:none;stroke:#231f20;stroke-miterlimit:10;stroke-width:2.23090946674347px"/><polygon points="577.85 956.23 576.33 954.6 584.39 947.11 576.33 939.62 577.85 937.99 587.66 947.11 577.85 956.23" style="fill:#231f20"/><polygon points="144.81 376.61 131.7 376.61 125.14 387.97 131.7 399.33 144.81 399.33 151.37 387.97 144.81 376.61" style="fill:#1e2944"/><polygon points="176.02 376.61 162.9 376.61 156.34 387.97 162.9 399.33 176.02 399.33 182.58 387.97 176.02 376.61" style="fill:#1e2944"/><polygon points="207.22 376.61 194.11 376.61 187.55 387.97 194.11 399.33 207.22 399.33 213.78 387.97 207.22 376.61" style="fill:#1e2944"/><polygon points="238.43 376.61 225.31 376.61 218.75 387.97 225.31 399.33 238.43 399.33 244.99 387.97 238.43 376.61" style="fill:#1e2944"/><polygon points="279.63 377.28 266.51 377.28 259.95 388.64 266.51 400 279.63 400 286.19 388.64 279.63 377.28" style="fill:#1e2944"/><polygon points="269.76 398.01 268.21 396.36 276.38 388.77 268.21 381.18 269.76 379.52 279.7 388.77 269.76 398.01" style="fill:#fff"/><polygon points="240.48 317.38 253.6 317.38 260.16 306.01 253.6 294.65 240.48 294.65 233.92 306.01 240.48 317.38" style="fill:#1e2944"/><polygon points="250.35 296.65 251.89 298.3 243.73 305.89 251.89 313.48 250.35 315.14 240.41 305.89 250.35 296.65" style="fill:#fff"/><g style="opacity:0.41000000000000003"><path d="M256,879.2H164.59a2.48,2.48,0,0,1-2.49-2.49V764a2.49,2.49,0,0,1,2.49-2.49h45.69a2.5,2.5,0,0,1,2.49,2.49v64.56H256a43.2,43.2,0,0,0,0-86.39H164.59a2.49,2.49,0,0,1-2.49-2.5V694a2.49,2.49,0,0,1,2.49-2.49H256a93.87,93.87,0,1,1,0,187.74Zm-88.89-5H256a88.9,88.9,0,0,0,77-133.33h0a88.86,88.86,0,0,0-77-44.44H167.08v40.7H256a48.18,48.18,0,0,1,0,96.36H210.28a2.48,2.48,0,0,1-2.49-2.49V766.47H167.08Z" style="fill:#68a2b9"/><path d="M239.76,891.71H148.37a2.5,2.5,0,0,1-2.49-2.5V776.47a2.5,2.5,0,0,1,2.49-2.49h45.7a2.5,2.5,0,0,1,2.49,2.49V841h43.2a43.2,43.2,0,0,0,0-86.39H148.37a2.5,2.5,0,0,1-2.49-2.5V706.45a2.5,2.5,0,0,1,2.49-2.49h91.39a93.88,93.88,0,1,1,0,187.75Zm-88.89-5h88.89a88.9,88.9,0,0,0,77-133.33h0a88.89,88.89,0,0,0-77-44.44H150.87v40.7h88.89a48.18,48.18,0,0,1,0,96.36H194.07a2.49,2.49,0,0,1-2.5-2.49V779h-40.7Z" style="fill:#68a2b9"/><path d="M148.38,709a2.5,2.5,0,0,1-1.53-4.47L163.07,692a2.49,2.49,0,0,1,3,3.95l-16.21,12.5A2.5,2.5,0,0,1,148.38,709Z" style="fill:#68a2b9"/><path d="M148.38,779a2.5,2.5,0,0,1-1.53-4.47L163.07,762a2.49,2.49,0,0,1,3,4l-16.21,12.5A2.5,2.5,0,0,1,148.38,779Z" style="fill:#68a2b9"/><path d="M148.38,754.64a2.5,2.5,0,0,1-1.53-4.47l16.22-12.5a2.49,2.49,0,0,1,3,4l-16.21,12.5A2.5,2.5,0,0,1,148.38,754.64Z" style="fill:#68a2b9"/><path d="M194.07,779a2.5,2.5,0,0,1-1.53-4.47L208.76,762a2.49,2.49,0,0,1,3,4l-16.21,12.5A2.5,2.5,0,0,1,194.07,779Z" style="fill:#68a2b9"/><path d="M194.07,846a2.49,2.49,0,0,1-1.53-4.46l16.22-12.5a2.49,2.49,0,0,1,3,4l-16.21,12.5A2.49,2.49,0,0,1,194.07,846Z" style="fill:#68a2b9"/><path d="M148.38,891.71a2.5,2.5,0,0,1-1.53-4.47l16.22-12.5a2.49,2.49,0,0,1,3,4l-16.21,12.5A2.5,2.5,0,0,1,148.38,891.71Z" style="fill:#68a2b9"/></g><rect x="52.25" y="847.66" width="197.5" height="62.47" transform="translate(302.01 1757.8) rotate(180)" style="fill:#1e2944;stroke:#231f20;stroke-miterlimit:10;stroke-width:1.7135292115427px"/><text transform="translate(108.07 885.78)" style="font-size:21.565460205078125px;fill:#fff;font-family:FuturaLT-Bold, Futura LT;font-weight:700">REVIEW</text><rect x="52.25" y="779.22" width="197.5" height="62.47" transform="translate(302.01 1620.92) rotate(180)" style="fill:#1e2944;stroke:#231f20;stroke-miterlimit:10;stroke-width:1.7135292115427px"/><text transform="translate(71.1 817.34)" style="font-size:21.565460205078125px;fill:#fff;font-family:FuturaLT-Bold, Futura LT;font-weight:700">INS<tspan x="39.27" y="0" style="letter-spacing:-0.06000082076594444em">T</tspan><tspan x="49.47" y="0">ALL</tspan><tspan x="87.66" y="0" style="letter-spacing:-0.06000082076594444em">A</tspan><tspan x="103.21" y="0" style="letter-spacing:0.000022641819156960165em">TION</tspan></text><rect x="52.25" y="710.78" width="197.5" height="62.47" transform="translate(302.01 1484.04) rotate(180)" style="fill:#1e2944;stroke:#231f20;stroke-miterlimit:10;stroke-width:1.7135292115427px"/><text transform="translate(99.18 748.9)" style="font-size:21.565460205078125px;fill:#fff;font-family:FuturaLT-Bold, Futura LT;font-weight:700">DELIVE<tspan x="74.01" y="0" style="letter-spacing:-0.039985452631191645em">R</tspan><tspan x="87.81" y="0">Y</tspan></text><rect x="52.25" y="642.34" width="197.5" height="62.47" transform="translate(302.01 1347.16) rotate(180)" style="fill:#1e2944;stroke:#231f20;stroke-miterlimit:10;stroke-width:1.7135292115427px"/><text transform="translate(73.85 680.46)" style="font-size:21.565460205078125px;fill:#fff;font-family:FuturaLT-Bold, Futura LT;font-weight:700">INTEGR<tspan x="82.16" y="0" style="letter-spacing:-0.05997817894678748em">A</tspan><tspan x="97.71" y="0">TION</tspan></text><polygon points="162.52 714.2 162.52 701.08 151.15 694.52 139.79 701.08 139.79 714.2 151.15 720.76 162.52 714.2" style="fill:#6aa2b9"/><polygon points="141.79 704.33 143.44 702.79 151.03 710.95 158.62 702.79 160.28 704.33 151.03 714.27 141.79 704.33" style="fill:#fff"/><polygon points="162.52 783.86 162.52 770.74 151.15 764.18 139.79 770.74 139.79 783.86 151.15 790.42 162.52 783.86" style="fill:#6aa2b9"/><polygon points="141.79 773.98 143.44 772.44 151.03 780.61 158.62 772.44 160.28 773.98 151.03 783.92 141.79 773.98" style="fill:#fff"/><polygon points="162.52 850.78 162.52 837.66 151.15 831.1 139.79 837.66 139.79 850.78 151.15 857.34 162.52 850.78" style="fill:#6aa2b9"/><polygon points="141.79 840.91 143.44 839.36 151.03 847.53 158.62 839.36 160.28 840.91 151.03 850.85 141.79 840.91" style="fill:#fff"/><polygon points="359.09 933.66 345.97 933.66 339.41 945.02 345.97 956.38 359.09 956.38 365.65 945.02 359.09 933.66" style="fill:#6aa2b9"/><polygon points="349.22 954.39 347.68 952.74 355.84 945.15 347.68 937.56 349.22 935.9 359.16 945.15 349.22 954.39" style="fill:#fff"/><rect x="273.64" y="461.27" width="197.5" height="105.89" style="fill:#6aa2b9;stroke:#231f20;stroke-miterlimit:10;stroke-width:2.23090946674347px"/><text transform="translate(297.47 523.28)" style="font-size:21.565460205078125px;fill:#fff;font-family:FuturaLT-Bold, Futura LT;font-weight:700"><tspan style="letter-spacing:-0.054996978732256244em">F</tspan><tspan x="10.5" y="0">ABRIC</tspan><tspan x="77.83" y="0" style="letter-spacing:-0.06000082076594444em">A</tspan><tspan x="93.38" y="0">TION</tspan></text><path d="M113,510.13l-9.2,1.64-.56-3.13a5.2,5.2,0,0,1,.62-3.88,4.57,4.57,0,0,1,3.12-1.88,4.33,4.33,0,0,1,3.4.63,5.07,5.07,0,0,1,2,3.28Zm-2.46-2-.08-.49a2.85,2.85,0,0,0-1-1.89,2.58,2.58,0,0,0-2-.37,2.81,2.81,0,0,0-1.88,1.08,2.68,2.68,0,0,0-.24,2l.1.58Z" style="fill:#202945"/><path d="M111.52,491.67a5.59,5.59,0,0,1-1.1,7.29,4.83,4.83,0,0,1-3.67.93,4.77,4.77,0,0,1-3.24-2,5.58,5.58,0,0,1,1.1-7.28,4.89,4.89,0,0,1,6.91,1Zm-6.06,4.73a2.59,2.59,0,0,0,1.71,1,2.39,2.39,0,0,0,1.83-.48,2.65,2.65,0,0,0,1-1.76,2.5,2.5,0,0,0-.44-2,2.55,2.55,0,0,0-1.66-1,2.49,2.49,0,0,0-1.88.48,2.84,2.84,0,0,0-1,1.75A2.72,2.72,0,0,0,105.46,496.4Z" style="fill:#202945"/><path d="M105.71,483.41l6.06,1.56-4.28-4.7,1-1.68L114.6,480l-4.39-4.51,1.25-2.21,6.66,7.2-1.22,2.16-5.54-1.19,3.82,4.22L114,487.79l-9.51-2.18Z" style="fill:#202945"/><path d="M120.71,477.27l-5.8-7.33,1.91-1.5,7.05,1.71-3.55-4.48,1.9-1.51,5.8,7.33-1.9,1.51-7.05-1.72,3.54,4.49Z" style="fill:#202945"/><path d="M130.83,462.45l2.76,6.74-2.24.92-2.76-6.74-1.84.75-.78-1.9,5.93-2.43.77,1.91Z" style="fill:#202945"/><path d="M145.07,465.82a5.6,5.6,0,0,1-7.33.77,4.89,4.89,0,0,1-.73-7,5.59,5.59,0,0,1,7.33-.76,4.88,4.88,0,0,1,.73,6.95Zm-6.1-4.67a2.55,2.55,0,0,0-.54,1.9,2.34,2.34,0,0,0,.92,1.65,2.6,2.6,0,0,0,2,.54,2.54,2.54,0,0,0,1.8-.92,2.57,2.57,0,0,0,.56-1.86,2.52,2.52,0,0,0-.94-1.71,2.78,2.78,0,0,0-1.94-.54A2.69,2.69,0,0,0,139,461.15Z" style="fill:#202945"/><path d="M152.23,458.22l-.08,6.26,3.54-5.28,1.86.53.12,6.31,3.35-5.33,2.44.69L158,469.58l-2.39-.67-.15-5.67L152.3,468l-2.38-.68-.13-9.75Z" style="fill:#202945"/><path d="M161.76,471.34l5.73-7.38,1.92,1.49,0,7.25,3.51-4.51,1.91,1.49-5.73,7.38-1.92-1.49,0-7.26-3.51,4.52Z" style="fill:#202945"/><path d="M129.09,532.1l-2.5-1.52-.81,1.32,2.27,1.39L127,535.05l-2.27-1.39-1.92,3.14-2.06-1.27,4.86-8,4.57,2.78Z" style="fill:#202945"/><path d="M135.11,540.3l-3.26-1-1,1.33-2.46-.72,6.08-8,2.54.74.74,10-2.49-.73Zm-.1-2-.16-3.2L133,537.75Z" style="fill:#202945"/><path d="M141.32,543l.09-9.35,3.61,0a2.63,2.63,0,0,1,2,.75,2.51,2.51,0,0,1,.56,1.76,2.37,2.37,0,0,1-.28,1.14,1.44,1.44,0,0,1-.76.72,2.27,2.27,0,0,1,1.27.58,2.34,2.34,0,0,1,.62,1.71,2.53,2.53,0,0,1-.71,1.83,3.5,3.5,0,0,1-2.54.86Zm2.45-1.87h.54a2,2,0,0,0,1.5-.36.94.94,0,0,0,.21-.6,1,1,0,0,0-.24-.68,2.2,2.2,0,0,0-1.49-.32h-.51Zm0-3.77h.45a1.25,1.25,0,0,0,.92-.29.86.86,0,0,0,.23-.61.94.94,0,0,0-.21-.63,1.28,1.28,0,0,0-.93-.29h-.45Z" style="fill:#202945"/><path d="M151.67,533.35l3.54,5.16-.14-6.35,1.83-.64,3.73,5.09-.34-6.28,2.4-.84.27,9.81-2.34.82-3.39-4.54.1,5.69-2.33.82-5.72-7.9Z" style="fill:#202945"/><path d="M175,529.28a5.59,5.59,0,0,1-5.56,4.83,4.86,4.86,0,0,1-3.4-1.67,4.8,4.8,0,0,1-1.18-3.61,5.59,5.59,0,0,1,5.56-4.83,4.88,4.88,0,0,1,4.58,5.28Zm-7.67-.33a2.56,2.56,0,0,0,.64,1.87,2.37,2.37,0,0,0,1.7.82,2.63,2.63,0,0,0,2.25-4.31,2.5,2.5,0,0,0-1.75-.85,2.76,2.76,0,0,0-1.9.67A2.68,2.68,0,0,0,167.32,529Z" style="fill:#202945"/><path d="M173.75,517.19a3,3,0,0,1,1.88-1.53,3.06,3.06,0,0,1,2.21.39,2.66,2.66,0,0,1,1.29,1.63,2.58,2.58,0,0,1-.1,1.44l4.78-.55-1.54,2.58-4.27.16,3.08,1.84-1.25,2.08-8-4.79Zm2.9,3.32.23-.4a1.79,1.79,0,0,0,.28-1.2,1.15,1.15,0,0,0-.51-.67,1.08,1.08,0,0,0-.84-.13,1.65,1.65,0,0,0-.91.82l-.24.39Z" style="fill:#202945"/><path d="M180.64,510.93l-3-3.82.73-2.91,3.39,4.68,5.76-2.73-.77,3L182,511.28l3.92,1-.59,2.35-9.06-2.27.59-2.35Z" style="fill:#202945"/><path d="M184.86,501.73a3.24,3.24,0,0,0,.89-2.17,1.23,1.23,0,0,0-.34-.93.82.82,0,0,0-.6-.22.71.71,0,0,0-.55.28,3.29,3.29,0,0,0-.46,1.21l-.18.64a3,3,0,0,1-.72,1.37,2.31,2.31,0,0,1-1.63.57,3,3,0,0,1-2.28-.79,3.27,3.27,0,0,1-1-2.37,6.45,6.45,0,0,1,.68-2.9l1.91.91a2.45,2.45,0,0,0-.58,1.61,1.13,1.13,0,0,0,.3.79.7.7,0,0,0,.51.23.68.68,0,0,0,.42-.14,1.51,1.51,0,0,0,.39-.82l.21-.75a3.53,3.53,0,0,1,.87-1.72,2.24,2.24,0,0,1,1.65-.65,3.15,3.15,0,0,1,2.38.82,3.61,3.61,0,0,1,1,2.73,4.76,4.76,0,0,1-.26,1.84,6.55,6.55,0,0,1-.7,1.44Z" style="fill:#202945"/><polygon points="115.89 522.69 114.99 521.13 113.2 521.13 112.3 522.68 113.2 524.24 114.99 524.24 115.89 522.69" style="fill:#202945"/><polygon points="181.49 484.84 180.6 483.29 178.8 483.29 177.91 484.84 178.8 486.39 180.6 486.39 181.49 484.84" style="fill:#202945"/></g></g></svg>